/* XPM */
static char *collectibles[] = {
/* columns rows colors chars-per-pixel */
"64 64 228 2 ",
"   c #533B1F",
".  c #69301C",
"X  c #543A24",
"o  c #5B3D2B",
"O  c #563B29",
"+  c #4A3E28",
"@  c #643825",
"#  c #36451C",
"$  c #3A4924",
"%  c #3B4725",
"&  c #444526",
"*  c #4C452A",
"=  c #434929",
"-  c #4A4B2B",
";  c #484427",
":  c #54432B",
">  c #594428",
",  c #4A4832",
"<  c #584933",
"1  c #485938",
"2  c #575539",
"3  c #784B39",
"4  c #6A573C",
"5  c #7B543D",
"6  c #6F462E",
"7  c #4A623B",
"8  c #506031",
"9  c #7F4D42",
"0  c #635F43",
"q  c #6E5840",
"w  c #795943",
"e  c #5A6544",
"r  c #57714E",
"t  c #6C6548",
"y  c #766548",
"u  c #647E55",
"i  c #6B7D55",
"p  c #647E59",
"a  c #6C7D5A",
"s  c #6B7554",
"d  c #7C7554",
"f  c #747B55",
"g  c #747D5A",
"h  c #7A7C5B",
"j  c #7B7A56",
"k  c #777E61",
"l  c #6F7F62",
"z  c #8C3E3A",
"x  c #9B3C34",
"c  c #973F3A",
"v  c #9F3E38",
"b  c #A33D35",
"n  c #8D453D",
"m  c #834A3C",
"M  c #8C4A3C",
"N  c #8C4737",
"B  c #9C4236",
"V  c #93433B",
"C  c #9B433C",
"Z  c #944A3C",
"A  c #9B4A3D",
"S  c #964836",
"D  c #84543D",
"F  c #8C523D",
"G  c #98523D",
"H  c #9C412F",
"J  c #A3423B",
"K  c #AB453D",
"L  c #A5463A",
"P  c #A1523F",
"I  c #943F42",
"U  c #8B4641",
"Y  c #844C43",
"T  c #8C4B43",
"R  c #894948",
"E  c #944542",
"W  c #944942",
"Q  c #994942",
"!  c #885845",
"~  c #9B5443",
"^  c #94524B",
"/  c #9E5248",
"(  c #965441",
")  c #9B5953",
"_  c #A24D42",
"`  c #A74842",
"'  c #A35447",
"]  c #BC544C",
"[  c #B95C4E",
"{  c #BD5552",
"}  c #B55D54",
"|  c #BD5B54",
" . c #B75B57",
".. c #AE5249",
"X. c #8A664C",
"o. c #97684C",
"O. c #896E51",
"+. c #9B6553",
"@. c #9C6A55",
"#. c #926E54",
"$. c #847556",
"%. c #8D7356",
"&. c #847459",
"*. c #877959",
"=. c #957159",
"-. c #9D735F",
";. c #A8634E",
":. c #A26453",
">. c #AB6355",
",. c #AA6659",
"<. c #B36154",
"1. c #BB625A",
"2. c #B3624F",
"3. c #CD554D",
"4. c #C6554B",
"5. c #C25652",
"6. c #C25A53",
"7. c #C45B5B",
"8. c #CA5853",
"9. c #CE786F",
"0. c #E07E7B",
"q. c #4E8655",
"w. c #4E8956",
"e. c #4F8C5A",
"r. c #548655",
"t. c #5C8555",
"y. c #538A56",
"u. c #5B8A56",
"i. c #56865A",
"p. c #5C865B",
"a. c #548C5B",
"s. c #5A8B5C",
"d. c #4E9059",
"f. c #55905D",
"g. c #5B915E",
"h. c #628356",
"j. c #698256",
"k. c #63855A",
"l. c #6B835A",
"z. c #628A5C",
"x. c #638A57",
"c. c #728159",
"v. c #77835B",
"b. c #6A8957",
"n. c #558D61",
"m. c #5A8D61",
"M. c #569060",
"N. c #5C9261",
"B. c #638C61",
"V. c #6A8461",
"C. c #798865",
"Z. c #689867",
"A. c #739967",
"S. c #6CA36D",
"D. c #7BA674",
"F. c #7BAD79",
"G. c #75A776",
"H. c #74A775",
"J. c #858A62",
"K. c #979572",
"L. c #8B9B70",
"P. c #8CAD7B",
"I. c #85A675",
"U. c #94AE7D",
"Y. c #9BAF7C",
"T. c #8DB27E",
"R. c #83B27E",
"E. c #94B07F",
"W. c #A8AA7D",
"Q. c #B0A27D",
"!. c #D5897E",
"~. c #CE857E",
"^. c #7FB381",
"/. c #94AB83",
"(. c #85B583",
"). c #8DB483",
"_. c #8AB985",
"`. c #85BA89",
"'. c #8CBB8A",
"]. c #88B887",
"[. c #92B483",
"{. c #99B382",
"}. c #95B887",
"|. c #89AE82",
" X c #A3A884",
".X c #B8A486",
"XX c #A8B186",
"oX c #DB8F81",
"OX c #E98A83",
"+X c #C2B598",
"@X c #D5B898",
"#X c #E7AD96",
"$X c #E9BBA3",
"%X c #FFB8AA",
"&X c #FFBDB3",
"*X c #FFBDBA",
"=X c #88C18E",
"-X c #DAC2A7",
";X c #DBD3AC",
":X c #DED2B4",
">X c #E7C6AB",
",X c #FEC6AE",
"<X c #F3CBAE",
"1X c #F8C6AE",
"2X c #EBCBB3",
"3X c #ECC9B3",
"4X c #FEC5B3",
"5X c #F4CCB3",
"6X c #FCCCB4",
"7X c #FBCBB9",
"8X c #F7C7B8",
"9X c #ECD3B5",
"0X c #E9D3B9",
"qX c #E5D3B6",
"wX c #F3D2B5",
"eX c #FCD1B6",
"rX c #F8D3BC",
"tX c #EAD0AB",
"yX c #FFCCC5",
"uX c #FFD6C9",
"iX c #FFDED5",
"pX c #FFE4DB",
"aX c #FFEBDC",
"sX c #FFEAD6",
"dX c #FFF1DF",
"fX c #FFEAE4",
"gX c #FFEDEB",
"hX c #FFF0EC",
/* pixels */
"a.a.e.a.a.a.s.t.s.s.s.y.a.s.s.s.p.s.e.d.a.a.n.a.s.n.a.a.a.n.n.n.a.a.s.s.n.n.n.n.s.n.a.a.n.e.n.n.n.n.i.i.u.d.f.d.y.u.a.n.e.f.r.u.",
"a.a.f.a.f.u.s.u.'.Z.s.s.a.a.s.s.s.i.e.a.a.s.e.n.n.i.a.n.a.a.a.a.e.a.a.a.s.s.n.n.s.s.a.a.n.a.e.n.e.n.m.s.f.f.w.f.s.f.n.e.e.a.u.u.",
"y.y.a.f.q.u.u._.|.u.s.s.w.y.y.a.a.a.e.n.s.a.a.a.a.a.s.a.a.a.f.y.f.a.a.a.a.e.i.a.a.a.e.a.a.s.e.n.n.d.a.y.u.f.y.f.f.y.y.a.f.f.u.u.",
"f.a.f.y.u.z.D.).[.h.S._.=Xa.a.f.a.a.n.a.s.n.n.a.a.a.s.i.f.y.e.d.e.d.a.a.f.a.a.y.a.y.a.a.s.s.a.a.d.w.q.N.d.u.y.y.y.a.N.e.w.a.a.a.",
"y.s.a.F.u.u.}.T.x.T._._.y.u.d.a.s.n.n.n.y.a.s.a.s.a.s.y.s.u.d.d.d.w.s.s.a.e.a.a.e.e.a.s.s.s.a.a.M.d.g.F.g.S.u.f.^.s.s.s.f.n.y.a.",
"y.s.s.'.u.A.T.T.T.T._.r.f.g.y.a.s.n.a.a.a.a.a.s.a.a.a.s.a.y.d.d.d.y.s.p.s.a.n.a.n.e.a.i.s.s.a.a.y.e.g.R.f.R.u.d.^.q.s.n.e.a.n.a.",
"s.s.r.(.D.}.P.}.R._.u.u.s.r.s.p.a.n.n.d.d.e.a.s.y.a.a.s.s.a.a.f.a.u.i.n.n.n.n.n.n.p m.s.a.y.a.s.s.a.s.Z.u.F.f.u.`.m.s.i.n.n.n.n.",
"s.s.s.r.'.).[.A.T.x.u.u.f.s.p.s.a.a.e.f.e.a.a.s.a.a.a.a.a.u.a.a.a.s.i.n.e.n.n.n.n.m.m.s.a.a.s.p.s.p.p.s.g.u.a.a.a.a.s.i.m.e.a.n.",
"s.s.s.s.(.).).).x.g.r.y.f.a.s.a.a.y.f.u.a.s.r.u.a.a.a.a.e.s.p.a.s.s.a.a.a.f.s.p.p.z.k.p.s.a.p.p.p.n.s.s.a.a.s.a.s.a.u.a.a.a.n.n.",
"a.s.a.a.r.'._.t.u.u.u.f.a.a.a.y.s.t.j.h.j.c.l.k.s.a.a.a.n.a.s.s.s.a.a.s.f.r.h.c.f v.j f C.a l.h.s.a.n.e.n.a.s.a.p.a.a.u.a.a.e.n.",
"i.n.e.a.a.N.t.s.u.z.f.a.a.e.a.s.u v.d J.O.%.d f j.a.s.a.s.a.n.n.e.n.m.s.u.j.$.%.#.@.:.>.o.=.&.v.p.s.e.n.a.a.s.s.y.a.a.f.a.a.n.e.",
"n.a.n.y.f.a.s.a.s.r.y.g.a.m.s.l.d %.%.=.+.:.=.$.j j.p.p.p.n.a.a.n.s.k.h.c.*.%.o.eXsX[ 2.} :.@.%.a p.s.n.e.n.s.s.a.a.a.d.a.d.n.e.",
"y.e.a.e.M.y.y.m.s.a.a.p.m.k.p d -.+.yXdX<.1.,.@.#.&.g k.s.a.a.a.a.m.p k w Y :.,.%XuX] { aXaX>.@.&.c.x.s.a.f.a.n.a.a.y.f.a.e.a.a.",
"M.a.e.a.a.s.a.a.e.y.s.p.p h y w ) >.4XuX1. .pXaX>.@.&.g k.a.s.u.r.V.k 4 ! Y U Y Z P { 7.pXsX2.<.@.$.c.h.a.a.a.a.a.a.a.a.f.a.a.a.",
"d.f.f.y.s.s.a.a.f.e.n.B.g 4 ! U U ^ n /  . .fXaX .} @.&.j.s.a.s.l.v.5 Y 9 yXgXgXY E 7.7.OXsX6.[ 2.;.d j.s.e.a.a.s.u.a.a.a.a.a.a.",
"e.d.a.s.i.a.a.a.a.s.p g 4 9 m *XfXfXU E 7. .oXaX| | } @.$.g f g d w U W Y hXgXgXR Q { 7. .{ 4.4.[ ;.X.f x.a.y.d.a.f.a.s.s.a.a.e.",
"d.e.s.s.a.a.e.e.p.h.d X.9 Y m fXhXfXR E { 5.4.4.3.3.3.[ ' :.,.,.>.} 6.0.V W ^ n E E I | { 8.3.3.2.>.F %.v.h.u.d.d.u.u.p.a.a.a.a.",
"e.f.s.s.s.e.d.a.p.g q Y I oXT R ^ Y T E C ] 3.4.3.3.4.5.1.*XpX5.7.6.{ 5.C x C A V E uX%X6.5.3.4.sX!.~ D $.c.u.d.d.f.s.s.s.a.a.e.",
"a.n.p.k.p.a.a.a.B.g 4 5 9.fXz V E A E E yX*X] 8.8.` `  . .&XyX| } pXpX} { ..C x C b v x ` b L J pXZ ( X.q b.s.y.a.f.a.s.a.a.a.a.",
"a.a.p.m.s.a.a.a.t.i y ! 9 z V C c C C V E C J b b I E z T W _ <.} pXpX} { ] K L C J b ` b C A G ~ ~ ! 5 t f s.a.a.y.a.a.a.a.a.a.",
"e.n.s.n.s.a.a.a.s.l.j 4 5 F N V B B E c V I ` Q V E *XgXfXn N <.| OXpX6.6.| { K ` L _ L _ A ~ F ! w w *.c.x.u.f.a.a.a.a.a.a.a.a.",
"n.n.a.s.a.a.d.f.a.y.j.j y 5 D D Z S ~ / ' _ ` c E U gXgXfXM C [ | 7.5.] 6.{ 6.L %X&X' ~ ,XF o.O.$.d g c.h.z.s.a.a.f.a.w.a.a.a.s.",
"a.n.s.a.a.f.e.f.e.u.s.j.i v.j $.6 ! 1X4X~ V c V !.E R ^ R E c C { 5.6.6.] 4.5.K ,X,X4X#X4XeX$.f c.h.x.u.s.s.s.a.a.a.e.f.a.a.a.s.",
"n.i.a.a.a.a.a.e.a.f.u.s.s.k.h.i 2 > 5X4X7XN V 9.pXU U E E E C yX&X5.5.8.4.pX9.K L 6X,X5X5XwXK.j.u.g.u.y.a.y.a.s.a.a.a.a.f.a.a.a.",
"a.a.a.a.a.a.a.a.y.a.a.a.p.i.B.r 4 : 2X7X,X' G V Z V E n W V W C x L L K b sXK K L G ,X6X1X9XJ.p s.y.f.w.a.a.s.p.s.a.d.a.d.e.a.a.",
"a.a.a.a.a.s.s.p.s.e.n.a.i.m.i.r 2 < 2X6X,X,XZ V Z U M M M Z Z V H x L L K K L K P ;.6X5XrXrXh $ x.a.a.y.a.s.r.s.s.s.a.a.a.f.a.a.",
"s.a.y.s.s.s.p.s.s.n.e.n.m.m.m.1 * : -XeX4X4X&X,.^ Y m m F ( ( ' P S P G F G P G #X4X,XeX6X5Xq * /.Z.y.f.y.a.s.s.a.a.a.a.a.a.a.a.",
"a.y.a.a.s.p.p.s.a.a.n.a.n.m.V.$ , O 2X5X,X4X7X4Xm @ -.6 ( $X6X~ G ,XF o.X.3 . . 6 eX<XeX7X5X: /.{.t.s.s.f.s.y.f.y.a.a.a.a.a.s.a.",
"e.e.a.a.a.a.a.a.a.y.s.a.p.k.V.2 O O 6 5X7X4X7X7Xo O &.> o eX4X,X#X5XwX%.j 2   @ >X1XwX@X9X9X* /./.p.s.y.w.f.w.y.f.a.a.a.a.a.s.a.",
"e.d.e.e.d.a.a.a.a.n.a.s.s.z.t.1 + o $X8X,XeX7X2Xo + t 0 > <XeX4X1XrXqXK.c.f -   wX<XwXQ.Q.;XL.L.{.k.s.`.`.f.g.f.e.a.a.a.a.s.a.a.",
"n.s.a.e.n.d.a.a.a.a.s.y.s.(.s.C.2 X rX>X5X<X9XqX* * t 2 < 2X5X1X6X5X0XC.s g 0 > wXwX<XtXW.c.Y.{.l.[.T.=XZ.y.y.a.a.a.s.a.s.a.a.a.",
"s.n.s.n.a.a.a.a.a.s.y.s.s.(.a.).s < qX.XwXwXqXj e k , * O $X5XeX4X7X0Xh = v.s & ;X-X>X;XW.Y.E.{.[.)._.u.s.s.a.u.a.a.a.a.s.a.a.e.",
"s.a.a.a.a.a.a.a.s.a.a.s.a.`.a.D.{.= :X.X>X9X.X& l l , : X 3X5XeXwX<X9X0 & v.V.7 $  XXXJ.8 Y.U.[.|.'.p.t.s.a.f.a.s.a.a.a.a.a.a.a.",
"a.a.a.a.a.a.a.a.r.s.s.a.s.(.s.t.).7 $  X.X* & 1 m.V.1 , X 3 5X<X<XwX9X  - i p z.z.}.I.L.E.E.{.[.[.a.s.s.s.a.a.a.a.a.a.a.a.a.a.s.",
"a.a.a.a.a.a.a.a.a.s.n.a.y.m.a.s.].V.j./.$ j.7 B.i.B.1 = X 1X5X5XeX6X9X* % V.k.p.s.t.).T.}.T.[.).s.s.s.y.m.a.a.a.e.a.a.a.a.a.a.a.",
"a.a.a.a.a.a.a.a.a.a.y.s.a.y.s.a.i.r.z.t.x.t.p.y.n.p p , O 8X5X5X6X<X2X; % k.n.n.y.s.z.x.I._.T.s.s.a.y.s.y.a.a.a.a.a.e.a.a.a.a.a.",
"a.a.a.n.e.a.a.a.w.a.a.a.s.a.N.a.m.s.a.s.u.s.g.a.e.n.p e : 3XrXrX3XrX&.e V.n.n.i.f.y.y.u.s.p.p.s.s.s.a.y.a.g.y.a.a.a.a.a.a.a.a.e.",
"a.n.a.a.f.a.a.d.f.a.y.a.a.a.y.a.s.a.a.y.s.r.u.f.d.e.p p ; 0X$X2X0X.X& V.m.m.n.i.a.s.s.s.s.s.m.n.y.y.a.f.f.e.a.a.e.a.a.a.a.f.f.a.",
"n.a.n.a.a.a.e.f.e.a.M.a.a.n.s.s.n.e.a.a.u.s.s.a.n.e.m.V.2 - -X+X* % 1 k.n.n.w.n.s.r.a.y.y.f.n.i.f.w.f.w.a.a.a.a.a.a.a.a.a.e.a.e.",
"e.a.n.a.d.a.a.a.a.w.f.a.y.a.a.a.a.M.y.s.r.s.t.s.i.i.n.m.p l % = s 1 p.p.n.e.n.a.y.s.a.s.s.a.a.a.a.a.a.f.y.a.a.s.a.a.a.a.a.f.a.a.",
"e.m.e.n.i.n.f.a.a.f.w.f.a.a.a.a.a.n.a.a.a.s.s.a.a.d.a.a.s.k.h.k.z.i.n.s.a.a.a.a.s.s.s.u.a.a.a.a.a.a.a.y.s.a.a.a.s.f.s.y.a.a.a.a.",
"a.n.a.a.a.a.q.a.a.g.w.a.y.f.a.a.a.a.a.a.a.a.s.a.a.d.d.a.a.s.s.s.s.s.n.e.a.a.a.s.s.y.a.d.f.y.a.s.a.a.a.e.a.Z.a.s.B.a.a.a.a.y.a.a.",
"n.a.a.e.f.s.a.f.s.y.f.u.a.y.a.a.a.a.a.e.d.a.a.a.e.a.a.e.a.a.a.n.a.a.a.a.a.u.a.a.f.y.f.d.y.f.a.s.e.n.a.a.a.H.r.Z.H.a.a.s.a.a.a.a.",
"a.n.a.i.s.a.G.a.s.y.f.a.a.a.s.a.s.a.e.a.e.d.e.d.a.a.a.a.a.a.n.e.n.a.s.a.a.s.a.a.a.a.d.e.f.a.a.a.a.a.a.a.a.F.y.Z.H.a.a.s.a.a.s.N.",
"a.a.a.a.a.u.'.y.r.u.f.r.s.M.q.e.y.s.a.e.d.n.d.n.a.s.s.s.a.a.a.a.a.n.a.s.a.s.a.a.f.w.a.a.e.a.a.a.a.a.a.a.a.S.f.g.H.s.a.a.s.s.a.s.",
"n.y.s.s.s.s._.s.H.B.s.s.y.y.a.f.a.a.s.a.n.a.n.e.n.i.i.s.s.a.n.n.a.a.s.y.s.y.e.f.f.d.a.a.a.a.u.a.a.s.f.s.u.f.s.f.a.a.s.a.s.a.a.n.",
"a.y.s.a.s.s.(.s.D.D.s.(.a.f.a.a.a.e.a.s.a.n.n.a.s.s.s.s.y.a.a.e.n.n.a.s.a.a.e.a.e.a.n.s.s.a.a.a.s.y.s.a.f.a.f.w.a.y.n.a.a.y.a.a.",
"a.a.s.a.y.t.'.z.Z._.u.(.s.a.e.a.f.a.a.a.a.a.n.a.n.i.a.a.s.a.a.e.a.a.a.a.y.a.a.d.a.a.a.s.s.s.a.a.s.a.a.a.f.w.y.a.f.a.a.y.n.a.n.i.",
"a.a.a.s.s.y.'.Z.B.'.s.(.p.a.s.a.e.a.a.a.a.a.n.e.a.s.a.a.a.a.a.a.a.s.s.a.a.f.y.a.a.s.a.a.a.a.u.g.a.a.a.a.a.e.a.a.a.a.a.a.a.e.a.a.",
"a.e.a.a.s.s._.A.p.].s.'.a.a.a.s.a.a.a.a.a.a.a.a.a.a.a.a.a.a.e.s.s.y.a.a.y.y.f.f.a.f.y.s.y.g.y.s.a.a.a.a.a.a.a.a.a.a.a.a.a.a.a.a.",
"a.a.n.a.a.s.A.s.m.r.s.`.s.a.s.a.a.a.a.a.a.a.a.a.a.i.a.a.a.a.a.a.a.s.f.a.f.y.s.s.s.r.s.R.s.r.a.d.a.a.a.a.a.a.a.a.a.a.a.a.a.a.a.a.",
"a.a.n.y.s.a.f.a.p.a.z.r.a.f.a.a.a.a.a.a.a.a.a.a.a.a.a.a.a.a.a.a.s.a.a.y.a.s.S.u.x.u.(._.r.g.u.f.y.a.a.a.a.a.a.a.a.a.a.a.a.a.a.a.",
"f.e.a.a.a.f.y.s.s.a.a.a.N.w.a.a.a.a.a.a.a.i.a.a.a.a.a.a.a.a.a.a.a.s.r.(.'.t.[.b.z.T.).D.u.u.y.y.a.a.a.a.a.a.a.a.a.a.a.a.a.a.a.a.",
"a.a.a.y.a.a.w.a.u.a.a.a.a.a.a.f.e.a.a.a.a.e.a.a.a.e.a.a.a.a.a.a.a.s.s.'.R.).E.A.U.P.U.A.)._._.f.a.a.a.a.a.a.a.y.a.a.a.a.a.a.a.a.",
"a.y.a.a.a.a.a.f.a.e.f.e.a.n.e.y.a.a.a.a.a.a.a.a.a.a.a.a.a.a.a.a.m.p.s.t._.[.T.}.{.P.E.T.}.R.s.u.a.a.a.s.a.a.a.a.a.a.a.a.a.a.a.a.",
"a.a.a.a.a.y.f.a.a.f.a.a.y.a.a.a.a.a.a.a.a.a.a.a.a.a.a.a.a.a.a.a.m.a.s.s.u.t.}.T.T.[.)._.z.s.u.s.a.a.a.a.a.a.a.a.e.i.a.a.a.e.a.a.",
"a.a.s.a.a.a.a.e.a.a.a.a.a.a.a.a.a.a.a.e.a.a.a.a.a.a.a.a.a.a.a.a.a.a.a.y.f.y.u._.R.T.g.u.u.y.s.a.a.e.a.a.a.a.a.a.a.a.a.a.a.a.a.a.",
"s.s.a.a.a.a.a.a.a.d.a.a.a.a.a.a.a.a.a.a.a.a.a.a.a.a.a.a.a.a.a.a.n.a.M.e.a.f.y.f._.q.u.f.u.g.a.a.a.a.a.a.a.a.e.a.a.a.a.a.a.a.e.a.",
"a.a.a.a.a.a.a.a.a.a.a.a.a.s.a.a.a.a.a.a.a.a.a.a.a.a.a.a.a.a.a.a.n.n.n.a.d.f.a.d.y.a.f.a.y.f.a.s.a.a.a.a.a.i.a.a.a.a.a.a.a.a.n.a.",
"a.s.a.a.a.a.a.a.a.a.a.a.a.a.a.s.a.a.a.a.a.a.a.a.y.a.a.e.a.a.a.a.a.a.a.a.u.y.y.f.f.a.r.s.y.f.s.a.a.a.a.a.a.a.a.a.a.a.a.a.a.a.a.a.",
"a.f.y.a.a.a.a.n.a.a.a.a.s.s.a.u.a.a.a.a.a.a.a.a.a.a.a.a.a.a.a.a.a.s.a.y.f.a.a.y.a.s.s.r.n.s.a.n.a.a.a.a.a.a.a.a.a.a.a.a.a.a.a.a.",
"a.a.a.a.a.a.n.e.a.a.a.a.a.a.a.a.a.a.a.a.a.a.a.a.a.a.a.a.a.a.a.a.s.a.a.y.u.f.f.a.a.i.i.s.m.s.n.a.a.a.a.a.a.a.a.a.a.a.a.a.a.a.a.a.",
"y.f.a.f.a.a.e.n.a.a.a.a.a.a.a.f.e.a.a.a.a.a.a.a.a.e.a.a.a.a.a.a.a.y.a.f.f.u.a.a.a.s.i.n.i.a.w.n.a.a.a.a.a.a.a.a.a.a.a.a.a.e.a.a.",
"d.w.f.e.a.e.M.a.a.n.a.a.a.a.a.y.a.a.a.a.a.a.a.a.a.a.a.a.a.a.a.a.y.a.f.w.a.a.a.s.s.a.n.s.n.e.n.n.a.a.a.a.a.a.a.a.a.e.a.a.a.i.a.a."
};
