/* XPM */
static char *exit[] = {
/* columns rows colors chars-per-pixel */
"64 64 246 2 ",
"   c #292C17",
".  c #3F4217",
"X  c #2E592A",
"o  c #3B532C",
"O  c #2E5633",
"+  c #2E5934",
"@  c #2D593A",
"#  c #29563C",
"$  c #335534",
"%  c #3C5433",
"&  c #325934",
"*  c #34553B",
"=  c #3B543A",
"-  c #335A3A",
";  c #395C3B",
":  c #3D5835",
">  c #344E37",
",  c #3C603A",
"<  c #424F33",
"1  c #475736",
"2  c #4A5830",
"3  c #695B38",
"4  c #765C36",
"5  c #715C2A",
"6  c #48693D",
"7  c #5A653B",
"8  c #53612E",
"9  c #666539",
"0  c #766838",
"q  c #1E534C",
"w  c #2C5A44",
"e  c #2C554B",
"r  c #245A4B",
"t  c #2C5B4C",
"y  c #285549",
"u  c #345949",
"i  c #2B5553",
"p  c #245B54",
"a  c #2C5B54",
"s  c #275759",
"d  c #335A56",
"f  c #324E4F",
"g  c #346548",
"h  c #2A5861",
"j  c #3D6765",
"k  c #5C5948",
"l  c #5E5955",
"z  c #655C4D",
"x  c #685B49",
"c  c #635C53",
"v  c #675E52",
"b  c #556C43",
"n  c #586648",
"m  c #4A7349",
"M  c #4A7252",
"N  c #496B48",
"B  c #666447",
"V  c #6B794A",
"C  c #727844",
"Z  c #676457",
"A  c #786C5A",
"S  c #6B7B55",
"D  c #6E755B",
"F  c #6A7858",
"G  c #72755E",
"H  c #757958",
"J  c #5A7C6A",
"K  c #5A7B74",
"L  c #4B7B71",
"P  c #766D64",
"I  c #6A7667",
"U  c #777563",
"Y  c #637A74",
"T  c #81743D",
"R  c #847742",
"E  c #827669",
"W  c #55824D",
"Q  c #4E8A55",
"!  c #4E8D5A",
"~  c #4E8657",
"^  c #548554",
"/  c #5B8554",
"(  c #548A56",
")  c #5B8A56",
"_  c #55865C",
"`  c #59865B",
"'  c #548C5B",
"]  c #5A8B5B",
"[  c #4F905A",
"{  c #55905D",
"}  c #59915E",
"|  c #65834D",
" . c #638354",
".. c #6B8256",
"X. c #638A56",
"o. c #63855A",
"O. c #6A845A",
"+. c #638B5C",
"@. c #6C8B5B",
"#. c #73815A",
"$. c #6A8C56",
"%. c #568564",
"&. c #5A8663",
"*. c #558B61",
"=. c #5A8B63",
"-. c #55846B",
";. c #5A856B",
":. c #56896C",
">. c #5B8A6A",
",. c #559160",
"<. c #5B9162",
"1. c #5F9865",
"2. c #548572",
"3. c #5C8574",
"4. c #5D8A73",
"5. c #5A8578",
"6. c #4E8371",
"7. c #618C63",
"8. c #628668",
"9. c #639464",
"0. c #6A9869",
"q. c #628472",
"w. c #6F9A7D",
"e. c #7BA777",
"r. c #6CA06F",
"t. c #8A867A",
"y. c #86AC79",
"u. c #89B47E",
"i. c #93B47D",
"p. c #98B57D",
"a. c #93AF7F",
"s. c #A9A476",
"d. c #A79469",
"f. c #CDB47C",
"g. c #4E838F",
"h. c #5D9B92",
"j. c #569E9D",
"k. c #5C9B9C",
"l. c #5B9697",
"z. c #588C87",
"x. c #69998C",
"c. c #639692",
"v. c #6A9694",
"b. c #6B9A96",
"n. c #649B9D",
"m. c #689A97",
"M. c #72998C",
"N. c #5BA19F",
"B. c #74A389",
"V. c #66A29C",
"C. c #6DA59B",
"Z. c #75A899",
"A. c #7DB298",
"S. c #4E9EAC",
"D. c #4D9CA7",
"F. c #549CA4",
"G. c #5C9CA5",
"H. c #539DAC",
"J. c #5A9DAB",
"K. c #5E97A2",
"L. c #4D9EB2",
"P. c #4C9FBA",
"I. c #529EB3",
"U. c #5A9DB3",
"Y. c #639CA3",
"T. c #629CAB",
"R. c #6899A5",
"E. c #4DA1AD",
"W. c #4DA0A4",
"Q. c #55A1A4",
"!. c #5CA2A4",
"~. c #53A1AD",
"^. c #5CA1AD",
"/. c #4CA3B2",
"(. c #4BA1B7",
"). c #53A1B2",
"_. c #5AA3B3",
"`. c #5EA9BC",
"'. c #57A4B9",
"]. c #6CA4A5",
"[. c #6AA4AE",
"{. c #68A6A8",
"}. c #72A8AB",
"|. c #75A4A9",
" X c #7AB5A6",
".X c #63A5B3",
"XX c #64A9B5",
"oX c #6CAAB5",
"OX c #65ABBB",
"+X c #69ACBB",
"@X c #6AA7B3",
"#X c #72AEB9",
"$X c #6EB3BB",
"%X c #73B2BC",
"&X c #77B8B5",
"*X c #6EB0A6",
"=X c #6AB3C4",
"-X c #979C91",
";X c #85B484",
":X c #8DB584",
">X c #8CB986",
",X c #8ABC8B",
"<X c #89B98B",
"1X c #94B584",
"2X c #99B583",
"3X c #92B984",
"4X c #92BB8A",
"5X c #96B687",
"6X c #88AF95",
"7X c #89B698",
"8X c #94BA94",
"9X c #92B495",
"0X c #8BAE91",
"qX c #A3A98F",
"wX c #86AFA3",
"eX c #85B7A6",
"rX c #81BAB3",
"tX c #BAB2A5",
"yX c #CDBD86",
"uX c #DBBD8D",
"iX c #D7BC86",
"pX c #CCBA9B",
"aX c #D4BC98",
"sX c #CBB9A5",
"dX c #91C191",
"fX c #D5C18A",
"gX c #CEC198",
"hX c #D6C39A",
"jX c #D1C2A8",
"kX c #E5DCBD",
"lX c #E7DCC7",
"zX c #E1DAD4",
"xX c #F5EBDA",
"cX c #FFF7DB",
"vX c #DFE2E7",
"bX c #F5EEE4",
"nX c #FFFDE4",
"mX c #FEFDEC",
"MX c #FBF4E8",
"NX c #FFF6F4",
"BX c #F6FDF5",
"VX c #FEFDF3",
"CX c #F6FFFA",
"ZX c #FEFDFB",
"AX c #FEF5F8",
"SX c #D9D5CC",
/* pixels */
"( ( ] _ >.*.! *.! ' ' ' ) ) ] ) ) ] _ ' *.*.*.*.] _ ] ' ' ] ) ] ] ' ( ' ( ' ! { ' ' ' ' ' ' ] ' ) _ ] ' ( ( { { ' ' ' ] { ' { ( ",
") } _ ' *.*.<.' ' ( ] ' _ <._ ' ) ' *.' ' ' ( ' _ =.' { ' ' ] ( ' ( } ' ,.' *.( [ ' ' ( ] ' ' ' ' ] ' { ' [ { ( ] ' ' ] ' ' ( { ",
"( ' { *.,.! ( ) ) y.;X] ] ( ' { ' ' ' ' ' ' ' { Q { ' { ( ] _ =.] ' <.' _ <.Q ' ' ' ' ' { ' ' ( ' ' ' ( { ( { ' ' ' ' ' ! ' ' { ",
"{ ' *.! ' ] ) / 3X3X>X^ *.' Q { ' { ' ' { ' { ( { ' ! { ' ' _ ,X) 9._ ' ( } ' ' ' ' ' ' ' ' ' ' ' ' ' { ' ( ' ' ' ' ' _ ' ' ' ( ",
"' Q ,.! =.e.| 2Xi.i.y.) } ' { ' ( { ' ' ' ' ' ' ' ' ' ' ' ' ' ,X' ,X] ) ,X_ ( ] ' ' ' ' ! ' ! ' ' ' ] ' ' ] ' ' ' ' *.' ' ' ' ' ",
"{ { ' <.^ 4Xa.p.p.p.W } Q *.' ( ' ' [ ( ' ' ' ' ' { ' ] ( { [ ,.] ;X_ ] ;X<.<.( ] ' ' ' ' ' { { ' *.] ' ] _ ] ' ] ' *.*.' *.' ' ",
"' Q { ' ^ y.2Xp.p.y.>X,X,X' ' ] ' ' ' { ' ' ' ' ' =.` ] _ ' [ [ ' ' _ ' <X( _ ] ' ' ' ' ' { [ ' ] _ *.] ' ] ' ' *.' ' ' ' ' ' ' ",
"' { ' ' ] / 2X2Xp.i.>X} 1.' ] _ ' ' ' ' ( { ' ' ] ) ] ` ] ' ! [ ( } ' ( ' ] ' ' ( ' ' ' ' ! ( ' ' ' ' ' ' ' ] ' ' ' *.' ! ' ' ' ",
") ' ' ,.( ) 3X3Xi.X.] ' ' ' ] ( ] _ ' *.! ,.' ! ' ) ) ] ] _ { { { ' Q { *.' ' ' ' Q ' ' { ( ( { { ( ' ( { Q ( ' ' ' ' ' ! ' ' ' ",
") ' *.! ! ( ] +.) ) ] ( <.^ ) X.^ +.) ' ' ' ' } ' ' =._ ] ) ( ' ' ( ' { ' ( ' ' ' ' ( { ' ( { } { Q { ] ( ,X0.{ ' ' { [ ' ' { ( ",
"' _ *.! ,.,.Q ' ] { 1.( ( ) X.| $...$.) ` ` ] _ _ *.,.! ' { ) ) { { { ( ! ' { ' ( *.( ! ' } ' ( ) X.X.) :X4X) ) ' ' ' ' [ ' ( { ",
"{ { ! ! ,.*.{ ' ( ,.~ ' +.| | | C C V 8 ....O.+.] ' [ { ( ( X./ ( Q ' { ! { ' ' ' ' ' ' ' } ( e.1X1XX.@.3Xi.4X3X] ' ' ' ( { ( ' ",
"( ' ! *.' ' { ' ' ( _ =./ ..V C T T 0 0 9 8 7 #.O.X.^ ( ' )  .O.) ] ' ' ' ' ' ' ' *.' ' _ ' ( >X1X1X2X2Xp.2X5X+.) ] ' ' { ' ' ' ",
"' { ,.*._ ] ' ( ' ( 9. .S V s.fXiXuXfXfXfXhX0 0 7 o +.) / O.b 6 ) +.] _ { ( ' ,.! ,.( ' ' } ) 9.>X1X2X5X4Xi. .` ] ] ' ' ' ' ' ' ",
"] ] _ =.' } ( ( ] ) o.S S cXpXaXuXuXf.f.fXyXuXiXT 9 8 V O.n B n 6 / ` ) } ' ' ' *.' ! ,.' ( ( ( ) ) r.:Xu.) } ) ' ' ' ' ' ' ' ) ",
"=.=._ =.' ( ) ) / O.S S nXcXnXpXuXuXfX5 5 fXf.fXfXfXs.. 2 n VXBXb +.] / ` ) ] ' ' ' ' ( ' { ) ( [ Q { ( ) ( ) _ ' ' ' ' *._ *.] ",
"_ =.*.*.! { ( )  .O.F mXVXVXVXmXpXhXaX3 jX3 4 fXfXiXyX3 B MXVXBXN X./ ` X.) W ) ) ) { ' { ' ( { [ { [ [ ' { Q [ ( ) ' ' ' ' ' *.",
"] _ *.' ' ' ) X. .S I VXZXBXZXVXmXcXjXx VXxX3 3 5 5 4 4 cXmXZXCXn ..O./ X.m +.` ) ] ( { Q ' { ( ( { ' { { ' { ' ' ' ] ' ' ' ' { ",
"' ' ' *.' ] ] X.O.F VXVXZXZXZXVXmXnXmXx mXmXmXlX0 d.aXpXmXAXVXmXB H #.8 6 6 / ] _ ,.! *.( { ] ' ' ' ' ' ' ' ' ' ' ] ' ' ' ' ' [ ",
"( { ' *.*.] ` o.O.D VXNXNXZXZXZXVXVXmXx VXVXmXnXkXjXpXsXVXz VXmX3 9 B 8 X.@.+._ *.*.,.' ' ' ' ' ] ] ] _ ' ' *.' ] ' ' ] ' { ' ' ",
"( Q *.' >._ 7.o 1 F VXZXZXZXZXBXZXE z z xXMXVXz nXmXmXmXz x v nXx 9 H H ..@.^ <.*.! ' *.] _ ' ) ) ) ] ' ' ] ' ' ' ] ' ' ! ( [ [ ",
"( ( ' *.*.&.; % F -XmXZXZXAXl Z Z c qXx x mXk c Z VXmXVXVXv mXmXcX9 9 7 b 6 =._ *.{ ~ ' ] ] ] ] ) ] ' ' ' ' *.! *.' ' ' ' ' ( ( ",
"( } <.=.>.+ $ o F mXZXZXZXZXZXVXZXZXmXmXmXMXMXl ZXZXVXNXbXVXVXmXB B H ..$.X.] ( ( _ r.` =.] ] _ ' ' ' ' ' ' *.*.*.*.*.*.' ' { ' ",
") ) ) g @ & % % F mXVXZXZXZXZXBXZXVXVXmXx z ZXZXZXBXc c v VXmXVX7 7 6 7 6 / } ( ) Q ,X^ 9.) ` ] ' ' ' ' ' *.[ *.*.' ' *.*.{ *.' ",
") ) g + @ $ % o S mXVXZXNXZXBXZXZXc z B x lXc VXVXmXVXk VXVXqXn 6 ..S O.) ] ] _ ] ] >X` >X] >X] _ *.=.,.' { ' ' { ( } _ ( _ <.' ",
") 1.& - - $ % < 1 H VXVXZXZXZXZXZXVXmXnXE v zXZXVXmXmXmXVXMXU H #...7. .` _ =.=.] ` >X` <XX.;Xo.=.*._ ~ <.Q ' ' ' ' ' } ( } ( _ ",
"=.+ + - $ % % < < G mXVXZXZXZXZXZXZXVXk Z VXZXNXVXmXmXmXxXP G D H 9 k M 8.q.;.q.q.q.9X&.9X&.8X8.8.>.>.=.%.*.=.` ' _ ] _ ] ' ' ' ",
"M + - ; $ ; % o < G G VXNXbXP MXZXZXSXv VXNXZXZXMXU P E A tXmXmXnXD I - u w d e e e wXw 7X* 6Xu t t w t t w 4.-.>.=.=.%.*.*.' ' ",
"$ ; O $ $ $ = = 1 < U mXmXmXmXP VXZXZXZXZXZXZXZXZXAXZXAXAXZXVXmXmXmXJ 5.z.l.l.].}.].*X*X*XC.eXC.|.}.Y.m.z.q s i t y 4.;.%.*.*.>.",
"- O ; $ - & * = = < = H D mXVXZ G bXMXAXZXZXBXZXZXZXZXZXZXAXZXVXVXI 3.m.h.!.F.J.J.J.H.j.j.!.Y.Y.G.oXoX.X@XoXR.n.m.a y 5.:.:.*._ ",
"$ * & $ O - * * * = = % F D mXmXnXA E nXVXNXVXZXZXCXZXZXAXAXZXVXI K c.k.F.~.).I.U.).E./.E.~.D.J.~.E.H._.+X.XoX[.].b.r w >.=._ ( ",
"M & & X ; @ - w - - % : % % = <   G H D I I CXCXCXCXCXZXvX-XY I N R.n.!.W.E.L.I.L./././.E./.'.I.S.E.~./.H.I.J.XX}.Y.m.r # >.) } ",
"' ] & X ; @ @ @ - & $ $ % = u f f f d b.v.K K K J Y Y Y Y K L G.J.U.H.H.~.).L.I.).I.L.E.L.L.I.P.).~.E.E./.(./.E.Q.Q.G.Y.s L >.=.",
"' { y.B._ 8X- O @ @ M 8.# u f s h R.G.F.!.k.m.m.x.v.M.v.b.n.H.S.L.I.~.H.~.H.I.)./.).).).).I.I./.I.).E.E.(.(.(./.E.~.H.J.g.d ;.&.",
"' ' _ ] _ 0.8.w.4.-.e i s R.K.Y.T.J.H.H.J.G.l.V.Y.l.Y.G.J.^.).E.H.H.).~.H.~.H.H.).~.~.E.E.E.~.H.).S.E.E.P.P.P.(./.E.).J.T.s @ 7.",
"' { ` ] _ 8.7.;.J e s R.R.J.H.H.H.~.).).'.XX.XoX.XJ.J.).S.S.H.I.I._._.XXoXXX+XXXOX+X_.~.H.~.~.S.S.E.H.~.U.I.P././././.I.G.p @ &.",
"[ Q ,.' _ _ 7.w t c.n.G.J.H.~.H.F.).).`.`.`..X.XOX=X=XU.`.OXOXOX.X+XoX[.oX}.[.[.[..X^.H.F._.+XOX=X=XH.H.H.H.H.).E./.'.S.J.R.w >.",
"' { ' <.] ] &.@ 4.c.n.G.J.!.{.j.G.J.S.I.H.)._.F.J.U.U.P.)._._.U.J.+X$X%X%X#X@X#X%X%X%X%X+X$XOXXX~.W.!.*XG.T.G.~.E.E.L.).F.l.a ;.",
"] _ ' ( ~ =.&.@ u t t p p q r a s g.J.I.'.D.F.!.H.H.L.I.I.~.H.H.U.U.J.F.G.^..X%X_.J.G.F.^._.U.I.j.h. XrXm.V.j.F.W././.I.J.R.e ;.",
"] ) ' { ' ' ' =.=.:.-.4.:.:.&.-.a h J.I.S.~.Q.Q.Q.F.I.I.H.H.~.~.H.I.H.~.~.H.U.H.J.J.G.!.G.H.I.J.V.A.7XeXZ.C.*X!.Q.Q.H.U.T.s t 3.",
"` ] ' [ [ [ ' *.=.&.*.=.=.&.] ;.d s H.I./.E.Q.j.N.!.F.F.E.S.I.H.I.I.H.~.~.).I.I.J.J.Y.l.N.Q.~.^.M.7X7XB.B.eX X X&XW.F.G.Y.i e q.",
"] ] ' { [ [ ! *.] ] =._ ] &.J u p G.K.I.D.~.j.*XV.m.&XG.!.F.J.H.J.J.F.F.~.~.I.U.U.Y.&X X*Xh.N.h.eX5X4X0XdXA. Xh.N.j.{.l.s a e Y ",
"=.' ' ' ' ' ' =.] =.) *.&.4.e j n.G.@X=X+X&XrX7XwXwXwXC.C.*Xn.n.}.].].k.G.G.J.T.R.v.B.6X6X7Xx.Z.5X2X:X0XdX XV.V.h.h.n.l.a w - &.",
"_ ' ' ' ' ' ] _ =._ =.:.-.p a R.K.G.[.R.Y.h.wXM.6X> 7X6Xt r y a a r r r p s s s a t O 8X4Xu.;X>X2X1X3X8Xw.B.c.c.V.p p t 3.;.7._ ",
"' ' *.' ' ' *.' _ =.&.-.a s Y.Y.}.}.|.|.b.i 6X; 9X8.0.8X*.*.>.-.:.*.:.>.:.2.:.-.;.&._ X i.u.3X3X1X1Xe.> @ u w t r 6.2.:.:.=._ =.",
"' ' ' ' *.[ [ ' ' =.>.w p l.J.G.}.|.i f u M 0Xo.:XX.S >X( ( *.>.=.*.*._ *.*.=.<.*.=._ ] X.3Xi.i.1X5X/ &.>.&.>.-.:.:.>.' _ <.*.=.",
"[ ' ' ] *.' ' ' =._ ;.w v.n.T.k.s t 5.;.&.7.;X0.u.] ^ ,X' *.*.*.*.*.*.=.} ) ( { ' ' ! ,.{ ) 3Xi.i.) ` ` _ 7.&.&.*.=.' _ ' ' ' *.",
"[ ' ' *.] ] ' ' =.=.>.w x.m.p r L ;.%.>._ ' ) { ) ( ] ' *.( >.! *.' ' ' ) ( ( ( ( [ *.:.] =./ 4X) ) ) ] ] ) _ } ] _ ' ' ' ! ' *.",
"( { ' ' ' ' _ ' =.=.@ # u u # >.*.] &.] ] ' ' ' ' ' ' ' ' ' ' ' ' ' ' ' ' ( { ( ' ' ' ' ' ' ' ( [ ( { ' ] _ ' ] ' { { ( ' [ ' ' ",
"{ ( [ ( ' ' ] *._ =._ =._ &.;.*.' ' _ ' _ ] ' *.{ ' ' { ' ' ' ' ' ( ' ' ' ' ' ' ' ' ' ' ' ' ' ' ( { ' ' ' ] ' ' ' ( ( { { ( ' ' ",
"' ' ' ' ' ' ' ' =._ *.*.*.=.=.` ' ' ' ' ' ' ' ' ' *.! *.' *.' ] ' ' ' ' ' ' ' ' ' ' ' ' ' ' ' ' ' ' ' ( ' *.' ' ' ' ' ] ' ' ] _ ",
"' ' ' ' ' ' =.' ] ' ] ' =.( _ ' ' ' ' ' *.' *.' ,.! ' { ' ] ' ' ' ' ' ' ' ' ' ' ' ' ' ' ' ' ' ' { { ' ' ' *.] ' ' ] ] ( ] ] ] ] ",
"' ' _ ' ' ' ' ' ( ' ' ' ( ' ' ' ' ' { { *.' ' ' ! *.*.! ' *.] *.' ' ' ' ' ' ' ' ' ! ' ' ' ' ' ' ( ' ' ' *.*.' *.) ' ' ' ' ] _ ' ",
"' _ ' ' ' ' ' ' ' { ' { ' { ! ' ' { Q ' ' ' ' ' ' ' ' ' ' ' ' ] ' ' ' ' ' ! ' ' ' ' ' ' ' ' ' ' ' ' *.' *.' ' ' ' ' ' ' ' ' ' *.",
"' =.' ' ' ' ' ' { { Q Q ' { ( { ' ( ' ' ' ' ' ' ' ' ' ' ' ' ] _ ' ' ' ' ' ' ( ' ' ' ' ' ' ' ' ' ' ' ' ' ' ! *.*.' { ' [ [ ' { ' ",
"' ' ' ' ' ' ' ' ' Q ' ' { ' ' ' ' ' ] ] ' ] ' ' ' ' ' ' ] ' ' ] ' ' ' ' ' ' ' ' ' ' ' ' ' ' ! ' ' ' ' ' { ' [ ' ' ' ! ' ' { ! [ ",
"' { ' ' ' ' ' ' ' ' _ ' ' ' ' ' ] ' ] ( ) ( ] ] { { ( { ( { ( ' ' ' ' ' ' ' ' ' ' ' ' ' ' ' ( ' [ ' ' ' ' ' ' { ( { { ( { ( } [ ",
"' Q ' ' ' ' ' ' ' _ ' ' ] *.' ] ' ] u.,X+.] ] ) ( 9.' { { ' ' ' ' ' ' ' ' ' ' ' ' ' ' ! ' ' ' ' ( { ( ' [ [ ' ' ( ( ] ( 9.) ) { ",
"' [ ( { ' ' ! ' ' =._ =.=._ =.] ) / u.,X) >X;X) ] ,X{ ( ( { ' { ' ' ' ! ' ' ( ' ' ' ' ' ' ' ' ' { ( ' [ ' ' ' ) } ) W +.1X) ) ) ",
"{ ( { Q ' ' ' ' ' ' =.' _ *.*.] ] ] ( ;X) ;X;X{ ( ,XQ ( ( ' ' ' ( { ' ' ! ' ' ' ' ' ( ' ' ' ' ' { ' ' [ ' [ ' ' / ) 5XX.3X+.1Xo.",
"' ' ' ' ' ' ' ' ' ' ' ' ' *.' ] ' ) _ dXe.] ,X) ( { ( { ' ' ' ' ' ' ' ' ' ' ' ' ' ' ' ' ' ' ' ' ( { ' ( ! ' ' ' r.e.:X1X:X1X:X/ ",
"' ' ' ' ' ' ' ' ' ' ' ' ] ' _ ' ' ( ' 0.] _ ] ) } ( { { { ' ( ' ' ( ' ' ' ' ' ' ' ' ' ' ' ' ' ' ' ' ' { { ' ' ' / dXy.>X;Xe.) ) ",
"' ( ' ' ' ' ' ' ' ' { ( ' ' ' ' ' ,.' ] ' ' ' ' ] } ( _ ' ' ' ' ' ' ! ' ' ' ' ' ' ' ' ' ' ' ' ' ] ' ' ! ' [ ' ' ] ] ) ) ( { ' { ",
"_ ' ' ' ' ' ' ' Q { Q { ' ' { ' ' ' ( ' ( ] ] ] ' ' { ( *._ ' ' ' ' ' ' ' ' ' ' ' ' ' ' ' ' ' ' _ ' ' ' ' ! { ' ' ] ) ) { ( ' ! "
};
