/* XPM */
static char *floor[] = {
/* columns rows colors chars-per-pixel */
"64 64 67 1 ",
"  c #5B7E56",
". c #697F59",
"X c #4E8655",
"o c #4E8B57",
"O c #4E865F",
"+ c #4D8A5A",
"@ c #538656",
"# c #5A8157",
"$ c #528957",
"% c #538659",
"& c #5C855C",
"* c #548C5B",
"= c #598C5D",
"- c #4D9156",
"; c #4F905A",
": c #55905E",
"> c #59905F",
", c #6D8150",
"< c #63855C",
"1 c #6A825C",
"2 c #618A5E",
"3 c #72835F",
"4 c #548562",
"5 c #5B8662",
"6 c #558D61",
"7 c #5A8D61",
"8 c #5B8F6B",
"9 c #559161",
"0 c #5B9162",
"q c #648461",
"w c #6B8461",
"e c #638B63",
"r c #638A6D",
"t c #629769",
"y c #659A6C",
"u c #6A9F71",
"i c #739D75",
"p c #6EA273",
"a c #72A779",
"s c #76AB7D",
"d c #79AD7E",
"f c #7AAF81",
"g c #7CB283",
"h c #80B586",
"j c #82B789",
"k c #D0D39A",
"l c #D5D7A5",
"z c #DAD5A3",
"x c #DEDDA4",
"c c #DCDAAB",
"v c #CCDCB7",
"b c #CFDDB9",
"n c #D2D9B7",
"m c #D3DABB",
"M c #E1D7A2",
"N c #D6E6C6",
"B c #DBE4C7",
"V c #DAE4C9",
"C c #FDFFD5",
"Z c #F0FFDD",
"A c #FBFFDD",
"S c #ECFFE4",
"D c #E7FFE8",
"F c #EEFFEA",
"G c #F3FFE4",
"H c #FAFFE3",
"J c #F2FFE9",
/* pixels */
"**6*=&<JS<&=*+=******=**********************o:**:**o*>*$====$=*$",
"***+0#wSG1#=6**6***=***********o****************o*o:*$$:****-=-*",
"6**6&JGmmGJ&==*6********************************$:****d=*>***$$*",
"%7%=&JHmmHJ&0X7+********************************:*o0*$h*=******>",
"=*:*&<,GH1#2$7*=*************-******o******$*****g=**gh*$$=*$*>*",
"=@$*=2<SG<2=**$=*********$**********:***********6$f*dh@dg>$>>$**",
"@00*$$*&==+:$:=**:*************=**$*******:$**$:=70ffdjf=$*=$*>$",
"=$**::**$*o:*=***o*:***o*******=****************+**fggt*=*******",
"*****$===*******:*******=*%*6*6*::$**$=*************dg$>=$*****-",
"*****$====******o*o:*****66***=6oX:=X:**********7==*=>&>********",
"**-**==2&&**************+$6*6*7$>>+*:+*=**************=*********",
"****$=**&***************96f**gp7$>****=+*********6$*>****=****-*",
"********-*******=*****=**gd=7f0=dg*o>$:$****o***=**********=****",
"******-*****-***$******=%*fg7f7gg0*:*************+***2*****=****",
"*******:***=**********6%767gfggy:*:**$=*********o::o*-$=**=-=--=",
"*************************7*0gfg***$*****o:******o*:***-=-*-$=***",
"-=::**********:*********o*$*fg$=*****:**:o****=*****************",
"***>o>$*************=*:=:*9**:o:*****$**o:;***===:**************",
":*$d-s>d*********************$:===****$=******=*****************",
"*$>d*h*d=*****-**=******o:$*:****=**&==*******:**o********o:****",
"$>=d2g=d*=**********o***:***$*=%=*6***====*****-***************o",
"$=$=*$=p***=************=+***>=***6***=*************************",
"$0=$=*=$***+*************=*+**%66***:**$****=--******o**********",
"$=*>*=*==***************$=*=7*=***6***::$***=****6**************",
"=**-******:-*9+*********$**$%7%75&&=$*6*******=$7*%6*$=*********",
"***=******=>=+9=*****=**>=:*7*7*qJF&==***-**=*==%**7*6**********",
"*********+*o966%*****-**$**>%*6&.JGwe&X>$****=**767*%7=%**o*****",
"***-*-:*9****$7***********=**77DJBBJS&=====**=***%*f7g*f**:*****",
"********6*=6+***$:**$:-*$:$>=*%DJBNJS&===&*=****7*7s6f*g******o*",
"********+9$=77*=****$***$>$=*=7i.JSwe=@7******;**7*f0g6g********",
"********=%=%*%7%****:***>=>>=&=5qFD&&=*=**==**:*=%7ftg+f********",
"******:-6*7&DF&5=*****-*$-=$$0=*5q77%*6*=*****+*=7%7*==6********",
"o*=4=*:+*5.1ZH1<=*************=*6=*=********$*o*****$***********",
";=*7=*;;7&JHnnGS=***************************:**************o****",
":+6&**;;*5JHmvJF**************************:o***************:****",
"*=*6**;;*&<1ZG1&=***o*****o*******$=****************************",
"**==**;;*7&<ZS&&=***********************************************",
"**=**:***6&&=&=********************************$**:$***:***$**:$",
"***6*o**7*%&&>==*$****************o********************$********",
"=********==0$$*******:o******o**********************************",
"*6**:o*==******************************************:**:$********",
"*+o:**=***=********$*****************:*************$************",
"6*+****==$*********************:*****o******o:******************",
"**:***6*=***:**************:***$************************o:******",
"**$=*=********$:***********o*********************:**********$***",
">*-=**6**-*****$************************o********$**********:***",
"**&*=***:o*:66$:************************************************",
"**$=***6*-*o6*:o*************$*:o*******************=**********o",
"*$:$*==*****6=o********o:******$*******$**********:@$==*6$&=&=$:",
"$:>*$6*$:***+**:***********************:********:=$==*=96*==***$",
"*$****%7=*$=**:*:$******************************+6$*$6+6+:+=***9",
"*********6*****$********************************o9=>*=+**6$96***",
"$**=**%7*77*********************$********$:*$**-:*$*:*6666$*****",
":****=7*7%%**:**$***o***$*******:***************o:$***7 e&0&**>*",
"*>**7*%*a6*6$*******:*********:********$********=$:$=7.FFJ#==2$@",
"***af6%gg%*7*=****************o*$****************=$0&<.HHH3<2$=*",
"****ggfg*fju76****$*******:$****:*************:*=*845ZClzcHJ57**",
"***=%gffg7X7***%******************$*************$=44eSCxMcHJr4:$",
"**=*6%gg**77*$**************************$:*****$$>O85SCkzcHJ56o-",
"**$*67%**7*%9$%0**:******************$:*****$**:=$666<,CCC.q46:-",
"****o*6**6:*$:=+***o******o**********************=>*5&<ZZJq76+>$",
"****o*=7=$$*=*:$*************o******************$-$=7%<e2&7O****",
"o:0+*=*===*o******:$*****************:**********$=:0%7&7*7++**$2",
"**o=***+*o***************************o**********>$*=%7***;;9+==,"
};
