/* XPM */
static char *player_back1[] = {
/* columns rows colors chars-per-pixel */
"64 64 230 2 ",
"   c #323D1B",
".  c #1C332C",
"X  c #1B3B2C",
"o  c #173727",
"O  c #0C3936",
"+  c #1E3433",
"@  c #1C3933",
"#  c #15353A",
"$  c #143B3B",
"%  c #183837",
"&  c #2C3C2B",
"*  c #253C27",
"=  c #233A37",
"-  c #17451D",
";  c #0F481F",
":  c #26471B",
">  c #1D4524",
",  c #1C4924",
"<  c #194626",
"1  c #1C542B",
"2  c #17433B",
"3  c #1D5530",
"4  c #234425",
"5  c #224926",
"6  c #23432A",
"7  c #2B432B",
"8  c #234A2B",
"9  c #284725",
"0  c #26532D",
"q  c #35532D",
"w  c #3D5128",
"e  c #2A4332",
"r  c #294A37",
"t  c #354739",
"y  c #2D5634",
"u  c #2D5A33",
"i  c #2A5839",
"p  c #335634",
"a  c #3B5535",
"s  c #335935",
"d  c #3B5936",
"f  c #34553A",
"g  c #3A563A",
"h  c #335A3B",
"j  c #3A5A3A",
"k  c #3B4721",
"l  c #38643C",
"z  c #425326",
"x  c #44532C",
"c  c #4D542A",
"v  c #435637",
"b  c #073A46",
"n  c #153942",
"m  c #213A43",
"M  c #0A414C",
"N  c #194851",
"B  c #16464A",
"V  c #264A46",
"C  c #245246",
"Z  c #395742",
"A  c #384E50",
"S  c #396442",
"D  c #3B6058",
"F  c #205366",
"G  c #396872",
"H  c #397073",
"J  c #465A50",
"K  c #466A4A",
"L  c #48754A",
"P  c #497853",
"I  c #547D5C",
"U  c #567955",
"Y  c #567151",
"T  c #687C54",
"R  c #6B7A48",
"E  c #486C6A",
"W  c #5D7A67",
"Q  c #4D7B61",
"!  c #637D66",
"~  c #5F874B",
"^  c #4D8655",
"/  c #4E8A56",
"(  c #4E8B5A",
")  c #4C845B",
"_  c #538556",
"`  c #538B56",
"'  c #5B8B55",
"]  c #55865B",
"[  c #5B855C",
"{  c #548C5B",
"}  c #598C5D",
"|  c #5E8553",
" . c #4E915B",
".. c #55915D",
"X. c #59915E",
"o. c #569056",
"O. c #65854D",
"+. c #6A854D",
"@. c #6B874A",
"#. c #648758",
"$. c #798D55",
"%. c #738B4F",
"&. c #558562",
"*. c #5C8563",
"=. c #558C61",
"-. c #5A8C62",
";. c #5D8569",
":. c #5C8B6A",
">. c #558A6B",
",. c #559161",
"<. c #5A9162",
"1. c #59946A",
"2. c #648364",
"3. c #6B8364",
"4. c #618B65",
"5. c #62846B",
"6. c #648B6B",
"7. c #639969",
"8. c #689977",
"9. c #74987C",
"0. c #5FBE7C",
"q. c #6CA476",
"w. c #75AB7B",
"e. c #79AE7E",
"r. c #75A37D",
"t. c #64BD7C",
"y. c #6ABE7E",
"u. c #75B67F",
"i. c #70A16A",
"p. c #5FC17E",
"a. c #65C17D",
"s. c #69C17D",
"d. c #898148",
"f. c #9C8C4C",
"g. c #9A8B46",
"h. c #8A8C54",
"j. c #958D56",
"k. c #8D9454",
"l. c #88935B",
"z. c #949357",
"x. c #8F924F",
"c. c #A38B47",
"v. c #A18C53",
"b. c #AB9758",
"n. c #AA924D",
"m. c #B9A35A",
"M. c #909061",
"N. c #8AA974",
"B. c #B7A46C",
"V. c #C1A059",
"C. c #C6A966",
"Z. c #DABC79",
"A. c #D4B269",
"S. c #DEC07A",
"D. c #ECCB7B",
"F. c #E8C57A",
"G. c #F1CB7C",
"H. c #F0C577",
"J. c #EED579",
"K. c #4F7887",
"L. c #588D96",
"P. c #5C979E",
"I. c #628C94",
"U. c #69959C",
"Y. c #7AAF81",
"T. c #77AB87",
"R. c #65BE83",
"E. c #6ABD83",
"W. c #6BBB8A",
"Q. c #6AB787",
"!. c #73B585",
"~. c #7CB283",
"^. c #72BA85",
"/. c #7AB48B",
"(. c #74BB8B",
"). c #78B98B",
"_. c #7DB992",
"`. c #459EAC",
"'. c #4B9CAC",
"]. c #4B9CA6",
"[. c #559DA6",
"{. c #5A9CA5",
"}. c #539DAB",
"|. c #5898A8",
" X c #4B9EB2",
".X c #479DB1",
"XX c #529DB2",
"oX c #5C9EB3",
"OX c #6294A2",
"+X c #639AA3",
"@X c #6699A8",
"#X c #45A0AB",
"$X c #4BA1AE",
"%X c #52A1AD",
"&X c #52A0A6",
"*X c #46A2B2",
"=X c #4CA2B3",
"-X c #4CA4B8",
";X c #4EA8B6",
":X c #51A2B4",
">X c #56A3B6",
",X c #5FC184",
"<X c #64C182",
"1X c #6AC284",
"2X c #69C389",
"3X c #65C289",
"4X c #71C186",
"5X c #81B689",
"6X c #87B190",
"7X c #DBC282",
"8X c #EDCB81",
"9X c #EBC783",
"0X c #F3CC84",
"qX c #EAD488",
"wX c #EBD594",
"eX c #DAD7A7",
"rX c #D9D7B0",
"tX c #E3D7AC",
"yX c #FEFFD6",
"uX c #FEFFDA",
"iX c #ECFFE3",
"pX c #EBFFED",
"aX c #F1FFE6",
"sX c #FCFFE5",
"dX c #F2FFEB",
"fX c #FCFFEB",
"gX c #E5FFF3",
"hX c #EDFFF5",
"jX c #F1FFF9",
"kX c #F5FFF2",
/* pixels */
"} { { { ` } 5.jXjX5.{ { { { { } { / } { { ..{ { { { ' { _ } ' ' &.} { { [ } { { ..{ { } { { _ ` { ..( ..( { { { { ` } { ` ..{ { ",
"{ { { { -._ 3.fXfX3.| X.{ { { ( { ..{ { { { { } ' { { } { { { -.} -.{ ..} ` { ..{ { ( { { } { ..} { { { } { { { { } { { o.} { o.",
"} ,.( =.&.aXyXtXtXuXaX&.=.{ ..} { { ( { ( } { -.} { { { ( =.{ ( } / o.o./ ../ / { { { { } { -._ { { ..` X.} e.{ { { { } { { } ( ",
"` X.( =.;.aXuXtXtXuXaX;.=.( ,.` } / { .. .{ -.[ ] :.&.-.1.^ =...( ../ { ../ ` -.-.[ 4.} { ( 1.{ { ,.{ } { o.w.} } } ` { } { ( ..",
"} { ..=.{ &.2.kXkX2.[ { =.{ { } ] -.} { { } #.#.U o 7 & 4 [ ;.{  ...{ o.( =.5.6 & & & a 4.{ / ..{ q.{ =.] Y.8.} _ { X.{ ( { { { ",
"} _ =.{ { =.:.gXgX:.-.{ { } _ ,.' { {  .{ ] [ 9 5 9 9 4 * 9 > :.=.] =.;.:.] 4 6 6 7 7 7 p -.{ { } ( Y.} ~.Y._ w.~.{ _ } { { { { ",
"/ X.} ' } _ } =.=.{ _ X._ } X.` ' } (  .=.:.* - 1 (.^.^.!.; < 6 e t t & & 9 < 1.^.^.~.- 4 -.{ { ( -.{ Y.Y.8.5Xw.} } -.{ { { { { ",
"{ { } _ } ' o.{ { { ' X._ } { { ' { =.{ >.8 8 :.^.a.a.<XE.^.q.< X e & 7 & 8 ).y.<Xt.^.P - U =.{ { { { Y.Y.5X7.{ { } { { { { { { ",
"=. .{ { { =.{ ..{ { { { { { =.( { } { =.;.4 5 /.W.<X<X<X<XE.W.^.Q.^.^.^.^.^.E.a.<X<XQ.!.> K -.{ { { { { ~.~.{ =.{ { { { { { { { ",
"=.=.{ { =.=.{ o.{ { =.=.{ {  .=.,.{ ( =.2.4 > /.E.<X<X<Xa.<XE.s.a.a.a.<Xa.<Xa.p.p.<XW.0 5 U ,.} =.] -.{ { =._ } =.{ =.{ { { ( { ",
"( { =. .{ } { ` { } { { ( ,.{ ..( ,.( 1.*.5 u !.R.<X<Xa.s.E.y.y.s.s.y.E.E.a.p.a.<X<X_., 5 4.{ { { { { =.{ { =.{ } ' { { { { { { ",
"{ { { =.{ { { { { { } { =.{ ( { =. .( =.*.> 1 !.W.<Xt.a.s.s.y.y.t.s.s.E.<X<X<X<X<XE.T., h -._ { { =.{ { -.-.} { { { { { { { { { ",
"o.{ { { } { { {  .{ { { { { { ` ` { ( =.#.4 , !.^.^.E.a.<Xs.s.t.s.t.R.<XR.E.E.s.<XW.T.< ) =.=.( } { { { ` { { { { { { { { { { { ",
"{ ` ` { ` } {  . .{ ' ' { { { o.} ^ 1.-.I 5 3 W.^.E.E.a.a.a.a.a.s.s.<X3XW.E.y.s.1Xy./.1 < >.{ ..{ ( { ..{ } { { { { { { { { { { ",
"{ { o.{ } { {  .=.{ { { { ..} { _ X.{ *.7 > _.W.E.t.s.s.a.<X,X<Xs.<X,XR.3XE.a.a.a.a.(.; , 3.] ` { ..../ { ( ( o.{ { { { { ..{ ..",
" .{ ..{ ` { { { { { { { { { { { ` } } &.e > W.R.<Xa.a.s.a.a.<X<Xa.a.<X<XE.R.a.a.a.a.y.q.9 K } { { ..( { ..{ { { { { { { ` / { { ",
"=.{ { ..` ..{ } { { { { { o.{ ..` ..=.=.* e (.,X1Xt.y.s.s.t.1Xt.a.<X0.1XE.1Xa.a.a.t.1X^.* J :.( { { { { { { { ` o.} { { { { { { ",
"{ { { / } ( { { ` { { { { } { { } / ( -.e 6 !.3Xy.1Xt.t.s.s.1XE.1Xa.s.a.E.R.t.s.a.y.R.(.* g =. .{ { { { { { { { { { { { { { { { ",
"( } { q.} 7.{ q.{ } } { { { { { _ ' ..=.e > W.,X1Xy.a.a.t.s.y.E.1Xy.t.a.<XR.1XR.1Xy.^.5X4 g ] =.( { { { { { { { { { { { { { { { ",
",.{ { q.{ w.` e.{ } ` } { { { { } } ` } K < 1.W.E.1X<Xa.s.s.R.R.1X1XR.2X,X3X<X1XE.^.).8 9 ;.} o...{ { { { { { { { { { { { { ( { ",
"} _ ` e.X.e.` ~.{ { { { { { { { { } X._ 5.6 > P (.W.3X3Xa.p.0.3XE.R.<X,X3X2Xp.1X1XQ.5X5 : } } ` { { { { { { { { { { { { { { { { ",
"X.{ <.{ { { X.7.{ { } { { { { { { } _ { [ 4.4 < ; _.Q.W.a.<X3Xa.<XR.3X,XR.t.<XR.W._.0 : P ' ` ` ` { { { { { { { { { { { { { { { ",
"` { { _ X.{ } { { { { { { { { { { ,.o.o.` { [ l 8 > /.^.1Xs.t.s.s.s.,X<XR.1X4X!.>.6 < S { { } ' { { { { { { { { { { { { { { { { ",
"{ } { } } { ` { { { { { { { { { { ( o./ ` o.{ ] I > 3 < ^.u.(.!.u.^.y.W.^.!.0 , 5 6 ;.&.-.{ { { { { { { { { ` { { { { { { { { ` ",
"{ { { { { { { { { ( ..{ =.,.( { { { ..o.` ` ( } -.4.W r 8 > f r h 8./.i 6 g J & ;.&.-.=.] =.,.{ } { X.{ { } { { ` { { { { { { { ",
"{ { { { { .. .{ ..{ ..{ { ( ,.} { ( { ..{ ( X.{ _ ;.@ % D 2 @ r V 2 2 2 V = + & ;.*.} } ,.( ( ,.` { _ X.{ / } X.{ { { { { { ` { ",
"..{ { { { ( { { =.( { ( =.{ { ] =.=.{ { { =.{ -.2.= O @X{.{.{.&X{.&X&X&X[.P.L.O o 2.} } { / ,.( X.X.{ } } { <._ { { { { { { ..{ ",
"( { ` ..{ { ..o...{ { =.{ { =.=.=.=.{ =.{ =.=.5.o % {.}.].=X=X`.*X*X#X-X;X].}.{.C X ;.-.{ X.( ..` X.} 7.{ <.o.7.{ { { { { { { { ",
"{ { { { { { { { =.( { -._ { } { =.{ o.{ ,.=.! o $ U.}.;X=X=X=X=X#X=X X'.=X$X=X'.|.H O >.,.` / } ' } } q._ q.X.e.{ { { { { { { { ",
"{ { { { { { { { { -.] { -.=.{ } { ( o.} =.;.X O +X].=X-X*X.X=X'.;X#X X>X%X%X=X-XXXXXOX2 =.{ ..{ } { { w.` w.' e.{ { ( { { { { ` ",
"{ } ` { ` } { ` } { -.] -._ -.[ _ X.o._ W % $ L.}.-X X=X=X].:X:X`.*X=X}.P.b }.#X=XXX[.H o *.} } { { { e.} q.` e.{ { { { { { { { ",
"{ { { } } { { } { { -.[ iXiX[ -.{ _ { ;.@ # L.{.}. X=X X=X;X].'.=X X$X%XU.N &X$X X X X{.O ;.} _ } { X.` } { X.` { { { { { { { { ",
"' { =.{ } { { { ` } 5.! uXyX3.4.} { ;.V % I.{.}.@XF oX X-X*X'.}.>X.X$X].@Xb }.:X X:XXX|.U.o ] } { { { { { _ { { { { { { { ` { { ",
"{ } { =.{ o.} ` o.-.gXkXeXeXdXgX{ -.W + n @X}.|.b b oX X-X*X:X]. XXX=X}.+Xb >X'.=X=X'.oXM 2 =.` { { { { { { { { { { { { { { { { ",
"` (  .=.(  ...` { { hXkXrXeXdXpX} [ J + L.XX|.M b {.].=X=X#X$X:X X=X#X%X@Xb }.:X X X-XoXOXO &.{ { { { { { { { { { { { { { { { { ",
"o...=.=.( ..` { } ] ;.2.yXyX3.&.] [ = = {.oX@Xn P.].%X=X=X`.=X$X X=X=X].}.b [.}.XXXX>XoXOX$ >.{ { { ` { { { { { { { { { { { { { ",
"_ } } { o. .{ { { / -.[ iXaX[ -.&.6.. = U.@Xb N &X%X:X X'.=X X=X$X=X$XXX%X[.b |.XXXXOXK.m + :.{ { { { { { { { { { ` { { { { { { ",
"} ' -.[ ` { { =.{ ,.{ X.*.[ { } -.*.f * O n m U.&X=XXX.X-X:X`.=X$X].'.-X#X'.b L.|.K.G + . Y *.=.{ { { { { { { { { { { { { { { { ",
"[ ' [ } { ..{ { } ( / { ' { ,.( -.P > 8.8.C % I.}..X=X-X:X.X=X`.$X%X:X-X`.=X|.b G A . f 9.X I =.{ { { { { { { { { { { { { { { ` ",
"{ { } { ( ( { { { } { } { { { } { L - 9././.@ n %X=X*X=X=X X$X=X$X=X=X.X;X=XXXOXn + P T.r.> S -.{ { { { { { { { { { { { { { { ..",
"} { { {  .=.{ { } } { { } { { } } _ 4 K 6X6X. # [.=X$X=X$XXX=X=X-X=X=X X X X X{.n = T./.T.< f ;.{ { { { { { { { { { { ` { { { { ",
"( { o.{ {  .{ { { { { { { { { { / -.> 6 * * J # +X}.].}.[.[.XX%X].%X[.oX|.|.oXOX= E 3 q.r > K &.} { { { { { { { { { { { { { { { ",
"=.{ { ` { =.{ } { ` { { =.=.{ { { { >.i 6 * J + # I.@XOX+X{.@X{.+XP.P.P.U.K.+ = J Z o 1 * > -.} { { { { { { { { { { { { { { { { ",
"=.} { { { { { { { { { { { { { { ..{ ( &.:.! ! . X @ # $ V V $ O O $ $ $ + . . * W 6.&.l K 5.{ { { { { ` { { { { { { { { { { { { ",
"=.{ { { { } { { { ..{ =.{ ` } { { ` { ..=.( =.;.*.o 6 . @ o >.>.>.I @ E 8.r.: Y &.&.>.:.] 4.{ o.{ { { { { { { { { { { { { { { ` ",
"{ ( { { } { ..( { {  .=.o.` { { ' } X. . . . .=.[ 8 8 6XW 6 =.{ / =.= e (.q.- R { {  .) } [ { { { { { { { { { { { { { { { { { { ",
"..{ =.{ { { { { (  .{ { ` { { } =._ } / { ..] -.I , l 6XZ e -.( ..} e * _...: Y ' ..} ,.} X...( ( { { { { { { { { { { { { { { { ",
"{ ( { { ' { } { ..{ o.{ ` } { } { =.{ { { { ' [ T : <.e.v * [ } { |   k N.i.R $.$.~ ' ` _ { ` } { { { { { { { { ` { { { { { { ..",
"{ / ..{ { { { { { { { { ( { { { ( =.,...` ' ~ %.k.l.N.N.T c $.| ' #.j.g.j.x.f.f.f.k.O._ { ` { { o.{ } { =.{ { { ` ` =.-.] } { { ",
"/ X.} { ( { { { { { { { { { { { { ( { { o.' O.h.f.f.j.h.j.j.M.O.O.l.c.A.C.C.S.9XA.f.%.' } ( } { { { _ =.{ { { ( { ` -.-.{ } ( { ",
"{ / / { { { -.{ { { { { { ( { { ( ..{ { { } +.z.C.9XS.7XZ.b.x.%.O.$.c.F.G.G.D.D.8Xf.$.} { ( ,.{ { ,.{ ( ( ,. .../ ..{ { { ( { } ",
"..{ { } } } { { } } { { } } ..{ { { =.{ { { +.j.n.0X9X8XF.V.f.@.O.@.g.A.D.D.G.H.0Xf.l.#.,.( =.} ` } ..=.{ { ( / ....{ { ..} { { ",
"( } { { { { ] } { =.-.{ { { { ` { [ } -...{ O.k.n.9XF.0XD.m.x.@.O.@.f.Z.9X0X9X9XV.f.l.~ ` X.` } o.{ { { { { { { ' } { { ( { { ' ",
"{ { { { { =.-.{ } _ { -./ { { { } } } { ( { +.k.c.0XF.D.G.b.x.@.' O.z.x.j.b.B.f.d.d.$.#.` ` X.' / { { =.{ { -.] 4.] :.{ { ` X.} ",
"{ ( } } } -.{ ] Y.-.{ { { -.{ { =.=.} ` ` ' @.k.c.J.D.J.D.f.k.+.Y U w w x g a v v w p y 4.{ { { o.` X.{ ,.=.&.hXjXjXW } o.o._ ] ",
"} { { q.Y.{ _ /.e.{ { -.{ { ( } =.{ } } } ' +.h.g.H.H.D.J.f.l.z x p s s C Z i f p g s j s P =.{ { -._ -.{ &.3.dXsXsX3.-.{ ` } } ",
"{ { { { e.Y.Y.Y.] Y.w.Y.{ { { { } [ K s s q z j.c.D.G.H.0Xc.j.c d s h u f f Z p u q s s p p g p -.-.=.{ } aXyXeX8XqXfXjX-.( =.{ ",
"} { { } _ 5XY.Y.~.8.{ -.{ -.{ } [ s d j p d x M.v.9X0XZ.c.v.M.x g s s p h g p y s s s s p d p d h ] } =.[ aXyXwXJ.qXfXjX:.( -.} ",
"{ =.{ { -._ /.~.{ { -.=.{ { { } l p p p j p d x z.h.j.j.M.M.T a d p p q p d s d y g h p g h p d L ] } ..] iXsXrXeXtXsXhX{ { { { ",
"{ ( ( } } =._ { } { } _ { } { _ u u s p y h g d z x x z z c q j p f s d a s p h g p g h y s q l #.] ` { <.-.2.fXsXsX#.2.( { { { ",
"{ } { { { / -.{ } { { { { { { { ] u u i h f g g a a g f d p d p C h g p q q u s g f g f u u { { } { ..{ ^ -.[ aXkXaX] } ` { ..{ ",
"{ { { { { { { } { } ..{ ( } { { { { { -.L u p p p p Z i f s p p h h p s s s s s g f h i =...} o.{ { { ,.,.{ -.2.5.:.} { { ` { { ",
"{ ( } / { } ( { { { { { { { ( { =.} -.{ =.{ -.#.[ l i y u u s s s h h h y s s u i h y ] ] } X.` { { =.) } ' ' } ] <.( { { { { ;.",
"{ { { { { { { { { { { { { { { ` ' [ { =.( ,._ _ ` { :.=.=.' | } *.-.&._ K P I &.*.>.=.-.[ } _ { ( ,. .:.-.} _ o.{ { { } { } { =."
};
