/* XPM */
static char *player_right1[] = {
/* columns rows colors chars-per-pixel */
"64 64 243 2 ",
"   c #14381B",
".  c #3A3E06",
"X  c #353918",
"o  c #2D3314",
"O  c #173A2C",
"+  c #0B3B38",
"@  c #153B37",
"#  c #0F3D26",
"$  c #3E3E26",
"%  c #16491D",
"&  c #0C4F1B",
"*  c #274419",
"=  c #39491A",
"-  c #33450E",
";  c #0C4528",
":  c #1B4622",
">  c #154C23",
",  c #1A4B23",
"<  c #18472C",
"1  c #1A5228",
"2  c #0E483A",
"3  c #134435",
"4  c #184939",
"5  c #254926",
"6  c #26572D",
"7  c #3C542D",
"8  c #3A5729",
"9  c #25433A",
"0  c #2B5834",
"q  c #345535",
"w  c #3B5433",
"e  c #325A36",
"r  c #3A5934",
"t  c #34553A",
"y  c #355A3B",
"u  c #3A583A",
"i  c #3B4C30",
"p  c #306237",
"a  c #454A19",
"s  c #4A521D",
"d  c #514D1C",
"f  c #474E24",
"g  c #425225",
"h  c #425329",
"j  c #4A5427",
"k  c #475734",
"l  c #486638",
"z  c #566837",
"x  c #647239",
"c  c #6B6734",
"v  c #033B49",
"b  c #0B3C4B",
"n  c #083C44",
"m  c #113D47",
"M  c #073A51",
"N  c #06414B",
"B  c #174B45",
"V  c #104653",
"C  c #355B46",
"Z  c #27565B",
"A  c #2E5749",
"S  c #3B6A45",
"D  c #3B645C",
"F  c #38784C",
"G  c #355B64",
"H  c #3A6460",
"J  c #1B5364",
"K  c #466A44",
"L  c #43754A",
"P  c #567B57",
"I  c #4E7254",
"U  c #647845",
"Y  c #667C58",
"T  c #74784D",
"R  c #466B65",
"E  c #4E796B",
"W  c #547B69",
"Q  c #587C72",
"!  c #6B7F64",
"~  c #9E7D5A",
"^  c #AC705A",
"/  c #9B7774",
"(  c #967A65",
")  c #AB736A",
"_  c #4E8B5B",
"`  c #4D8756",
"'  c #538656",
"]  c #538B56",
"[  c #5B8A54",
"{  c #54865B",
"}  c #5A855C",
"|  c #548C5B",
" . c #5A8B5D",
".. c #5C8355",
"X. c #54905D",
"o. c #59905E",
"O. c #4F935D",
"+. c #68844B",
"@. c #63845B",
"#. c #6B825C",
"$. c #658655",
"%. c #7B8752",
"&. c #548463",
"*. c #5B8662",
"=. c #558C62",
"-. c #5A8C62",
";. c #5D8D69",
":. c #59856B",
">. c #559061",
",. c #5A9162",
"<. c #5D936C",
"1. c #5A8575",
"2. c #56906D",
"3. c #638A63",
"4. c #658866",
"5. c #619265",
"6. c #649875",
"7. c #718560",
"8. c #64A272",
"9. c #79AD7F",
"0. c #76AA7C",
"q. c #64BC7D",
"w. c #6CB97D",
"e. c #77B67A",
"r. c #66C17E",
"t. c #6BC17E",
"y. c #A4883A",
"u. c #9B8D4D",
"i. c #968949",
"p. c #97924A",
"a. c #8A8C56",
"s. c #948D55",
"d. c #988C56",
"f. c #8D925A",
"g. c #889456",
"h. c #93935A",
"j. c #9A9255",
"k. c #858A4F",
"l. c #A18A46",
"z. c #A2904D",
"x. c #A79256",
"c. c #828A60",
"v. c #878573",
"b. c #909669",
"n. c #8BB369",
"m. c #85B279",
"M. c #90AE73",
"N. c #B2AA69",
"B. c #B19A64",
"V. c #E4B55C",
"C. c #E9B65C",
"Z. c #E6B95B",
"A. c #EAB458",
"S. c #C8AC67",
"D. c #DCBB6C",
"F. c #D9B768",
"G. c #CDBC76",
"H. c #D4BB74",
"J. c #DDBB73",
"K. c #D7BC79",
"L. c #E4B563",
"P. c #EAB664",
"I. c #E4BB63",
"U. c #ECBB64",
"Y. c #E3BB6B",
"T. c #EBBC6A",
"R. c #E4B66B",
"E. c #E2B675",
"W. c #D09F68",
"Q. c #BCCB7C",
"!. c #D8C076",
"~. c #CBC271",
"^. c #E0C06D",
"/. c #377081",
"(. c #447981",
"). c #5A8785",
"_. c #4A8995",
"`. c #59999A",
"'. c #538A86",
"]. c #63969C",
"[. c #689599",
"{. c #638C93",
"}. c #58A19C",
"|. c #6DA982",
" X c #7AAF81",
".X c #6DBC84",
"XX c #6BBA86",
"oX c #73B584",
"OX c #7CB284",
"+X c #73BA85",
"@X c #74B58B",
"#X c #7BB58A",
"$X c #74BB8A",
"%X c #7BBA8B",
"&X c #79BC86",
"*X c #77B694",
"=X c #74AF93",
"-X c #4C9DAC",
";X c #4D9CA3",
":X c #559BA4",
">X c #5D9BA4",
",X c #539DAB",
"<X c #5A9BAC",
"1X c #5896A6",
"2X c #4D9FB3",
"3X c #559FB2",
"4X c #6496A2",
"5X c #639AA4",
"6X c #649AA9",
"7X c #608FA3",
"8X c #4DA2A9",
"9X c #54A1AC",
"0X c #57A2A5",
"qX c #4DA2B2",
"wX c #52A1B3",
"eX c #5CA2B2",
"rX c #62A2AC",
"tX c #6BC184",
"yX c #68C285",
"uX c #72C28A",
"iX c #88AC88",
"pX c #85B487",
"aX c #82B295",
"sX c #8EAA8F",
"dX c #999D8E",
"fX c #CBBC86",
"gX c #D4BC87",
"hX c #D4BD91",
"jX c #E5B987",
"kX c #B7C48D",
"lX c #B4C69C",
"zX c #D1CA8E",
"xX c #D8D8A2",
"cX c #D3D8B9",
"vX c #CBD8B7",
"bX c #E8FCDA",
"nX c #FCFFDC",
"mX c #F9FFD9",
"MX c #EBFFE5",
"NX c #EEFFEC",
"BX c #F3FFE4",
"VX c #F9FFE4",
"CX c #F7FFEA",
/* pixels */
" .=._ _ ,.} @.BXBX4.} X._ | | | [ | | ] O.| =.} } }  .X._ X.X.O.] ] [ | | _ >.O.| }  .X.X.] }  .| X._ X.X.` X.| | ` | | ` X.] | ",
" .` >._ -...7.BXBX#.P ,.| X.| | | | X.| X.| |  . .| | X.X.` X.` ] X. .{ =.| _ | |  .] ] ] X.| | | | | ] | o.| | | | | | X.| ] X.",
"=.,.| | } MXVXcXcXVXMX}  ._ | =.| ] | | | | |  .X.| | ] | =.-. ._ X.{ -.=.| =.=. .[  .[ X._ | X.| | | ] | | OX| o.| | | | | X.| ",
"` | |  .@.NXVXvXcXVXNX@.-.| | | | X.| | | | | | | | | |  . .{ *.=.=.-.4.{ ,._ _ X.[ [ | X.O.| _ | | X.| | | 9.| | o.] | ,.| ` | ",
"=.| =. .} @.Y BXBX#.@.}  .=.| =.X.| | | | | X.] _ X.| | =.-.} *.4.I P *.4.*.=. .| | ] [ X.| | | | OX,.-.|  XOX .' | o.| | | ] | ",
"=.|  .|  .-.3.bXMX3.3.{ |  .| | | | | | | | | X.O.` =.| *.} -.5 : < 5 5 : *. .-.| | X.| | | =.=.=.| pX XOX X .9.pX] ' ,.| | |  .",
"| | =.|  .=.{  . . .|  .=.| =.| X.| |  .[ | | | O.X.|  .} -.: > 1 <.1 , 1 : -.{ | | _ | | _ | | | -.|  X9. XpX X . .-.| | | | | ",
"| | | | | | >.| | | | =.| | ` X.| | ] |  .| X.] ] | =.-.*.: , #X$X@XoX#X, 5 } }  .| | | X.| | |  .|  . X XOX9. .|  .| | | X.| | ",
"X.| | o.| | ] | | | | |  .| X.| | | | | | | | X.|  . .-.L & %X+X+X+XXX#X%X% 0 } -.*.=.| | X.` X.|  .| { OXOX| | |  .| | | | _ | ",
"] | | ]  . . .| |  . .| ] | | | =.| |  .| | ] | { -.} { , 6.XX.X+X& uXoX+X8., > S *.*.=.-.` ,.|  . .=.|  . .| -.| | =.| | | X.| ",
"X.| |  .] }  .|  .} }  .| | X.| =.| | | | [ |  . .{ <.% 8.XXyX.X& & & w.+X.X+X|.> > =.;.}  .{ | | | | =._ | =.| | | | | | | _ X.",
"X._ | | |  .| | | | | | ] | | | =. .| X.| ] |  .-.-.6 > $X$Xq.yX&X& &Xw.uX.X.X.X@X6 > 3.{ |  .| ` =.| | =.| | | | | _ | | O.| | ",
"| | ] | X.| ] | | _ | ] X.| | | =.| | | | ] |  .{ *.> %XoXq.q..X$X+XoX&Xw.XXyX.XXX$X` %  .| | | =.| | | | | | | | | | | | _ | X.",
"| | | | _ | X.| X.| X.X.| | | | | | | | ] | |  . .=.> +X.XtXr.tX#XaXiXpXpXoXtXr..XoX&X> |  .| | X.| | | | o.| | | | | | | | | | ",
"} | | X.| X.| | | | X.| | | |  .| | X.O.| |  .| ,.> F $Xw.tXr.e.iXdXv.v.dXpX&Xq.yXtXoX8.1 { =.=.| | | ` | ] ' o.]  .| | ] X.] X.",
"| | | | | | | ] | | | | | | | ] | O.] ] ] |  .=.=.> oXtXtXq.tX&Xv./ / / ( %.m.e.w.+XoX#X% =.-. .| X.| | o. .] X. .|  .| | | ] | ",
"| X._ X.] | | | | | | | ] X.| O.| | ] | ] X.| =.-., oXt.r.r.t.OX/ / ) ^ ^ ~ g.- l  X0.aX: } -.=.| | | | | | | | | | | | | | | | ",
"] o.| _ o.| | | | | | | X.| | | O.] | [ X.| =.=.*.% +Xr.r.r.q.&Xv.) ) ^ W.E.zXc - . = o * P } =.=.| | | | X.| | | | | | | | | | ",
"| | | 0.| ,.| 9.|  .| | | | | | | |  . . .| =.=.*.1 .X.Xr.yXr.e.m.N.B.jXjXE.Y.J.H.G.fXzX- P  .| | | | | | | | | | ] | | ] | | | ",
"| | ] 9.| e.] pX]  .| | | | | ] | | [ | |  .=.=.} > XXyXq.r.r.e.n.N.G.F.R.P.^.F.I.Y.G.fX= $.| =.| | | | | | _ | | | | | X.| | _ ",
"| | ] pX| pX| 9.|  .] | | | | |  .] | | | |  .{ &., $X.Xr.r.e.n.~.^.^.^.V.V.Z.Z.F.~.~.. - -.,._ | | | | | | | | | | | | | | | | ",
" . .| '  .|  .m.| |  .X.| | | | |  .| | | | |  .*., |.#Xe.e.n.Q.~.^.U.C.C.C.Z.Z.I.F.zX- $.} ,._ | | | | | | | | | | | | | | | | ",
"]  .| ] o.} | | | | | | | | | | | | ] X.X.] ] } -.6 6 #Xm.n.Q.~.F.I.P.V.U.L.L.F.J.G.. U .. .| | | | | | | | | | | | | | ] | | | ",
"| | | o.| | | | | | | | | | | | | X.X.] X.] ] |  .:.< iXm.kX~.G.D.Y.J.E.E.E.J.K.G.a f $. .| -.{ | | | | | | | | | | | | | | | | ",
"| | | | | ] | | _ | | | =.>.` | ] X.| | | ] X.] X.-.C i Y lXfXzXgXgXfXhXhXfXhXc X k 4.*.=.>.| | | | | -. . .| | | | | | | | | ] ",
"| | | | | | | | X.| | X.| | >.X.X.] _ |  .| ] ] | =.W R O   X o o o X o X $ T Y ! 4.4.=._ |  .|  .-. .| | | | | | | _ | | | | | ",
"| | | | | | X.| | _ | _ >.| | ` X.X.=.*.*. .| | =.=.:.O @ ).E Q R D D R (.Z O 9 W :.&.;.;.=. .| { | | =.| { =. .] | | | | | | | ",
"| | X.| X._ | ] >.=.| | | | =.| ] | =.*.*.-. . .=.I 3 @ [.4X6X>X`.`.`.`.(.dX(.@ A :.=.&. .| |  .-.| -.0. .#X . XX.| | | | | | | ",
"] | | | _ X.| X.X._ | =.'  . .| | _ | -.*.-. .{ *.S 3 ].4X6X<X,XwX,X9X0X6X6X7X6X+ 0 ;.*.[ | X.` | |  . X=.0.| OX| _ | | | | | | ",
"| | | | X.] _ | | ,.{ | ,.|  . .] X.| =.-.&.} 3.:.O + 4XJ <X3X2XqX-X9X:XM 6X6X[.2 3 <.}  .[ ] O.| | =.OX{ OX,.OX| | | | | | | | ",
"| | | | | | | |  .|  .| =.` -.{ | X.| X.| =.-.*.R @ Z 4XM <XeX-X,X-XeX:XM M 4X6X5X+ E *.@.} =.O.|  .|  X| 0.0. X| | | | | | | | ",
"| | | | | | | | =.{ -.{ MXMX} *.| ] _ X.| =.:.C O @ ).6Xv /.:X9X3XwX<X1X6Xm m 4X4X+ E :.-.o._ =.=.|  . . .| | >.| | | | | X.] | ",
"=.| _ | | =.=.| } -.$.7.nXVXY @.[ ] _ &.&.:.A @ @ + ].>Xb v :X-XqX2XqX9X;X>XN + [.@ R :.&.2.| X.| | | | | | | | | | | ] X.| | | ",
"O.| >.X.| | | X. .} BXBXcXcXVXBX[ X.>.=.1.# + Q G B >X0X5XM <X<X2X2XwX8X9X0X`.m [.D @ 1.&.=.| | | | | | ] | | | | | | | | | | | ",
"| | | | | | | _ | } NXVXcXvXBXMX{ -.:.1.4 @ ].[.{.b 1X1X<Xv m 4X<X2X-X-XqX;X6X(.+ {.O :.;. .| ] | | | | | | | | | | | | | | | | ",
"| | | | | | | X.| 5...7.BXMX@.3. .=.:.Q @ [.4X6X7XM eX3X<X<Xm V <X,XwX-XqX2X:X<X+ G O W =.| | o.| | | | | | | | | | | | | | | _ ",
"| | |  .| | | ] ` | } @.BXMX}  .} -.:.O E ].].4X7XM <X3X,X:X1Xn <XeXqXqXqXqX2X<X'.B # 5 , S  .| | | | | | | _ | | | ] | | | | | ",
"| | | | | | | X.| =.} 3.3...-.{ -.-.  # ; 2 B ].[.M -XwX-XwX:X_.v _.wX-XqXqX3X2X>X2 *X@XOX, { 2.| | | | | | | | | | X.| ] | | | ",
"|  . .] | | | _ | |  .} {  .` >.| | 6 8.=X=X; 3 {.b 3X2X3X,X,X,X_.v _.9X<X1X<X:X`.2 *X$X&X8.; >.| | | | | | | | | | | | | | | | ",
"] | ]  .| | X.| =.|  .,._  .>.>.| | > |.XX$X=X; R + >X,X-XwX-X9X1X`.N N 6X1X>X>X'.2 XXXXw.&X1 &.=.| | | | | | | | | | | | | | | ",
"X.| [ | | | | | | | |  .| | | | =.p S oX&XXX*X|.O @ '.:X,XqX8XqX-X:X:XV n b V m + O =XoX%XOX> =.| | | | | | | | | | | | | | | | ",
"X.] | |  .| | X.|  . .| | | | =.| S : aX#X$X*X6.O @ V 5X-XqXqX;X-X-X0X0X].4XG Z [.4 6.@XoX> L *.| | | ] | | | | | | | _ | | | | ",
"X.X.|  .| | | | ] X.| | | | =.| -.3.: : : , > , C 9 D `.0X}.;X}.8X8X8X}.0X5X5X6X[.).2 1 , p  .} | | | X.| | | | | | | | X.] | | ",
"] | | ] | | ] |  .|  .| =.| | | -.} -.*.&.-. .:.:.:.3 B `.`.}.}.}.;X}.}.}.`.`.Z [.'.2 &.| } o.} | | | | | | | | | ] | | | | | | ",
"X.|  .] | | X.| |  .] | X.|  .| | }  .{ =.-.=.-.| =.2.< 9 4 4 3 3 4 2 B 2 B B 2 1 4 &.*. . ... .| | | | | | | ] | X.| | | | | | ",
"] | |  .| | | |  .| | | _ X.] | ] | -.-.-._  .' | ] &.*.4.O 9 aX< A aX*X*X=X< &.W =.-. . . . .| | | | | | | | | | ] | | | | | | ",
"X.| |  .| | | | ] X.| | X.] | | X.O.| } | | X. .o. .,.*.4.< < *X%X% 1 #X@X*X0 % o.{ @.-.| ] {  .| | | | | | | | | | | | | | | | ",
"| | |  .| | ] | | | | X._ O.] O.] O.| =. . .] ] | {  .-.K < < *X%XoX> $XXX#XpX6 % $.@.[ } 5.| | | | | | | | | | | | | | | ] X._ ",
"_ | X.] | | | | | | | | | X.| | >.=._ | | | | | | |  .} , > XX$XXX$XF < 1 OX#XOX% 8 l +.+.$.[ [ ] o.] | o.` | -.| | [ ] ] o.X.X.",
"] X.| | | | | | | | | | ` >.| | | X.X.| [ | | | =. .} @.* L $XyXXX$X& -.: pXpXm.M.g.f.f.f.%.+...[ [ [  .] ,.| | =.| o.] | | _ _ ",
"| | | | | X. .-.| | | | | | | _ ] X.X.] | | | X.]  .#.l * m.e.t.$XoX1 4.* 5 M.x g.p.!.!.i.j.%.+.$.@.@.[ | _ O.>.| ,.] | | =.| >.",
"| X.| ] | |  .| |  .| | | X.X.] X.] ] ] ] X.| |  .$.+.g.g.M.n.m.e.6 6 P #.= T h.p.D.Y.F.E.u.j.T U g.$.$.| O.&.=.| | { | =.=._  .",
"| | | | | { | | | | =. .| | ] | | ] ] }  .| | ] [ +.f.s.u.p.g.M.pX% ..4.#.a.h.G.F.I.C.U.L.S.i.p.u.s.g.+.[ X.:.=. .3. .o.=.=.| =.",
"| | | | | -.=.{  .{ |  .| | |  .| | | } | |  .[ +.x u.H.K.K.p.k.z 5 4.#.#.b.c !.T.V.C.C.I.Y.y.u.H.!.p.k.$. .;.*.@...3.} _ _ -. .",
"] =.| |  .|  .|  X-.|  .|  .| ` =.=.-. . .} [ $.g.p.H.Y.R.F.K.N.a.U U K K k a.H.Y.U.A.A.Z.I.T.S.R.E.~.p.x #.} NXMXBXY } | ,.| { ",
"| `  .9.OX=. .OXOX| | =. .| | =.| =.=.-.-...$.U p.~.I.U.P.T.F.S.j.s a h 7 g f.u.J.I.U.A.Z.V.L.P.L.T.F.p.j $.#.VXmXmX#.} | | =. .",
"| | | |  XOX XOX|  X#X5. . .` X.` ,.| | L l 8 f.i.E.L.C.^.F.I.y.l.z.p.f.a g s j.z.~ L.L.V.P.P.P.L.E.H.i.f mXVXxXxXxXmXNX&.=._ =.",
"| |  .-.{ pX X9.#X0.,.{ =. .| | | | L 0 6 8 h h.N.J.I.C.A.Z.I.y.F.E.H.N.s.s j j d d.y.Y.T.P.T.L.R.K.i.a.h VXmXxXzXxXnXMX;.=.,.` ",
"` | | | | _ OXOX{ |  .| | | | | X.| 6 p e 7 8 c z.K.I.C.A.Z.V.P.P.L.L.F.H.k.j j k j p.zXD.E.Y.J.~ i.( i h CXVXxXxXzXmXMX&.,.' | ",
"| | `  .| -._  .=.|  . .| | | |  . .e e 0 w h f d.gXY.^.Z.U.T.V.U.P.P.I.H.x.f k w h z h.u.G.B.z.s.g f h C i h VXmXmX%...=.| [ ] ",
"| X.| | | |  .| |  .| | | | ` | } *.y e 0 t u h b.d.l.~ D.D.D.R.R.V.T.D.z.k.j w q r 8 = f.h.b.c h 8 7 q t t w bXnXbX@.5._ | ] [ ",
"| | | | | | | -.{ ,.| ] | | | |  . .L y y e y y f a j.l.u.i.x.u.S.!.H.z.s.f i u y 0 8 8 8 = f 7 7 r t y t t k u I @.} ` =.>.] ] ",
"_ | ,.] | | ` | | | | | | ` | X.X.|  .e e 0 e 0 r 7 = g h g i f d.d.h.g.a 8 7 u t y q r q w k i w q y 0 y t q q P  ._ O.O.| | @.",
"| | | | | X.| | | | | X.| | | | | | } 3.K y e e q r 8 k 7 q w k j d s = h 8 q w t q t t q r q w w q C y t e r q *. ._ O.=.=.|  ."
};
