/* XPM */
static char *player_front[] = {
/* columns rows colors chars-per-pixel */
"64 64 248 2 ",
"   c #3A3B0A",
".  c #263E17",
"X  c #343C17",
"o  c #2F3C0E",
"O  c #153A2C",
"+  c #18392A",
"@  c #0E3B3B",
"#  c #0C3836",
"$  c #143532",
"%  c #153B33",
"&  c #1B3C33",
"*  c #123B3B",
"=  c #193C3B",
"-  c #1A3538",
";  c #363D23",
":  c #273B31",
">  c #433915",
",  c #0E491E",
"<  c #174A1C",
"1  c #0D511E",
"2  c #2D441B",
"3  c #24431B",
"4  c #354118",
"5  c #21531E",
"6  c #1C4524",
"7  c #1C4A24",
"8  c #1D4A2A",
"9  c #194429",
"0  c #165426",
"q  c #184136",
"w  c #0E5720",
"e  c #224324",
"r  c #234825",
"t  c #234A2B",
"y  c #284629",
"u  c #374725",
"i  c #28562E",
"p  c #33562D",
"a  c #3C562B",
"s  c #234638",
"d  c #2D5934",
"f  c #2C5636",
"g  c #345634",
"h  c #3A5433",
"j  c #335A35",
"k  c #3A5B32",
"l  c #32553A",
"z  c #345A3A",
"x  c #3E573A",
"c  c #3A4B38",
"v  c #37643A",
"b  c #454718",
"n  c #4A501E",
"m  c #465328",
"M  c #4A5731",
"N  c #43683D",
"B  c #6D6934",
"V  c #083D49",
"C  c #143B43",
"Z  c #06404E",
"A  c #14474D",
"S  c #335644",
"D  c #355C4E",
"F  c #3C6742",
"G  c #3E7645",
"H  c #396A6E",
"J  c #195064",
"K  c #436946",
"L  c #457546",
"P  c #4D7855",
"I  c #527D5B",
"U  c #597A58",
"Y  c #4F6A57",
"T  c #697A47",
"R  c #677E58",
"E  c #727455",
"W  c #577B66",
"Q  c #4B7872",
"!  c #617E60",
"~  c #4D5349",
"^  c #4E8656",
"/  c #4E8A55",
"(  c #4E8C5B",
")  c #4B8458",
"_  c #528556",
"`  c #538A56",
"'  c #5A8B56",
"]  c #54865B",
"[  c #5B855B",
"{  c #548C5B",
"}  c #598B5D",
"|  c #5C8554",
" . c #55905D",
".. c #59905E",
"X. c #539256",
"o. c #548D57",
"O. c #6A834B",
"+. c #77834A",
"@. c #638353",
"#. c #63855C",
"$. c #62895D",
"%. c #698456",
"&. c #768856",
"*. c #558561",
"=. c #5B8563",
"-. c #558C62",
";. c #5B8C62",
":. c #5C8569",
">. c #5D8A6A",
",. c #57856B",
"<. c #569161",
"1. c #5A9162",
"2. c #589768",
"3. c #57886B",
"4. c #638562",
"5. c #628B63",
"6. c #648869",
"7. c #65996A",
"8. c #689976",
"9. c #73916F",
"0. c #6AA879",
"q. c #75AB7C",
"w. c #76A97C",
"e. c #64BD7E",
"r. c #69BE7D",
"t. c #6FB27F",
"y. c #78B17F",
"u. c #67C17E",
"i. c #A9843A",
"p. c #B0893E",
"a. c #8F8E4E",
"s. c #948D4D",
"d. c #9B8C4A",
"f. c #98914E",
"g. c #8A8C57",
"h. c #948E56",
"j. c #8C955A",
"k. c #899356",
"l. c #939153",
"z. c #94925A",
"x. c #9A9256",
"c. c #A68C44",
"v. c #A59855",
"b. c #AA8F51",
"n. c #8B9463",
"m. c #8D966C",
"M. c #A5986B",
"N. c #95A979",
"B. c #8FA974",
"V. c #B4AE6E",
"C. c #B5A35B",
"Z. c #CBB16C",
"A. c #E3BC74",
"S. c #C69D4D",
"D. c #DAC57B",
"F. c #EDC975",
"G. c #ECCB7C",
"H. c #E6C87A",
"J. c #F1CB7C",
"K. c #F2C979",
"L. c #F1D07F",
"P. c #5A8C97",
"I. c #5C969C",
"U. c #518992",
"Y. c #62949D",
"T. c #629A9E",
"R. c #689598",
"E. c #6D978B",
"W. c #7AAF81",
"Q. c #77A785",
"!. c #6CBC83",
"~. c #6ABA83",
"^. c #73B483",
"/. c #7DB384",
"(. c #75B589",
"). c #7CB38B",
"_. c #71BB89",
"`. c #76BB88",
"'. c #79A68C",
"]. c #4C9DAC",
"[. c #479BAA",
"{. c #5A95A4",
"}. c #549BA5",
"|. c #5A9BA4",
" X c #539DAC",
".X c #5B9CAB",
"XX c #5094A7",
"oX c #4C9DB2",
"OX c #529EB2",
"+X c #5C9DB1",
"@X c #519EB8",
"#X c #6596A1",
"$X c #639AA2",
"%X c #659CA8",
"&X c #4AA2AD",
"*X c #47A1AC",
"=X c #53A1AE",
"-X c #5AA1AC",
";X c #52A1A3",
":X c #4CA2B2",
">X c #47A2B3",
",X c #52A3B3",
"<X c #52A5B9",
"1X c #64A0A0",
"2X c #66C382",
"3X c #6BC283",
"4X c #6FC088",
"5X c #979D87",
"6X c #909E8B",
"7X c #A29D8C",
"8X c #86AC8A",
"9X c #96A788",
"0X c #86B28D",
"qX c #84AC97",
"wX c #87B495",
"eX c #97A291",
"rX c #B5B88B",
"tX c #C9BD83",
"yX c #A6C28C",
"uX c #DBCC8A",
"iX c #DACD93",
"pX c #DBCA9A",
"aX c #DCD295",
"sX c #DAD699",
"dX c #CFCB8E",
"fX c #E6CC84",
"gX c #EACC83",
"hX c #E3CC8A",
"jX c #E8C888",
"kX c #F2CD84",
"lX c #F4CE8D",
"zX c #E8D189",
"xX c #E6CD94",
"cX c #E3D293",
"vX c #F4D084",
"bX c #D3D8B7",
"nX c #D6D6A8",
"mX c #E3CCA0",
"MX c #ECFFDC",
"NX c #FDFFDE",
"BX c #F7FFD8",
"VX c #FEFFCC",
"CX c #EDFFE3",
"ZX c #ECFFE7",
"AX c #F4FFE3",
"SX c #FBFFE3",
"DX c #F2FFEA",
"FX c #F8FFE8",
/* pixels */
"} -.( ( } *.4.FXFX4.[ -.( ( -.} } { } ] { { { { { ( X.{ /  .] { { { } ;.] ;.} -.} { { ..X.( { ( { { ` { { ` { ] { ` { { {  .{ { ",
"} { <.( ;.[ 4.FXSX4.[ } <.( -.{ <.-.} -. .{ { { ( ( { ..{ ( ` 1.{ 1.] } >.` -.{ } } ] { ( <.( <. ./  . .{ { {  .{  .{ { { { { { ",
"..{ ( -.| CXSXbXbXFXAX[  .{ { { { { { } /  .{ -.-.( } -.} ;.} _ { ( { } ^ <.{ { } ' [ }  .{ { { { { { ( { ..y.{ } { { { { {  .{ ",
"` { ` } [ AXSXbXbXSXMX| }  .{ / { ( { X.{ { { } -.>.=.;.>.] ;.{ ` X.` } { { { ;.} [ 5.[ } { -.{ { { { { ] y.q.{  .} ` {  .{ / { ",
"{ { -.} [ #.#.FXAXR #.;.} { { } { ;.;.] } } [ [ P 6 y e e =.[ } } ;.;.-.{ ;.*.e 2 e 3 k 5.[ [ ;.} /.} { { )...} ` ] ..{ { { / { ",
"<.^ { } ;.[ 4.ZXZX5.5.} ] { ^  .{ { { { } ] [ t 6 t t 9 9 t 6 :.*.=.=.4.>.I 6 6 + t 6 7 d =.=.;.;.1.W.;.W.W.] W./.` / 1.{ { {  .",
"{ -.<.{ } -.-.] *.;.) ;.{ <.-.{ (  .( { ] 6.6 8 i ).(.(.^., 9 6 t y y t e 8 7 8.).).W., 0 [ $.[ } -.w./.W.W.W.w...{  .] (  . .{ ",
"{ ( -.{ -.{ <.-.{ -.-.{ -.-.{  .X./ -.-.-.8 t 6.).(._.~._.(.0.8 9 8 7 6 8 8 (.^.).(.(.) < ) } [ [ -.-.W.W./.0.[ } { { { { { { ( ",
"{ { ` { { } { { { { { { } { { X.X.{ ;.;.*.9 t 8X(.^.1 2.!.~._.!.^._.~._.`._.^.`.7 Q.^.0.0 G } [ } { ] -././.] -.} } { { { { X.{ ",
"X.X.` { } ` } } { ] ] ' ` X.` { { { ] -.-.8 8 '.(.w w w 4X3X~.~.~.2X2X2X!.!.!.1 0 < wX0 w P [ } ;.-.-.{ { } { } -.{ { { { { ( { ",
"{ { X.} { } } { } } } } { { X.{ { ;.[ *.-.7 i 8X(.(.1 0.3X2Xu.u.r.u.2Xe.u.u.t.t.t 6.).0 6 *.;.-.} { } -.} { ..} } ] { { { { { X.",
"X.{ { { ] } -.{ } { } { { { { { } [ ;.-.>.7 t 8X8X0XQ.`.e.e.u.u.r.u.u.u.r.r.`./.B.8X6Xt F =.*.-.{ -._ } -.} { } { { { { { { { { ",
"-.{ -.{ { -.( ( ( -.-.{ -.{ -.{ } } { -.[ + : m.5X5X0X8Xu.3X3Xu.3Xr.~.2Xr.`.`.8X6XeXU : ! 6.:.;.-.{ { { { { { { { { { { { { (  .",
"} { { (  .( -.-.-.-.( X.{ { { { | }  .( *.c u eX7X5X8Xy.y.u.u.2X!.!.2Xe.3Xt.).0X7X7XeXs y ! ;._ ;.` { { {  .{ ] X.{ { { { { ( { ",
"} { { { { { { { { { { { { { } } ' ' { ;.8 + wX9X9X8X8Xy.y.4X~.3X4Xe.2X2X3X!.^.0X6X5X9X. t *.} ..{ { { / { { { { { { { { { { { { ",
"{ { { { { { X.{ { { { { X.{ } ` ` ` -.-.t e 8X8X9XB.B.yXk 5 y.^.^._.~.!.{ 5 B.N.N.7X9X7.6 L ] { { X.{ { { { { { { { { { { { { { ",
"{ X.{  .( { ` { { { { { { { { { { ( ;.,.t y N.B.dXdXuXsXn b 3 k w.).w.y X   sXiXuXsXN.N.< v } ] { { { { { { ( { { { { { { X.{ { ",
"{ { { / { { { { { { X.{ { { { X.{ { *.6.e . yXdXuXfXgXlXjXM.  o X ; X X > iXjXgXG.zXdXN.3 d [ } { { { { { { { { { { { { { ` { { ",
"1.^ { /.{ 7.{ 7.{ } { { { { X.{ { { -.=.5 2 nXiXhXG.K.H.jXjXuXtXB b B Z.xXjXK.F.H.D.aXrXX S =.[ { { { { { { { X.{ { { { { { { { ",
"{ { ..q.{ /...y.{ { { { { { { ( ` X.;.;.N 2 b sXuXgXkXG.K.H.gXfXxXuXuXzXgXJ.F.F.L.zXpXn X 4.4.;.} { { X.{ { { { { { { { { { { { ",
"} ` { /.` /...y.{ { { { { { { { { { } ] 4.2 o   cXhXfXgXK.K.L.K.K.J.L.G.K.K.K.kXL.uXdX3 y #.5.} { { { { { { { { X.( { { ( { { { ",
"{ ....{ } { ` 7.{ { { { { { { { / -.;.*.5.4.2 X   tXxXjXkXkXK.K.F.F.F.L.A.kXjXxXaXdX4 3 P ;._ [ { { ( { { { { { { { { { { { { { ",
"} { ] ` } } ..{ { { { { ( X.(  .{  ._ >.>.:.4.N 2 X > mXxXjXhXzXgXG.H.fXjXmXmXpXb 4 3 N ;.-.(  .{ { { { { { { { { { { { { { { { ",
"` } { ..{ X.] { { { { { { { {  .{ <.;.-.] =.5.W ! y ; ; M.mXpXpXaXaXiXiXmXE ; X 4 3 @.| ] <.X.( { { { { { { { { { { { { { { { { ",
"{ { { { { { { { ( { { ( { <.) { ( { { { { -.-.3.,.,.Y c ; ; X ; X 2 X ; ; ~ ~ : U ! 6.[ { -.{ ( { } ' } ..{ ] { { { { { { { { ` ",
"{ { { { { X.{ {  . .{ <.-.{ <. . .{ X./  .{ -.3.3.S O $ D q s s s & s & : - - : W ;.W ;.;.-.{  . .` { ..] { `  .{ { { { { { { { ",
"{ { X.{ { ( { X.{ ( { ( -.{ { { { ] { X.{ { ;.W S q @ R.T.$X#X#X#X{.$XT.#XY.P.$ O O W ;.>.;.;.] { { { { ` { ..' { { { { { { { { ",
"{ { { { { { { { <.{ ( -.{ { -.{ ;.] { ..{ ;.*.W q # I.}.}. XOXOX+X+X X-X+X.X{.Y.H O O + =.:.] } ..] ` /.` w.X.8X{ { { { { { { X.",
"{ { { { { { { { -.{ { -._ } } } -.>.( ] -.=.:.* # |.-X}.&XoX@X@XoX:X:X].oX]. X}.I.I.@ % P ,.] ..` { ..q.` /...y.{ { { { { { { { ",
"{ { { { { { { { ( <._ } 1.-.] } -.{ } } =.:.s * $X|.].:X*X>X<XoX>X:X>X].<X>X[.,X X{.#X# * 6.} ] ..} ` 8X..y...y.( { { { { ( { { ",
"{ X.{ { { { } } { { } ] ;._ ;.] } ` } ;.>.f C P.|. X:X*X*X&X[.:XoX].,X}.].&X[.>XOX+X{.#X@ Q =.} ` ' X.w.} q.../.{ { { { { { { { ",
"{ { } } { { { { } } ;.[ ZXZX[ =.] ..} =.q % Q {.%X+X].:X*X,X&X=X,XOX=X].=XZ ,X&XOXOX+X{.C & =.} { } { ` { ..` { { { { { { { { { ",
"{ { -.{ { { X.{ { 5.R %.SXSXR #.' ] >.W - * $X|.{.V @X].<X[.,X].oX].,X X}.Z *X:X,XoX+X%XA % ,.] } { { { { { { { { { { { { { { { ",
"X.{ -.-.{ { { ( -.=.DXFXbXbXFXZX} >.W - * %XY.I.V J  XoX:X:X[.,X].:X:X X-XZ }.,X X].,X}.U.= ,.-.{ { { { { { { { { { { { { { { { ",
"{ { -.{ -.{ { { } } AXAXbXbXMXZX} >.Y - P.#XR.V V +XOXOX<X&X,X&X:X*X=X}. XV %X.X].<XoX+XR.* W ,.-.{ { { { { { { { { { { { { { { ",
"{ { -.{ { { { X.-.-.4.@.AXCX#.5.*.;.- - R.#XV V .XXX@X<X].,X].].>X&X[.}. XU.V {.=XXX X-XR.* O >.;.{ { X.{ { { { / { { { { { X.{ ",
"{ { } { { { { ( { } =.@.AXCX| ;.=.:.+ - R.C V I..XXX<X[.].&X&X-X>X:X<X].&X}.Z P.}.|.%XP.* $ W 6.} { { { { { { { X.{ { { { { ( { ",
"} { } } { { {  .( ;.[ [ $.[ ] } } :.+ O $ q Q 1X|.].>X>X<X:X].*XoXoXoX,X].,XV V #X$X# @ % + W *.} { { { { { { ( { { { { { { { { ",
"{ { { } { { { X.1.{ ] [ _ 5.{ { } [ 6 8.% % O R.;X].>X<X>X>X>X*X>X:XOXOX]. X%XC C - = % E.8 ] -.{ { { { { { { { { { { ` { { { { ",
"{ { { -.{ { { { { { } } ] { { { } v r E.qX'.O A |.oX>XoXoX:X:X:X>X:XOXOXOX X{.#X- - 9 ).E.7 F [ { { { { { { { { { { { { { { { { ",
"{ { { { } { { X.{ { } } { { { { { _ 6 F '.qX$ = |. XOX@XoXoX@X*X*X;X&X}.,X}.-XT.- - qX0XQ.7 j =.{ { { { { { { { { { { { { { { { ",
"-.( { { { { { { ` } } { } { {  .` ;.6 9 t q Y $ #X|.+X.X+X+X X X;X;X;X}.,X}.|.T.* Y q w.t < K [ { { { { { { X.{ { { { { { { { { ",
"(  .{ { { { -.{ } { { { { { { { { -.>.f t 6 c - # R.#X{.Y.#X#X{.T.I.T.T.P.H A = - S t r 3 r =.;.{ { { { { { { { { { ( { { { { { ",
"{ { { { { { -.{ { } { { { { { { { { { *.:.=.:.+ % $ # q = * * * @ * * * % % - $ ! 6.I v N #.} } { { { { { { { ` { { { { ` { { { ",
"{ { } ` { {  .{ ' ` } { -.{ { } { { { 1.} =.5.:.:.s D q & & % % % Q S 6.'.qXe U :.4.[ } } ' ;.} { { { { { { { { { { { { X.{ { { ",
"X.{ { ' { { -.{ { { X.{ ( X.} ` ' { ;.} ] } ;.*.=.8 t qXW y W 3.:.6.y X N.m.3 | #.5.} ' ..] } { { { { { { { { { { { { { { { { { ",
"-.} ' } { { { { { }  .( ( ( { } ` ' } ] { <._ >.I 8 S wXg t W :.:.4.4 g.a.a.z.j.R @.' ` } { { { { { { { { { { { {  .{ { { { { { ",
"{ { } ` { { -.{ { X.( ( <. .X.` | } } ]  .X.' [ U 5 5.B.a y U =.[ O.j.V.uXhXuXx.N.+.| ..`  .( -.{ { { { } { { { { { { { { { { ( ",
"( { { } { { { { { { { { {  .( ` ` ` X.{ ' ' O.&.j.k.j.N.O.m %.%.O.k.s.zXjXjXzXuXuXk.O.| { { { { <.-.<.{ ' } } } { {  .} ] ..{ -.",
"{  .{ ` { { { { { ( { { { { { X.{ X.{ { ' @.O.k.l.f.d.f.l.n.j.&.O.j.v.H.kXp.c.c.d.f.+.| ] <.1.{ ( -.{ } [ } } ] { {  . .{ { ( -.",
"{ { { { { { } -.] } { { { { { (  . .( -.} $.O.j.V.hXD.D.Z.v.a.g.O.&.f.D.i.S.J.G.c.f.k.@.} } } ` ( 1.^ ` ] .. . .(  .(  .` } { } ",
"{ { {  .{ ( } { ..{ { { {  .1.{ ( ( -.-.} @.O.a.v.fXG.L.fXZ.s.T %.+.l.i.J.K.F.F.L.d.g.%.' ` ' ' X.X.{ {  . .) ( (  .( ( X.X.` ] ",
"{ { { / { } { } { } ;.{ { { { ( ( { -.;.;.@.+.k.f.gXkXG.H.C.l.+.O.&.x.D.gXF.G.vXfXf.j.@.' ..} ` {  .( { { { -.-.-.-.( { { { ] { ",
"{ { { ' } -.;.] } { { } / { { { { { -.>.#.O.O.l.d.zXF.F.G.v.f.+.%.R g.iXhXkXD.hXaXk.&.@.] { ..} {  .{  .{ ;.:.=.;.] 2.-.{ } ..} ",
"{ { { ] { } { } W.-.{ { ] ..{ { X.{ ;.;.@.&.+.d.c.S.Z.L.H.v.l.T R &.n.g.h.h.z.h.g.n.m.[ ;.;._ { { /  .] ;.#.R DXDXDXR [ } 1.' ` ",
"{ { { 0.W.-.^ /./._ ] 1.{ ] { { ] ' #.@.O.k.l.c.p.i.p.i.zXs.l.n u a M m m m m m m M a j d I -.-.} ;.{ -.[ 4.%.SXSXSX4.#.[ ] { { ",
"{ { } } W./.W./.] /.W./.{ -.{ { { ' L a k.a.V.G.G.A.A.Z.xXs.x.n m p a x h h h h h m c h l j z d } -.-.-.5.MXVXsXcXnXNXDX4.3.{ ( ",
"{ ( -.} } /.W.W./.W.} -.{ ;.` { } j p a k.a.cXjXjXjXjXZ.v.a.z.m a k j g g z z g x x h x g g j z d { ,.3.:.MXVXaXcXnXSXDX6.*.<.( ",
"{ { { { -.^ /./.{ { { { { { { ;.F d g a T z.f.d.b.d.x.x.h.n.E m x j g l f d g g c x M g g j d d L ` -.-.[ CXBXnXnXnXBXFX*.<./ X.",
"{ / ^ { -.} ^ } } -.;._ { { { ] d S l h m M k.x.h.h.g.M n u m h h g z z z z j x l g g x g j d v ' ` { -.;.#.%.BXNXNXR 4.;. ./ X.",
"{ { { { { ` 1.{ { { { { { { { } *.l l z a a u m M m u a a p j j h g z z j g p g j g g j j i -.] } ' -.{ _ 6.#.MXMXAX4.5.] { { ` ",
"{ { { { { { { ;.{ ] { { { { { { ;.} :.;.K p v k c g h h j p j z z f l z j j k p j d z d } ;.-.-.} ` -.-.2._ } #.$.[ >.-.-.-.` } ",
"( ` 1./ { { { { { { { { { { { { ` ` { -.-.{ ^ ] [ z g k k g l i d z S z d p j d d z i ] ` ] ;.-.} { <.) ] } } ' } } / )  .-.} ' ",
"{ { { { { { { { { {  .{ <./  ./ X.` { { <.( <.{ -.;.4.4.#.#.:.>.[ ;.;.W K P [ ] -.;.-...{ } ] -.{ { { { } .._ } X.` (  .{ } } } "
};
