/* XPM */
static char *player_left1[] = {
/* columns rows colors chars-per-pixel */
"64 64 241 2 ",
"   c #383E0B",
".  c #293417",
"X  c #303718",
"o  c #0C3C2C",
"O  c #133D2B",
"+  c #153B27",
"@  c #0B3B36",
"#  c #163A37",
"$  c #213628",
"%  c #0B4B1A",
"&  c #134A1D",
"*  c #18491D",
"=  c #0E541D",
"-  c #37440B",
";  c #284519",
":  c #39491A",
">  c #344A17",
",  c #1B4423",
"<  c #154C23",
"1  c #1B4B23",
"2  c #17482B",
"3  c #1A5229",
"4  c #0C463A",
"5  c #134334",
"6  c #184638",
"7  c #174D31",
"8  c #244927",
"9  c #28572C",
"0  c #3B552C",
"q  c #3A5628",
"w  c #214834",
"e  c #2D5A32",
"r  c #2A5934",
"t  c #345534",
"y  c #3C5433",
"u  c #325A36",
"i  c #3B5834",
"p  c #345A3B",
"a  c #36573A",
"s  c #3C4F22",
"d  c #37663D",
"f  c #2A6231",
"g  c #454D1B",
"h  c #4C511C",
"j  c #4D4917",
"k  c #454E24",
"l  c #435225",
"z  c #43532C",
"x  c #495525",
"c  c #445533",
"v  c #505129",
"b  c #4A6638",
"n  c #5F6537",
"m  c #657338",
"M  c #6A6835",
"N  c #023C4A",
"B  c #074349",
"V  c #164843",
"C  c #034553",
"Z  c #275B53",
"A  c #3A6645",
"S  c #3A7548",
"D  c #32605D",
"F  c #185561",
"G  c #2E6771",
"H  c #216674",
"J  c #456A45",
"K  c #447549",
"L  c #567C56",
"P  c #507053",
"I  c #667A49",
"U  c #697E59",
"Y  c #767D49",
"T  c #517866",
"R  c #647D60",
"E  c #9F7C5E",
"W  c #AA715B",
"Q  c #98796F",
"!  c #AA746C",
"~  c #4D8A56",
"^  c #4E8B5B",
"/  c #4D8558",
"(  c #538556",
")  c #5B8454",
"_  c #538B56",
"`  c #5A8955",
"'  c #54865B",
"]  c #5B855B",
"[  c #548C5B",
"{  c #598B5D",
"}  c #55915D",
"|  c #59905F",
" . c #529056",
".. c #558B55",
"X. c #65854D",
"o. c #6B824B",
"O. c #64845C",
"+. c #6A835D",
"@. c #618A5D",
"#. c #658653",
"$. c #7A8752",
"%. c #558663",
"&. c #5B8563",
"*. c #558C61",
"=. c #5A8B62",
"-. c #5B8C69",
";. c #57856A",
":. c #559061",
">. c #5B9162",
",. c #5D976E",
"<. c #588976",
"1. c #539369",
"2. c #628A63",
"3. c #648765",
"4. c #788A60",
"5. c #618571",
"6. c #689370",
"7. c #65A275",
"8. c #7AAD7E",
"9. c #76A97C",
"0. c #64BC7E",
"q. c #6CBB7E",
"w. c #6BB47D",
"e. c #7BB37D",
"r. c #76B67A",
"t. c #66C17E",
"y. c #A3893A",
"u. c #95843F",
"i. c #8C8A4D",
"p. c #9C8D4D",
"a. c #978A49",
"s. c #98924D",
"d. c #878B56",
"f. c #948C55",
"g. c #9A8D55",
"h. c #8D935B",
"j. c #879457",
"k. c #93935A",
"l. c #989355",
"z. c #A28B45",
"x. c #A69253",
"c. c #888473",
"v. c #8A9266",
"b. c #A99A64",
"n. c #86AB7B",
"m. c #86B279",
"M. c #91B06E",
"N. c #B3AA68",
"B. c #E4B55C",
"V. c #E9B65B",
"C. c #E6B95B",
"Z. c #ECB457",
"A. c #C6AD67",
"S. c #DEB464",
"D. c #DCBB6C",
"F. c #D8B76B",
"G. c #CEBC7A",
"H. c #CDBB73",
"J. c #D5BC74",
"K. c #DCBB73",
"L. c #D7BC78",
"P. c #E3B663",
"I. c #ECB564",
"U. c #E5BA63",
"Y. c #EBBB65",
"T. c #E3BB6B",
"R. c #E6B96B",
"E. c #E2BA75",
"W. c #F1BA6A",
"Q. c #D29F66",
"!. c #BECA78",
"~. c #D8C177",
"^. c #C7C371",
"/. c #3C8691",
"(. c #5B9999",
"). c #558E8C",
"_. c #6A9693",
"`. c #649898",
"'. c #67968F",
"]. c #5AA29E",
"[. c #4FA19D",
"{. c #7AAF81",
"}. c #77AC86",
"|. c #6CBB84",
" X c #6EBC8B",
".X c #6ABA85",
"XX c #73B685",
"oX c #7CB384",
"OX c #73BB85",
"+X c #79BB85",
"@X c #76B48A",
"#X c #7BB48A",
"$X c #74BA8A",
"%X c #7BB98A",
"&X c #78B596",
"*X c #6FB08E",
"=X c #4C9DAB",
"-X c #4A9CA7",
";X c #539CA5",
":X c #5B9AA5",
">X c #539DAC",
",X c #5A9BAC",
"<X c #5A94A4",
"1X c #4C9DB1",
"2X c #569DB1",
"3X c #629BA2",
"4X c #639CAF",
"5X c #4DA3AD",
"6X c #4BA0A9",
"7X c #52A3AE",
"8X c #5BA1AB",
"9X c #58A1A6",
"0X c #4DA2B3",
"qX c #4FA4B9",
"wX c #53A3B2",
"eX c #72ABA1",
"rX c #6BC183",
"tX c #69C286",
"yX c #73C189",
"uX c #87AC87",
"iX c #81B386",
"pX c #85B38A",
"aX c #89AB90",
"sX c #999D8E",
"dX c #CABC87",
"fX c #D4BC87",
"gX c #E6B888",
"hX c #B3C493",
"jX c #C8C288",
"kX c #CBC78F",
"lX c #DDD5A8",
"zX c #D4D9BA",
"xX c #CED8B8",
"cX c #E2D5A5",
"vX c #ECFFDB",
"bX c #FCFFD8",
"nX c #ECFFE4",
"mX c #EEFFEB",
"MX c #F3FFE5",
"NX c #FBFFE3",
"BX c #F1FFEA",
/* pixels */
"[ [ *.^ { { 3.nXMX@.] { ^ [ [ [ [ { [  .^ [ { { ^ 1.^ ^ { _ _  .} } } ~ } } [ ] { [ { *.^ } [ _ [ [ } _ [ } { [ [ _ { [ ^ } _ [ ",
"[ [ *.[ =.L +.MXMX+.] { *.[ *.[ { [ [  ._ [ ` [ [ ^ :.:.( `  .} ~ [ ^ } [ } ( { { *.[ ^  .[ _ [ [ } [ [ [ [ ^ ^ [ [ [ _ } [ _ } ",
":.^ [ { ] MXNXxXzXNXmX] { *.[ [ ^ }  . ._ ` ` { [ *.^ :.{ [ } ( { { :.' ^ [ [ ` { [ { [ [ ^ } } { [ [ ^ } ( iX{ { [ ( } [ [ } [ ",
"[ { ( =.] MXNXxXzXNXnX2.{ [ *.[ ^ :.^ } ` } { { [ ^ -./ -.&.*.*.{ ' =.[ [ [ { } [ [ [ [ [ [ [ [ ~ [ [ _ } 9.e.[ } { ^ [ } [ ~ [ ",
"{ { { { { ] +.MXNXU O.] { [ [ { [ } ^ [ _ } [ [ :.[ =.3.&.L L 3.&.] =.{ [ ^ } ^ } [ [ [ { [ [ [ [ 9.{ >.( oX>.=.( [ | [ [ [ _ [ ",
"[ ( [ _ [ @.+.nXnX@.@.{ [ { _ >.[ } [ [ [ [ ( [ { %.=.8 8 8 2 , 8 3.] =.[ :.^ ^ ~ } [ [ } [ ^ [ :.>.#X[ {.oX( oXoX_ ~ :.[ [ [ } ",
"( >.[ } ( ^ [ ` [ { ~ } ^ } [ ( [ ~ } ^ [ } [ [ ' =., 8 , 1 ,.3 1 * =.( [ :.}  .[ [ { [ [ { [ [ { *.>.oX{.oXoXoX=.{ :.[ ~ [ } [ ",
"{ ( } [ } [ [ [ [ [ _ } ^ { [ { [ [ [ [ [ [ *.*.=.&.1 1 @XXXXX$X@X1 , =.=.*.[ ^ [ _ [ [ [ [ *.*.^ { >.9.{.iX[ ' ( { [ { [ } [ ^ ",
"[ [ } ^ [ [ { ` { [ [ [ [ [ [ [ [ _ } [ ( *.=.&.&.r & %XXXOXOXq.XX#X& K =.{ [ { [ [ [ [ [ [ [ [ [ [ [ [ {.oX( *.*.{ ^ } [ [ [ [ ",
"[ [ [ [ [ { [ { ` { [ [ [ [ [ [ [ | ( =.*.=.%.S < 1 7.OXOXOX= OX.X.X7.& ] =.=.( { [ [ [ [ [ *.*.=.' =.[ [ { [ { [ [ [ [ [ [ } ^ ",
"[ [ [ [ [ [ ` { ] { { [ [ [ [ _ [ ` { [ -.%., < }..X|.OXq.% = = |.rXw.7.& >.] { ` [ ` } [ { *.{ [ [ ' { [ [ :.{ { { [ [ [ [ [ [ ",
"[  .[ { ` [ [ [ { [ ` [ [ [ } [ [ [ { ' >.1 9 $X X.X|.yXr.+X% OXrXrXyXXX& r =.{ { [ _ [ [ [ [ *.[ =.[ [ =.*.:.{ [ [ [ [ [ [ [  .",
"[ [ [ [ [ [ [ ^ [ [ [ [ [ [ _ [ [ ` { *.& / @XOX.XtXrXw.%X%XXX XrX0.0.OX%X& -.( { { [ [ } ^ [ *.[ ( [ { _ ( { ( [ [ _ [ [ [ ^ } ",
"[ [ [ [ _ [ } [ [ } _ [ [ [ [ [ [ [ { *.< #X|.|..XrXXXoXaXaXpX#X|.t.|.|.OX< *.=.{ [ } ^ ^ } [ [ [ ' [ } [ } } [ [ [ [ [ [ [ ^ [ ",
"[ [ [ [ [ [ } ^ [ } [ [ [ [ [ [ { -.( 3 7.XXrXrX.X$XuXsXc.c.sXaXq.t.rX0.OXS 3 *.[ { (  .} } [ [ [ } :.[ [ ^ _ | [ [ [ [ [ [ } [ ",
"[ [ [ [ [ [ [ [ [ _ [ [ [ [ [ [ [ =.*.< oXXXOXq.r.n.d.f.Q Q Q c.+Xt.0.yX|.XX< [ =.[ { [ ~ } ^ [ [ } ^ [ { [ [ _ [ [ [ [ [  .[ [ ",
"} [ { [ [ { [ [ [ [ [ [ [ } [ [ [ =.] 8 uX}.n.b > h.E ! W ! Q c..XtXt.t.q.r.& &.=.{ *.[ [ [ [ [ [ [ [ [ [ [ [ [ [ [ [ [ [ [ [ [ ",
"^ [ ~ [ / } ^ [ [ [ [ [ [ [ } [ [ ( L * ; :     M fXgXQ.W ! Q v.OX0.t.t.rX+X& =.&.-.*.[ [ [ [ [ [ [ [ [ [ _ [ [ [ [ [ [ [ [ ^ [ ",
"} [ } e.[ e._ oX[ [ [ [ [ [ [ [ [ } ) ; kXdXG.L.E.F.E.E.gXb.b.M.r..XtXtXq.OX3 *.&.*.} ^ ^ [ *.*.[ _ [ [ [ [ [ [ [ [ [ [ [ [ } _ ",
"_ [ ~ oX[ oX{ e.[ [ [ [ [ [ _ [ { ` X.- jXJ.K.T.B.Y.P.T.Q.J.H.M.r.t.rX.XtXXX2 %.%.*.^  .[ [ *.*.[ [ [ [ [ ^ } [ [ [ [ _ [ [ [ [ ",
"[ | _ oX[ 9.>.e.[ [ [ { [ [ [ [ [ =.` >   H.D.U.V.Z.C.B.Y.~.F.^.M.r.t.t.$X*X3 *.*.[ _  ._ [ [ *.[ [ [ [ [ [ [ [ } ^ [ [ [ [ [ [ ",
"` { [ ~ { ` ' iX[ [ [ ` [ [ [ *.' -.] #.- jXF.S.Y.C.C.C.C.T.C.~.^.M.M.r.XX.X& *.[ [ _  .} [ { [ [ [ [ [ [ [ [ [ _ [ [ [ [ [ [ [ ",
"( :.{ { [ _ { [ { } [ [ [ [ [ [ =.{ *.( I   G.K.R.P.U.R.B.D.I.S.^.!.M.r.+X3 9 { `  .} _ *.[ [ [ [ ^ [ [ [ [ [ [ [ [ [ [ [ [ [ [ ",
"[ [ [ { ` | [ [ [ [ [ { ( [ [ [ [ =.^ :.` s j G.L.K.K.K.E.D.E.F.^.^.hXM.iX< } [  ._ [ { *.[ [ [ [ *.[ [ [ [ [ [ [ [ [ [ [ [ [ _ ",
"[ [ [ [ [ [ [ [ } ~ } ^ [ [ ^ [ { [ *.^ *.) b   M dXdXdXkXfXdXfX^.kXdXR w D 3.2._ ` *.%.=.' } } [ *.( >.{ [ [ [ [ [ [ [ [ [ [ [ ",
"[ [ [ [ [ _ [ [ [ [ { :.*.[ :.[ [ { ~ :.*.=.O.R P X . X . X X . X . $ $ P T &.&.` [ *.[ -.*.~  .[ :.( =./ [ [ >.[ [ [ [ [ [ [ [ ",
"[ [ [ [ [ [ [ } [ [ ^ ^ *.[ [ [ ] -.^ :.' -.T P # T `._.'.'.'.'._._.# # # R 5.3.{ _ :.[ { } } ~ [ [ :.( { *.{ ( [ [ [ [ [ [ [ [ ",
"[ [ [ } } ^ [ ^ :.} ^ { [ [ [ =.{ [ [ [ =.;.;.@ F 3X:X,X(.6X9X6X(.,X3XN # # + O.-.} ( { =.( } } { { { #X( iX/ oX[ [ _ [ [ } ~ [ ",
"[ [ ^ [ } _ } [ [ ^ *.} ( [ [ [ ^ } } } [ =.o V (.,X>XwX7X=X0X6X6X9X:X:XV # + R ' =.{ *.*.[ ^ *.^ ( *.8.=.{.{ oX[ [ [ [ [ [ [ [ ",
"[ [ [ [  .[ [ ^ [ >.( ^ >.*.[ =.[ [ _ [ [ ;.# 3X:X7X=X0X=X0X6XqX5X6X6X:X3X<.@ <.%.*.*.*.%.=.*.{ *.>.{ oX>.{.=.8._ [ [ [ [ [ [ [ ",
"_ [ [ [ [ [ [ [ *.( *.{ =./ -.( *.{ ~ { =.P @ (.,X2X=X0X=X5XqX=X6X0X0X2X,X3X@ o ;.*.*.=.] [ _ } [ [ ( #X[ {./ #X[ [ [ [ [ [ _ [ ",
"[ [ [ [ [ [ [ [ { [ =.] nXnX] =.{ =.} [ ;.O G ,X2X>X2XH /.>X-XwX5X0X1X1X=X;X`.@ o ;.*.&.{ { [ ` [ *.{ [ [ [ >.[ [ [ [ [ [ [ [ [ ",
"[ ^ } ^ *.[ [ [ ' =.U 4.bXNX+.+.{ ( >.' -.@ :X>X=X0X-X8XB :X;X>X0X0X=XwXwX=X>X:XN + ;.' { { ' [ *.[ [ [ _ } [ [ [ [ [ [ [ [ [ [ ",
"} :.[ [ ^ [ :.^ ( ] nXMXzXzXMXnX{ { _ =.;.o :X>XwXqXwX;XC N ,X<X-X0X7X=X5X0X1X,X<XV 2 ' =.( 1.*.[ [ ( [ [ [ [ [ [ ^ [ [ [ [ [ [ ",
"[ [ [ [ { [ [ :.>.{ MXNXxXxXMXnX] { ( -.-.5 (.8X=X2X-X;X,XB F <XwX=X=X0X1X0X0X2X:X`.# w &.[ *.*.[ [ [ [ [ [ [ [ [ _ [ [ [ [ [ _ ",
"[ [ [ [ [ [ [ :.[ =.] +.MXBXO.O.{ { { ' %.@ Z :X2X1X7X-X-X(.N <X;X7X5X5X0X1XqX1X,X:X_.+ ;.&.&.=.*.[ [ [ [ [ [ [ [ [ [ [ [ [ [ [ ",
"[ [ [ [ [ [ [ ^ [ *.{ 3.nXnX2.=.( { J & 7 5 4 :X2X-X0X-X6X8XH N :X9X;X7X-XwX0X=X,X(._.# + T &.] { [ [ [ [ [ [ [ [ [ [ [ [ [ ^ [ ",
"[ { [ [ [ [ [  .[ ' @.2.] ) =.( =.=.& %X X&X4 3X,XwXqX-XwX=X,X<XN F 9X-X-X-X8X:X3XB @ # + 2 3.=.[ [ [ [ [ [ [ [ [ _ [ [ [ } [ _ ",
"} [ [ ` { [ [ } *.{ ] { =.=.^ *.*.< 7.OX XeXV (.;XwX=XqX=X=X,X,X4XC C N 4X3X3X_.# @ ).&X7.7 ^ *.[ [ [ [ ^ [ [ [ [ [ [ [ [ [ [ [ ",
"_ [ [ { [ [  .^ [ { [ { ' [ [ :.*.< XX|.yX X4 (.>X0X1X0XqX1X>X2X,X,X,XH N N @ # + &X&X&X&X< } _ [ [ [ [ [ [ [ [ [ [ [ [ [ [ [ [ ",
"[ [ [ ` { [ [ [ [ [ { { [ [ [ ^ &.1 #XXX$X&X4 ].;X7X=XqX0X0X5X>X2X2X2X2X,X).# o }.#X@X@XXXd f _ [ [ [ [ _ } [ [ [ [ [ [ [ [ [ [ ",
"_ } [ { } [ } ^ [ [ { [ *.^ [ *.-.K & %X@X,.4 ).9X9X>X0X=X5X0X6X>X>X1X<X<X`.# 2 7.@X$XXX%X* K _ [ [ _ [ [ [ [ [ [ [ [ _ [ [ [ [ ",
"} _ [ ` [ [ [ [ } { [ [ [ } ^ *.' &.u 8 < 7 5 `.(.9X;X6X5X6X6X;X[.6X;X:X`.D 6 A < 3 & < < 1 { { [ [ [ [ [ [ [ [ [ [ [ } [ [ _ [ ",
"~ } [ [ [ [ [ [ ` [ [ [ *.[ { [ *.*.{ &.' ;.1.2 '.(.9X9X[.[.].].[.].(.`.V 6 <.-.*.*.' ' %.=.L -.[ [ [ [ [ [ [ [ [ [ [ ^ [ [ [ [ ",
"} [ [ [ [ _ [ [ { { [ [ } ^ ` [ :.[ ' *.;.-.%.S 5 O 4 V 4 4 6 6 7 5 5 w w 5.;./ *.*.-.=.*.=.=.=.{ [ [ [ [ [ [ [ [ [ [ [ [ [ [ [ ",
"[ [ [ { [ [ } [ } ` [ [ ^ } { [ ~ } } { *./ <.;.T w &X&X&X&XZ 2 aXw w 5.3.&.[ :.[ *.' -.*.%.*.( [ [ [ [ _ [ [ [ [ [ _ [ [ [ [ [ ",
"[ [ ` { [ [ [ [ [ [ [ }  .^ } [ ` [ [ } *.*.1.;.+ p @X&X&Xf < #XpX7 + 3.' =.{ [ { ` { [ *.[ } } [ [ [ [ [ [ [ [ [ [ [ [ [ [ [ [ ",
"[ [ [ [ _ [ [ [ [ [ ^ ^  .} { [ ` ` ` ` ( @.] * 9 pX#X$X@X% XX$X&X7 8 K { ( } ` { [ ( =.( } [ ^ [ [ [ [ [ [ [ [ [ [ [ [ [ ^ } _ ",
"[ } [ [ [ [ ~ ` { [ } ~ } } ` ` ` ` X.X.#.b q * m.iX%X3 3 S $X X X$X< , ' { ` | { { [ ` [ } *.*.^ ^ } _ [ { { [ { ( } [ [ } ( } ",
"( >.[ ^ [ } _ { [ _ _ } ` _ ] ` X.o.$.h.k.k.4.M.m.pXpX1 -.% $X XtXyXK * @.( { [ [ } ` [ } ^ [ *.} } [ { { { { ` } [ :.} [ [ ^ [ ",
"[ _ ^ [ [ [ [ [ } ^ } [ ` | #.#.U Y l.a.~.L.a.s.m n.8 ; =.8 r.OX|.r.m.; b O.| _ [ [ } _ _ _ [ [ ^ { ' [ ( { ~ } ~ }  .^ [ [ [ { ",
"^ } :.:.{ *.` [ [ [ [ | ` X.v.m Y h.z.~.S.U.~.a.l.I > +.O.8 e r.e.m.M.d.j.o.X...[ ^ { ` _  . ._ _ *.=.=.[ [ [ [  .^ ^ :.=.=.] { ",
" .[ ^ *.*.[ ` [ } [  ...X.j.s.s.s.s.A.S.W.I.U.D.^.k.4.+.3.] , pXM.j.s.s.g.h.o.` [ } [ [ [ ` _ [ } [ ( [ { [ [ :.^ :.^ [ [ { ( [ ",
":.^ *.*.*.[ } [ _ _ | @.j.i.~.F.z.y.D.C.Z.Z.V.U.~.M v.+.+.+.; b i.s.~.~.J.p.m o.` [ [ { { [ [ [ ^ } [ ` [ { ;.%.1.' >.[ [ [ =.{ ",
"^ ( :.*.%.[ [ [ e._ @.m h.~.S.U.S.D.U.C.Z.Z.Y.T.~.d.b b J I I j.N.~.S.P.R.J.s.j.X.) { ] *.&.*.*.} ^ } _ [ @.L BXmXmXL { ` } ( [ ",
"[ { *.7.}.=._ e.e._ @.x l.L.Y.V.U.C.C.C.C.Y.S.D.g.h.k z x k j f.A.F.R.P.Y.D.H.s.o.#.] { *.*.*.[ ^ *._ } ` O.U NXNXNX4.O.{ ~ [ } ",
"[ [ *.*.@X{.e.8.{ n.n.g k.H.P.I.I.I.I.B.U.D.W z.b.j x g h.s.p.z.y.~.C.Y.C.P.~.a.h.s b J ( ' >.[ { ( *.%.2.vXbXlXlXlXbXMX3.' [ [ ",
"` [ ^ :./ #XoX8.9.n.y z d.g.J.T.I.W.P.T.D.z.g.j k x h l.N.K.K.F.y.U.C.C.C.U.E.N.k.l t e e K ^ [ { =.%.' 2.MXbXcXcXcXNXMX3.%.:.^ ",
"_ } ^ } *./ iXuXA a t y z j.f.u.K.R.T.J.L.f.v c z x a.H.S.P.P.I.Y.C.C.C.V.P.K.g.M l i u f 9 { { ( 2.*.1.=.vXbXkXlXlXbXBX%.*.[ ^ ",
"`  .{ ^ :.=.' J u p a t i z x d.z.b.L.p.k.n c y y k l.H.U.I.R.W.Z.Y.C.U.P.R.fXg.k 0 i t p u { { { ( *.*.*.@.o.bXbXbXU 3.=.:.^ } ",
"( | ( } :.' =.d r t A p t t i s M v.h.j.: 0 y t t c i.z.J.R.P.W.T.D.D.K.y.z.g.v.z a t u u d &.[ { [ } ^ [ =.] vXvXMX] &.[ ^ } } ",
"[ } ( } ( =.=.J a t r p p t i y y k g q q 0 t a a 0 k h.z.F.L.A.p.x.a.s.g.k.k z a u a p a J =.[ ` [ :.[ :.' ` @.@.` =.*.[ *._ ~ ",
"*.{ } { { { ] ' r u r u t t a y c c i t i t A t d 0 l g d.f.g.f.k k s l k : c y e u t e u @.{ [ [ [ [ *.' =.{ ` ` { ' ' *.[ _ } ",
"=.( { [ { ( { ] e e e t t t y c y 0 a u u p t t u 0 q z g h v k y a 0 i y 0 i t p r p J 2.] [ [ } ` *.-.&.] { [ ` } *.1.*.=.` ` "
};
