/* XPM */
static char *walls5[] = {
/* columns rows colors chars-per-pixel */
"64 64 255 2 ",
"   c #053500",
".  c #357B1A",
"X  c #307512",
"o  c #1D763D",
"O  c #1D6938",
"+  c #376F2C",
"@  c #2B7622",
"#  c #2C7B24",
"$  c #2D7B2C",
"%  c #28772A",
"&  c #327D2C",
"*  c #377727",
"=  c #257634",
"-  c #2C7B33",
";  c #24753C",
":  c #2B753C",
">  c #24793C",
",  c #2B7B3B",
"<  c #287734",
"1  c #337B33",
"2  c #33763A",
"3  c #337B3C",
"4  c #357635",
"5  c #2A6C30",
"6  c #154F25",
"7  c #557F12",
"8  c #437A2A",
"9  c #4B7E31",
"0  c #1A4B4C",
"q  c #184A4A",
"w  c #1C4554",
"e  c #1A4B53",
"r  c #1E465A",
"t  c #1D4959",
"y  c #164754",
"u  c #1C5254",
"i  c #235E4B",
"p  c #234455",
"a  c #22445B",
"s  c #224852",
"d  c #255A56",
"f  c #1E654A",
"g  c #1E6944",
"h  c #1F7543",
"j  c #1F6753",
"k  c #23654C",
"l  c #24694D",
"z  c #266948",
"x  c #237644",
"c  c #2D7445",
"v  c #247B43",
"b  c #2B7A42",
"n  c #25744C",
"m  c #2B754C",
"M  c #28794A",
"N  c #31734B",
"B  c #357747",
"V  c #256452",
"C  c #296354",
"Z  c #246A52",
"A  c #2A615B",
"S  c #2B6C56",
"D  c #2D7353",
"F  c #2C7558",
"G  c #317454",
"H  c #357657",
"J  c #376F4A",
"K  c #366E63",
"L  c #244661",
"P  c #3A8318",
"I  c #2D802D",
"U  c #33822C",
"Y  c #398528",
"T  c #2C8039",
"R  c #368335",
"E  c #538912",
"W  c #49892B",
"Q  c #468836",
"!  c #5B9736",
"~  c #588E34",
"^  c #628B3D",
"/  c #658B39",
"(  c #6D922C",
")  c #6BAA2B",
"_  c #75AE2C",
"`  c #7BAC2C",
"'  c #77AB25",
"]  c #6DB22E",
"[  c #74B32D",
"{  c #7CB42C",
"}  c #77B327",
"|  c #6CAE33",
" . c #6BAF3B",
".. c #64A835",
"X. c #74AD34",
"o. c #72AD3B",
"O. c #7AAE37",
"+. c #6DB334",
"@. c #6CB33C",
"#. c #68B439",
"$. c #73B334",
"%. c #7BB434",
"&. c #73B43B",
"*. c #79B43A",
"=. c #73B93B",
"-. c #7BB938",
";. c #69A325",
":. c #2F844D",
">. c #5E8A42",
",. c #5B8B4D",
"<. c #55894C",
"1. c #589546",
"2. c #4F8E5B",
"3. c #4E8954",
"4. c #548554",
"5. c #548C55",
"6. c #5B8C54",
"7. c #548C5B",
"8. c #598C5C",
"9. c #5A8656",
"0. c #539155",
"q. c #5C9153",
"w. c #54905B",
"e. c #5B925D",
"r. c #599A58",
"t. c #4C8F48",
"y. c #628B44",
"u. c #628A49",
"i. c #68954A",
"p. c #638D54",
"a. c #70984B",
"s. c #59A748",
"d. c #5FA953",
"f. c #68AC48",
"g. c #77A749",
"h. c #6CB443",
"j. c #65B34B",
"k. c #6AB44B",
"l. c #68B747",
"z. c #72B443",
"x. c #77B848",
"c. c #64AD57",
"v. c #65B353",
"b. c #6AB452",
"n. c #69B559",
"m. c #73B553",
"M. c #76B958",
"N. c #74A758",
"B. c #558C61",
"V. c #5A8B63",
"C. c #538560",
"Z. c #5B9161",
"A. c #4F8E61",
"S. c #689C66",
"D. c #759C69",
"F. c #73B562",
"G. c #73AC6F",
"H. c #85B52B",
"J. c #84B738",
"K. c #92BC3C",
"L. c #84AA32",
"P. c #93C43B",
"I. c #8AC539",
"U. c #86B943",
"Y. c #8EB752",
"T. c #9ABA6B",
"R. c #8BB37B",
"E. c #95B977",
"W. c #89B164",
"Q. c #A0B75F",
"!. c #8BC547",
"~. c #95C646",
"^. c #9AC856",
"/. c #93D055",
"(. c #A9C659",
"). c #A8D756",
"_. c #B3DD54",
"`. c #BDDD5B",
"'. c #B9DA56",
"]. c #ACD14E",
"[. c #BDE45B",
"{. c #BBEA5B",
"}. c #BAE757",
"|. c #AFE258",
" X c #8AC161",
".X c #91CA75",
"XX c #A9CD67",
"oX c #AAD868",
"OX c #BDDD62",
"+X c #B4DA67",
"@X c #ABD678",
"#X c #B5D876",
"$X c #ADCC74",
"%X c #ACE467",
"&X c #B4E365",
"*X c #BCE463",
"=X c #BCEC63",
"-X c #B4E469",
";X c #BCE46B",
":X c #BBEA6C",
">X c #B3EA68",
",X c #ADE678",
"<X c #B5E674",
"1X c #B9E677",
"2X c #C4DB55",
"3X c #C3DC5C",
"4X c #CADD5C",
"5X c #C5DB54",
"6X c #D5DE5E",
"7X c #C7E54D",
"8X c #C4E554",
"9X c #CAE354",
"0X c #C4E954",
"qX c #CAE855",
"wX c #C3E35B",
"eX c #CCE45C",
"rX c #C4EA5B",
"tX c #CAE95C",
"yX c #D3E15E",
"uX c #D0E959",
"iX c #C3DD63",
"pX c #CADD63",
"aX c #C4DC6A",
"sX c #C3DC76",
"dX c #D4DF67",
"fX c #C3E363",
"gX c #CCE264",
"hX c #C2E964",
"jX c #C3E36B",
"kX c #CBE26B",
"lX c #C2E96B",
"zX c #CAE864",
"xX c #D2E364",
"cX c #D0E46B",
"vX c #C4E273",
"bX c #CBE372",
"nX c #C5E47A",
"mX c #D3E275",
"MX c #8DB583",
"NX c #87B987",
"BX c #91B682",
"VX c #93BA86",
"CX c #9AD38E",
"ZX c #A4D483",
"AX c #A7D589",
"SX c #B5DA85",
"DX c #A6D796",
"FX c #ABE888",
"GX c #B9E585",
"HX c #AAED93",
"JX c #BAE393",
"KX c #C0DF81",
"LX c #C4E483",
"PX c #C6E58A",
"IX c #CCE891",
/* pixels */
"7.2.7.7.8.7.5.7.5.0.7.7.7.7.7.7.7.7.7.7.7.7.7.7.7.7.7.7.7.7.7.7.7.7.7.7.7.7.7.7.7.8.7.7.7.7.2.7.7.7.5.7.7.7.7.7.7.8.7.7.8.8.7.8.",
"7.7.7.7.7.7.7.5.7.7.8.7.8.7.7.7.7.7.7.7.7.7.7.7.7.7.7.7.7.7.7.7.7.7.7.7.7.7.8.7.7.7.7.7.7.7.7.7.7.7.7.7.7.7.7.7.7.7.8.7.5.7.7.7.",
"8.8.7.7.8.7.7.7.7.7.7.7.7.7.7.7.7.7.7.7.7.7.7.7.7.7.7.7.7.2.7.7.7.7.7.7.7.7.7.7.7.7.7.7.7.7.7.7.7.7.7.7.7.7.7.7.7.7.7.7.7.7.7.7.",
"8.8.7.7.7.7.8.8.8.7.7.7.8.7.8.8.7.7.7.7.7.7.7.7.7.7.7.7.7.7.7.7.7.7.7.7.7.7.7.8.7.7.7.7.7.7.2.7.7.7.7.7.7.7.7.7.7.7.7.7.7.7.7.7.",
"7.B.2.7.B.7.7.8.B.8.B.7.7.B.7.7.7.7.7.7.7.7.7.7.7.7.7.7.7.7.7.7.7.7.7.7.7.7.7.7.7.7.7.7.7.7.7.7.2.7.7.7.2.7.7.2.0.7.7.7.7.7.7.0.",
"7.7.7.B.B.7.B.7.8.7.7.7.2.7.7.V.7.7.7.7.7.7.7.7.7.7.7.2.7.7.7.7.7.7.7.7.7.7.7.7.7.7.7.7.7.7.7.7.7.7.7.2.7.7.7.7.7.2.7.2.7.7.7.7.",
"8.7.7.7.2.7.7.7.7.B.7.2.7.7.7.7.7.7.7.7.7.7.7.7.7.7.7.7.7.7.7.C.7.7.7.7.7.7.7.7.7.7.7.7.7.7.7.7.7.7.7.7.7.7.7.2.7.7.7.7.7.7.2.7.",
"7.7.7.7.7.7.7.8.7.7.7.7.7.7.7.7.7.7.7.4.2.7.7.7.7.7.7.7.7.7.7.3.4.7.7.7.7.7.7.7.7.7.7.7.7.7.7.7.7.7.7.7.7.7.7.7.7.7.7.7.7.7.7.7.",
"7.7.7.7.8.7.8.8.8.4.8.8.5.7.7.7.7.7.7.7.7.7.7.7.7.7.7.7.7.7.7.7.7.7.7.7.7.7.7.7.7.2.8.7.7.2.7.7.8.7.8.7.8.8.7.B.7.7.7.7.7.7.7.7.",
"8.8.V.8.8.9.4.V.8.NX8.8.8.9.7.7.7.7.7.7.2.7.7.7.7.7.7.2.7.7.7.7.7.7.7.7.7.7.7.7.2.8.7.7.7.8.8.7.7.7.8.8.7.w.8.B.7.8.8.7.7.7.7.7.",
"7.4.G.VXD.6.9.9.MXMX4.MXNXMX7.w.7.7.7.7.7.7.7.7.7.7.7.7.7.7.7.7.7.7.7.7.7.7.7.7.7.7.2.3.V.7.8.8.7.8.S.B.7.7.8.S.7.7.8.7.7.7.7.8.",
"7.7.9.MXMXMXp.BXD.VXMXD.MXG.8.5.7.7.7.7.7.7.7.7.7.7.7.7.7.7.7.7.7.7.7.7.2.w.7.2.7.7.7.7.8.2.NX7.7.8.NX7.8.8.2.NX8.7.7.8.7.8.7.7.",
"7.7.p.9.MXBXp.BXBXBXVXVX4.9.V.7.2.7.7.7.7.7.7.7.7.7.7.7.7.2.7.7.7.7.7.7.2.7.7.7.7.7.7.7.B.4.NX7.7.8.NX8.8.7.2.NX8.7.7.7.7.7.7.7.",
"7.8.8.8.S.BXBXD.R.R.MX9.9.8.9.7.7.7.7.7.7.7.7.7.7.7.7.7.7.7.7.7.7.7.7.2.7.7.7.7.7.7.7.4.8.7.8.7.9.V.7.2.8.3.8.8.7.7.7.7.7.7.7.7.",
"B.7.3.8.9.R.BXBXR.BXp.4.e.2.B.2.7.7.7.7.7.2.7.7.7.7.7.7.7.7.7.7.7.7.7.7.7.2.7.2.7.8.2.7.7.7.V.7.7.7.8.8.7.7.7.7.7.7.7.7.2.7.7.7.",
"7.w.8.7.9.4.BXR.BXp.6.9.7.7.2.8.7.7.B.7.7.9.7.7.7.2.7.7.7.7.7.7.C.2.7.7.7.7.7.7.7.7.7.7.7.7.8.8.7.7.7.7.7.7.7.2.7.7.2.w.7.7.2.7.",
"8.7.7.5.7.w.9.G.9.9.8.V.8.8.2.2.A.7.B.7.8.9.7.7.2.7.7.5.7.2.B.B.7.7.8.7.7.8.8.2.7.5.7.V.V.B.0.3.7.5.8.9.7.B.2.2.2.0.0.2.2.A.2.V.",
"9.5.8.5.5.5.8.7.8.8.8.9.7.B.2.2.A.7.8.7.8.8.7.7.8.3.3.e.8.7.Z.w.8.8.5.8.V.7.2.7.0.8.V.V.C.B.A.7.7.8.8.8.7.7.2.2.2.7.5.3.0.7.7.B.",
"7.e.5.5.0.7.w.w.7.7.7.7.7.7.B.A.2.2.0.5.7.9.7.8.7.7.V.9.4.0.6.,.<.6.6.6.5.7.B.7.7.2.4.B.V.V.4.8.7.8.8.8.V.B.B.7.8.4.6.,.6.9.p.>.",
"6.,.,.q.5.5.8.2.7.7.7.5.8.7.7.B.7.7.7.7.5.7.7.B.B.7.5.p.u.>.y.^ >.y.>.q.9.9.B.2.2.7.V.7.B.V.7.7.B.C.7.8.7.B.C.8.4.p.u.y.^ ^ / y.",
"^ ^ y.>.,.6.5.w.7.2.7.7.7.7.7.7.B.B.7.7.0.7.7.B.V.V.p.u.i.LXLX1X1XLXSXa.>.6.4.7.2.3.7.w.7.8.8.5.7.7.5.0.7.7.8.8.p.u.a.PXLXKXLXsX",
"GXPXKXKXPXi.,.7.7.7.0.5.5.7.7.7.C.B.8.7.7.7.B.B.C.p.u.T.PXnXjXkXbXnXnXPXXXy.6.0.0.0.5.7.7.5.8.8.B.7.5.5.0.7.8.6.u.T.IXsXnXnXmXcX",
"bXaXmXmXsXIXT.,.q.7.0.5.6.5.7.7.V.V.B.7.2.2.A.B.8.6.y.PXaXkXgXeXyXxXxXaXPX/ i.r.<.3.0.5.5.7.7.7.7.7.5.5.5.0.6.,.W.PXaXbXcXpXxXeX",
"cXgXdXdXmXaXPXi.i.q.6.6.5.7.8.B.V.C.8.w.2.2.A.2.9.u.a.LXbXxXeXyX6XxXxXpXnXY.@XAXDXq.0.e.3.w.7.B.B.7.5.5.5.5.6.,.T.sXsXcXxXeXyXxX",
"gXxXxX6X6X6XbXY.#XZXDX9.5.7.7.B.7.w.8.7.2.2.2.0.<.^ $XnXbXcXxXeXgXyXyXpXaXXX#XZXDXDX6.p.7.7.B.7.B.B.4.5.9.9.D.u.#XsXgXxXxX6XxXgX",
"pXxXyXyX6X4XcXXX$XSXAXAX6.7.7.5.2.3.2.7.7.7.0.0.1.~ LXsXiXpX3XiXxXgXyXpXdXmX(.#XAXAXDX<.9.8.5.V.7.B.8.8.9.VXW.T.KXbXgX5X4X4XxXgX",
"aXiXyXyXyX5XgXjXQ.#XZXCXHX4.q.5.0.2.7.8.8.8.6.u./ ( L.aXpXiX3XOXiXgXiX4X2XpX(.XX@XAXAXR.,.p.q.7.w.7.7.8.BXR.Q.Q.(.iX5X4X5X3XiXkX",
"*X`.iXeXgX2X4XgX(.XXSXZXZXR.,.0.5.2.7.B.9.6.p./ T.(.aXpXiX`.iXOX`.aX3X4X4X4X].(.#X@XAXAXDX6.q.5.5.3.8.9.R.T.$X#XaXpXpX4X2X2X3XaX",
"fX'.`.fXiXeX4XpX'.Q.@X@XZXZXAXi.6.0.B.V.V.9.u.T.+XjX;XhX[.iX3XOX`.`.pX4X4XeXwX'.+XXXZXAXZXDXt.0.<.0.5.6.^ T.#X;X*X`.wX'.3X3XfX'.",
"3X3XfXOXiXfX4X4X4X'.oX@XFXZXZXAX<.e.7.B.V.9.y.oX#X:X_.I.).*X`.3X`.`.4X5X5X5X8XhXoXU. XZXDXDXCXS.0.5.w.,.,.$X;X*X_.P.].*X3X'.wX3X",
"5X2XiXOX`.3X4X9XeX8X+XO.Y.@XAXZXDXq.2.w.3.5.^ @X-X' ] } ' ' iX3X2XwX2X4X5X7X'._.oXO. XZX.XCXG.A.2 5.5.q.^ @X&X' _ [ %.' [.[.`.3X",
"3X3XOXiXiX3X5X5X5X'.+X_ ^.@XXX@XY.1.4 t.1.t.!  X$.[ $.) $.[ &X[.[.`.4X4X5X'.'.|.~.@.W r.G.n.r.9 1.N.a.1.! /.) [ ] ] ] _ &X&X`.OX",
"+X+X&X[.3X2X5X_._.+X^._ ( lX*X=XvXE ( x...! z.@.=.$.] ] $.$.] $.~.-X{.|._._.|.H.O.m.. 4 1 8 W FX;X;X:X) &. .-.+.@.+.] ] [ [ !.>X",
"*.O.~.=X`.3X8X_.).J.` L.H.[.0X}.wXhX;X:X,X|  .@.+.] +.] ] @.] +.o.J.%X' } } I.{ X.f.b.& * * ! <XzX8XwXK.[ +.&.+.#.| +.] ] ] +.-.",
") -.[ -.|.' } ' I.[ H.' '.8X0XqXtXhX~.K._ *.$. .@.=.) #.| +.+.+.*._ %X[ [ ) $.$.$.h.@.h.x.| 7 hXwXtXwX|.' %.+.$. .#.$.*.+.$.=.$.",
"[ ) [ ] %X} } } } } ' ' tX8X8X7X5XwXwXwX~._ X.| @.h.P ..#.| =.+.[ _ | =.!.+.&.&.+.+.&./.:X:XhXrXeXwX9X0XH.} [ $.X ..@.| @.+.+.$.",
"] [ +.] +.$.!.} { ).{.rX9X9XuX9XuX8XqX}.=X' $.z.k...P j.#.#.+.+.[ [ &. .@.&.&.$.+.$.[ >X=X[.8X9X8X9X7X7X0X{.].) E ..h.&.@.#.+.+.",
"$.+.#.+.| %.{ H.{.rX0XrXeX0X5XqX0X0XrX}.{.}  .h.f.@ Y j.k.l.h.+.$.$.| *.z.o.| X.[ [ [ >X{.{.8X9X9XqX7X7X0X}.{.>XE  .h.h.h.#.+.+.",
"#.#.#.h.&.o.` K.{.0X0X0XqX7XqX0X{.|.P.I./.} *.f.j.. I I Y n.b.l.#.+.&.X.U.:X;X` $.-.] /.I.P.[.wX9X9X7X9XqXqXrX;X... W j.j.k.h.@.",
"j.l.h.@.*.L.U.hXrX0X7X0X0XqX7X0X} } } } [ ] &.h.. Y # U & # @ j.#.=.o.U.;X;X&X*X[ [ [ ] -.} } H.qX7X7X9X7X9XtX*XoXW Y # @ n.f.z.",
". j.k.z.o.x.;XwXqX0X7X7X7X7X7X}.} [ +.+.+.] $.=.,XHXHX& 1 < < # l.#.$.%X*XfXhX*X%.X.+.+.=.+.=.%.wX9X9X9X5XyXeXfX1X& $ < - @ k.z.",
"I @ k. .*.-X;X*XwXqX7X9XqX0X0XH.$.=.@.&.+.$.} >X<X,XHX# 3 b > % l.#.*.).hX[.hX*X~.X.+.+.+.+.#.+.H.qX9XqX9X8XeXlXFXY 3 > = $ f.z.",
"% @ k.l. .%X%X:X=XwXeX9XwX[.}.H.-.&.@. .$.{ ' =X:X<XFX1 , ; h , k.-.$.).*X[.hX;XK.L.X.$.| &.#.=.H.rX[.qXtXrX[.:X,X% b b o % b.&.",
"o I v.k.k...X E &XlX[.wXhX{.hX{ [ $.&.&.$._ K.=XlX:XFX& , v h < f.&.X.].*XhXfX;X;XK.` ` ` $.@.+.[ >X{.{.{.{.>X%XX , b x > % v.h.",
"; = c.f.W P I P  .) J.H.H._ { =.[ +.=./.<X:X=X*X*X<XFX1 - o h > m.o.J.U.jX;X;XlX;X*X;X+X^.} $.=.=.[ { { [ %.) ..U T c O > $ n.j.",
"; = b.b.W P I @ j.h.X.$.*.$.=.+.] *.-.!.%X;XfXfXvX<XHX# , v v = 1.z.o.-.:X;X;X;X;XlX*X*X~.%.$.+.+.$.$.$.| z.#.j.I - B 5 < 5 s.v.",
"; $ f.m..XQ I I s.l.+.+.+.+.@.@.=.+.| x.&X*XhXjX;X,XHX$ T h h , 1.k.z.-.&X;X;X;X;X;X;X:XJ.$.$.#.=.+.-.*.&.h.l.s.$ $ 9 G.6 + 1.v.",
"= - ! GX1XGX& # I n.l.h.h.h.l.#.@.@.+.&.%.~.K.J.J. X* T > M x ; I I x.z.!.J.J.J.J.U.!.{ &.&.+.+.=.@.@.z.k.v.v.$ & 8 JXSXGX* # I ",
": 5 g.1XvX<Xx.Y & $ & & # v.v.j.@.=.@.@.&.$.} $.=.f.& b h n :.o ; % Y k.h.&.$.*.&.&.=.=.+.&.=.@.l.n.j.@ 1 , - 1 * X #XnXLX9 + 4 ",
"4 + W.1XkXfX+X! * T < , 1 - # n.h.@.h.h.#.+.] $.z.v.< b h h h o > ; $ v. .@.@.&.&.@.@.#.@.+.&.h.n.@ $ 3 : ; 3 4 9 XXjXkXaXg.+ 2 ",
"+ * GXjXfXfX*X,Xf.$ - T < T , I l.#.l.h.#.#.#.l.v.c.< M h :.h v b ; % n.k.k.h.h.h.@.h.@.=.#.@.k.% T , < 2 3 4 1.1X#XzX4XbXKX  + ",
"* g.1XiXeXfXlX<XM.! Q $ = T T o v.l.l.k.v.l.l.n.n.n.= o h M o M x , , c.n.b.b.k.k.j.k.l.j.j.l.d.T T < - $ 5 X ~ 1XjXwXgXaXKX7 9 ",
"g.J.vXjX2XgXOX:Xz.x.M.n.I T o T 1 $ I & U U & - , ; b :.v h M x n n h > < & 1 $ - I I U - $ & - T h T & s.m.x.) -XhXgX'.gXaX( 7 ",
"1XaXiXkX4X3XlX_.%.=.=.k.Y I T M : : b b b c b b B c M x x M M n h n M M x b b b b b b b , , b , :.T , & M.x.-.[ ].hX'.gXgXaXsXsX",
"iXgXgX3XzXwX*X~.{ -.x.x.j.$ x m m N m G m D D D g z g g g z z f f O g g g z g D n n M n n c m x h v - c.x.U.*.{ ~.[.wXgX3XgXpXmX",
"kXiXzX[.[.[.{.{ I.-.=.m.n.1 B m G F F S F F S k g Z z g l l k k g z k l f Z l j F F F F F F F D h M 2 F.m.x.z.J.{ &XfXfXiXkXpXpX",
"jX;X*XlX;.H.H.{ -.=.x.M.1.B N G F F S Z V k k Z k k k k k C C C k l k k C k C k k k k z z S H S m N 2 0.M.k.z.-.J.{ J.E eX*X*XhX",
"^.1XnX%.H.%.-.!.=.x.M.R 3 m G F Z Z k V V Z V f k z k i C C C C C C C A C C V k z k k k l Z G F G N : 4 Q  Xx.&.-.{ J.K.J.;X1XU.",
"8 Q W.m.x.z.x.g.M.F.5 2 c m F f z k V V V V V Z k k C C d A A d d A A A d C C k k k l Z f f k F m N N B c - b.M.x.=.x.z.z.m.W * ",
"2 2 c.M.m.M.M.F.t.4 c m G S z F l Z V C C V V f C C d d d s e y s u t e u d C C V k V V Z k k l Z D n G m B : Q M.M.x.M.M.c.1 4 ",
"N B : 2 3 2 4 2 J N G G S k V k k V C A A d A A d u t w w r t t y y e y e 0 q q C C A V V V z l Z Z f f F m m B 2 4 4 4 B c N G ",
"m D m H N J N k O z k k C C V d C A d d u q q y u t w r a a r t t t t r t y q q s d A A A V k k j j j f Z S H N N N N N N N z G ",
"D G D i k k k z k k z i d K e e 0 0 w 0 w s t r w a a a p p p p w p a a a a e s a w y y e d d k k Z g l k z z S H S G J J J J J ",
"G l k k V V V V k k q q 0 q s w w r p p p r r r r a a a p p s s p p p a a a a a a a L t y 0 i C C k l l z z k C H K H H H J 3.J "
};
