/* XPM */
static char *walls[] = {
/* columns rows colors chars-per-pixel */
"64 64 250 2 ",
"   c #163800",
".  c #35781A",
"X  c #2E6B12",
"o  c #2C7C2C",
"O  c #297727",
"+  c #347C24",
"@  c #337C2C",
"#  c #397927",
"$  c #2B7B34",
"%  c #23763C",
"&  c #237B3C",
"*  c #2B7B3C",
"=  c #297635",
"-  c #337C33",
";  c #32763B",
":  c #347B3C",
">  c #357735",
",  c #2B6B35",
"<  c #206423",
"1  c #577E13",
"2  c #477A32",
"3  c #194B4D",
"4  c #174A48",
"5  c #1C4454",
"6  c #1A4B53",
"7  c #1D465A",
"8  c #1D4958",
"9  c #174654",
"0  c #1E5152",
"q  c #224555",
"w  c #22445B",
"e  c #214952",
"r  c #255B57",
"t  c #275B4F",
"y  c #1E6646",
"u  c #1E7744",
"i  c #1F7A41",
"p  c #226546",
"a  c #226945",
"s  c #24654C",
"d  c #24694C",
"f  c #28694C",
"g  c #237644",
"h  c #2D7444",
"j  c #247A44",
"k  c #2B7A42",
"l  c #25754B",
"z  c #2B744C",
"x  c #2B7A4B",
"c  c #237B49",
"v  c #327444",
"b  c #33744A",
"n  c #367947",
"m  c #256452",
"M  c #296354",
"N  c #256952",
"B  c #2B6D53",
"V  c #29615B",
"C  c #286759",
"Z  c #2C7453",
"A  c #2C7459",
"S  c #327455",
"D  c #337852",
"F  c #377458",
"G  c #316855",
"H  c #306062",
"J  c #32812E",
"K  c #3B8528",
"L  c #2D8132",
"P  c #2A813A",
"I  c #398434",
"U  c #2F812F",
"Y  c #388211",
"T  c #468838",
"R  c #5C8B3C",
"E  c #598832",
"W  c #599339",
"Q  c #4E862C",
"!  c #649238",
"~  c #6A8F30",
"^  c #5EA93A",
"/  c #6DAE2B",
"(  c #69A828",
")  c #74AE2E",
"_  c #7AAC2C",
"`  c #74AD25",
"'  c #6CB22E",
"]  c #73B32D",
"[  c #7BB52D",
"{  c #77B328",
"}  c #69AC35",
"|  c #73AE33",
" . c #7BAF34",
".. c #73AE3A",
"X. c #79A939",
"o. c #6DB334",
"O. c #6DB43C",
"+. c #69B639",
"@. c #72B334",
"#. c #7BB233",
"$. c #73B43A",
"%. c #7AB43A",
"&. c #74B93B",
"*. c #7BBA3B",
"=. c #76B934",
"-. c #6A9210",
";. c #2D8343",
":. c #538C4D",
">. c #5B8B4B",
",. c #588A46",
"<. c #5B914C",
"1. c #599646",
"2. c #4E8B55",
"3. c #4E8D5B",
"4. c #4F8757",
"5. c #548656",
"6. c #548B55",
"7. c #5A8C54",
"8. c #548C5B",
"9. c #5A8C5C",
"0. c #588558",
"q. c #4D915D",
"w. c #539155",
"e. c #55905C",
"r. c #5A915D",
"t. c #5A9354",
"y. c #4A8B42",
"u. c #638C44",
"i. c #638D4B",
"p. c #668845",
"a. c #659646",
"s. c #729846",
"d. c #63875A",
"f. c #6B9D55",
"g. c #5DAA49",
"h. c #5CAD5E",
"j. c #66AD48",
"k. c #6DB443",
"l. c #67B34B",
"z. c #6BB44B",
"x. c #69B746",
"c. c #72B542",
"v. c #78B747",
"b. c #65AC56",
"n. c #6CB452",
"m. c #67B357",
"M. c #75B954",
"N. c #74B958",
"B. c #76A954",
"V. c #4C8E66",
"C. c #558D62",
"Z. c #5A8D61",
"A. c #528963",
"S. c #599262",
"D. c #649A67",
"F. c #6E8C62",
"G. c #74A776",
"H. c #73B06A",
"J. c #86B52C",
"K. c #86A73C",
"L. c #83B53C",
"P. c #86B837",
"I. c #90BA3E",
"U. c #8BC33A",
"Y. c #97CA3D",
"T. c #85B845",
"R. c #88B455",
"E. c #8FB453",
"W. c #98BE69",
"Q. c #84AC79",
"!. c #8DB37C",
"~. c #93B37D",
"^. c #98B57F",
"/. c #8AAE6F",
"(. c #89C347",
"). c #94C648",
"_. c #99C955",
"`. c #98D853",
"'. c #8EC55F",
"]. c #A7D557",
"[. c #B3DD54",
"{. c #BDDC58",
"}. c #ADCF52",
"|. c #BCE35C",
" X c #BAE858",
".X c #ACE15B",
"XX c #90C56C",
"oX c #A8CA65",
"OX c #AAD766",
"+X c #B7DB67",
"@X c #A8D57A",
"#X c #B3D877",
"$X c #AECC74",
"%X c #ADE267",
"&X c #BCE564",
"*X c #BDEB64",
"=X c #B4E46C",
"-X c #BBE46B",
";X c #BBEB6C",
":X c #B5E866",
">X c #BCE573",
",X c #BBE37C",
"<X c #B5E777",
"1X c #AFE96F",
"2X c #C3DD5C",
"3X c #CADD5D",
"4X c #C3D854",
"5X c #C5E44E",
"6X c #CBE44D",
"7X c #C8E84F",
"8X c #C5E454",
"9X c #CBE553",
"0X c #CAE954",
"qX c #C3E45C",
"wX c #CBE45C",
"eX c #C6E95A",
"rX c #D1E15E",
"tX c #D1E34E",
"yX c #C3DD63",
"uX c #C3DD6C",
"iX c #C9DD62",
"pX c #C2DE77",
"aX c #C3E463",
"sX c #CBE364",
"dX c #C3EA62",
"fX c #C3E36B",
"gX c #CBE26C",
"hX c #C2E96C",
"jX c #D1E367",
"kX c #C4E274",
"lX c #CBE472",
"zX c #C4E578",
"xX c #84B684",
"cX c #8BB583",
"vX c #87B988",
"bX c #92B783",
"nX c #9AD38E",
"mX c #A7D588",
"MX c #A6D896",
"NX c #B3DB82",
"BX c #ACE884",
"VX c #B5E689",
"CX c #B0F091",
"ZX c #C0DF88",
"AX c #C5E484",
"SX c #D3D6B9",
"DX c #EBFFE6",
"FX c #F4FFE6",
"GX c #FAFFE5",
"HX c #F4FBDC",
/* pixels */
"8.8.8.8.8.6.8.8.8.8.8.9.8.8.8.8.q.6.8.6.8.8.8.8.A.8.8.A.8.8.8.8.8.8.8.8.8.9.8.8.8.9.8.8.8.8.q.8.8.8.8.8.8.8.8.8.8.9.8.8.9.9.0.8.",
"8.8.8.8.8.8.8.8.9.8.8.0.8.8.8.8.8.8.8.e.8.8.9.C.9.9.8.8.8.8.8.9.8.8.8.8.8.8.8.9.8.9.8.8.8.8.8.8.8.8.8.8.8.8.8.8.8.8.7.8.8.8.8.8.",
"9.8.8.8.8.8.8.8.8.8.8.9.8.9.8.8.e.6.8.8.8.8.8.8.9.A.8.8.8.8.8.8.8.8.6.8.8.8.8.9.8.8.3.8.8.6.8.8.8.8.8.8.8.8.8.8.8.8.8.8.8.8.8.8.",
"8.8.8.8.8.8.8.8.8.8.9.8.8.8.6.9.8.3.8.e.3.8.8.8.9.8.8.8.8.8.8.8.8.8.8.8.6.8.8.8.8.8.8.8.8.8.q.8.8.8.8.6.3.8.8.6.8.8.8.8.8.8.8.8.",
"9.9.9.8.8.8.8.8.8.8.8.8.8.8.8.8.8.8.8.8.3.8.3.8.8.3.e.3.8.8.e.2.8.8.8.8.8.8.8.8.8.8.8.8.8.8.8.8.3.8.8.e.3.8.8.e.8.8.8.8.8.8.8.q.",
"8.0.8.8.6.9.8.8.8.8.8.8.8.8.8.8.8.8.6.8.8.e.8.8.8.8.8.8.8.8.8.8.8.8.8.8.8.8.8.8.8.8.8.8.8.8.8.8.8.8.8.3.8.8.8.3.8.8.q.8.e.8.8.8.",
"8.8.8.8.8.8.8.8.8.8.8.8.e.8.e.8.8.8.8.8.8.8.8.8.8.8.e.8.q.8.8.8.8.8.8.8.8.8.8.8.8.8.8.8.8.4.8.8.8.8.8.8.8.8.8.8.8.8.8.8.8.8.8.8.",
"8.8.8.8.8.9.9.8.6.8.8.8.8.8.8.0.9.8.8.8.8.8.8.8.8.3.8.3.8.8.q.8.5.8.8.8.8.8.8.8.8.8.8.8.8.8.8.8.8.8.8.8.8.8.8.8.6.8.8.8.8.6.q.8.",
"q.8.C.8.C.8.C.3.9.9.0.Z.Z.DXDXd.Z.5.9.8.Z.5.8.8.8.8.8.8.8.8.8.8.8.8.8.8.8.8.8.8.8.8.9.4.3.8.8.9.8.9.9.9.8.8.8.8.8.8.8.8.8.8.8.8.",
"C.8.3.8.3.8.8.8.8.C.Z.d.d.FXGXd.9.Z.0.5.8.9.S.2.6.8.8.8.8.8.8.8.8.8.8.8.8.8.8.8.2.e.8.e.8.e.9.8.8.8.8.r.0.8.8.8.8.8.9.8.8.8.8.6.",
"8.8.C.8.8.8.8.C.4.Z.0.DXFXSXSXGXDX0.Z.A.8.8.5.S.e.8.8.8.8.7.8.8.8.8.8.8.8.8.8.8.9.8.8.4.r.0.S.9.0.9.D.S.8.9.9.G.8.9.8.8.8.8.8.9.",
"8.C.8.8.q.C.8.8.C.9.d.FXGXSXSXHXDX0.Z.8.9.C.0.9.6.8.8.8.8.8.9.8.8.8.8.8.8.q.8.8.8.3.9.8.S.4.xX9.9.e.xX0.r.8.8.xX8.8.8.9.9.9.8.8.",
"8.8.8.8.A.8.8.9.9.A.0.d.d.GXGXF.0.Z.Z.0.8.5.9.8.e.8.w.8.8.8.8.8.3.8.8.8.e.3.e.3.8.3.8.8.e.8.xX8.8.8.vX8.8.8.5.vX8.8.8.8.8.8.8.8.",
"8.C.8.A.8.9.9.A.C.0.Z.9.d.DXFXd.Z.Z.0.8.8.8.8.8.8.8.8.8.6.8.8.9.8.8.8.3.8.8.8.8.8.9.8.4.9.5.9.8.8.9.8.8.9.4.r.8.8.8.8.8.8.8.8.8.",
"8.8.9.8.A.9.9.A.8.3.A.8.A.0.0.d.8.8.Z.8.9.2.8.8.w.8.8.w.8.8.9.9.8.8.8.8.8.3.8.3.4.e.8.8.8.8.9.8.0.8.9.Z.8.8.8.8.8.8.8.8.3.w.8.8.",
"C.8.9.A.0.9.9.8.8.S.8.0.A.A.A.A.C.C.8.8.8.8.e.3.8.8.3.8.8.8.C.C.8.8.8.8.8.8.e.6.8.8.9.8.A.9.9.8.9.8.5.8.r.8.8.8.8.6.8.8.8.8.8.8.",
"8.8.8.8.A.C.9.8.8.8.8.8.e.3.8.3.C.8.8.8.8.8.8.8.5.e.6.w.2.3.V.A.8.8.9.8.8.8.8.8.e.5.Z.A.C.S.8.3.3.e.C.8.8.8.8.8.0.e.9.6.8.8.8.8.",
"8.8.8.8.9.8.8.8.8.8.8.8.8.8.8.8.C.3.8.8.8.8.8.C.C.8.2.e.e.8.Z.A.C.9.5.9.Z.8.8.8.e.0.Z.Z.A.A.e.3.C.8.C.3.8.C.9.8.9.6.e.6.9.9.8.9.",
"8.8.3.8.8.A.3.8.8.8.e.6.6.e.8.8.C.C.8.0.9.A.C.C.C.8.9.7.:.>.7.7.:.7.7.7.5.8.S.3.3.6.8.C.Z.A.2.9.8.8.8.8.3.8.8.3.8.6.8.8.8.C.8.8.",
"8.e.8.8.8.8.8.8.w.8.8.8.8.8.8.8.C.8.8.9.9.A.C.C.V.9.5.i.i.p.u.u.u.u.,.i.7.0.C.3.3.e.Z.0.0.Z.8.9.8.8.8.8.8.C.8.C.9.8.8.9.8.9.3.3.",
"8.8.8.8.8.8.8.8.9.8.8.8.0.8.8.8.C.9.6.7.7.8.8.V.C.9.7.u.s.ZXAXzXZXAXVXs.i.i.5.e.3.2.e.8.8.9.9.6.6.9.8.8.8.8.8.8.8.C.8.e.8.C.3.9.",
"8.e.6.e.8.8.8.6.8.8.8.8.8.8.9.9.C.9.6.w.5.8.q.C.8.8.>.XXAXlXuXgXgXkXpXAXW.u.7.w.e.w.6.w.8.5.9.7.9.6.7.8.8.8.9.0.4.9.8.0.8.8.3.8.",
"w.8.8.6.6.8.8.8.8.8.8.8.8.8.8.8.8.3.w.:.w.2.q.C.e.7.R AXuXjXsXsXjXjXjXuXAX! a.t.:.6.w.6.5.e.8.5.8.7.8.8.9.8.9.9.xXxXD.9.8.0.A.9.",
"8.8.8.e.8.e.8.8.8.8.8.8.8.8.8.8.C.8.6.6.w.q.q.q.5.i.s.AXgXjXsXwXrXrXjXiXlXE.mXmXMXt.w.e.2.e.8.C.8.8.8.9.8.9.0.9.cXvXd.7.9.9.8.9.",
"8.4.e.8.8.8.8.8.8.C.A.9.C.3.8.8.8.8.C.2.3.q.3.8.7.p.$XpXuXjXjXsXrXrXrX3XjXoX#XNXMXMX7.7.7.5.S.3.C.A.8.5.9.0.G.d.!.!.F.d.cXQ.0.A.",
"e.2.e.2.6.8.3.e.8.3.8.C.8.8.9.8.C.C.C.8.q.e.8.7.i.R AXlXyXiX2XiXjXjXjX3XjXpXoX$XmXmXMX5.7.9.5.S.8.A.D.5.0.bX/.~.~.^.p.bXQ.cXG.5.",
"9.r.8.e.e.2.9.8.C.C.C.8.e.9.6.8.9.A.3.A.5.0.7.>.p.~ K.iXiXiXyXyX2XsXiX3X4XiX}.oX$XmXmX!.7.d.7.e.8.4.A.0.cXbXbXbX^.~./.~.bXcX5.0.",
"9.8.5.8.6.8.8.9.D.C.C.4.8.e.5.e.9.0.9.S.9.9.,.u.W.oXuXiXaX{.yXyX+X2X2XiXiX3X}.}.#X@XmXmXMX>.t.6.C.S.8.9.cXcX!.~.~.~./.bXcXd.9.9.",
"8.G.G.7.G.D.8.8.vXA.C.8.0.e.6.7.7.0.9.5.0.7.a.W.#XfX*X*X|.|.2X{.{.{.sX3X3XrXwX[.+X@X@XmXnXMX:.7.8.8.e.5.7.d.bXbXQ.cX!.bX7.7.5.5.",
"9.9.cX5.r.xX9.0.vX0.9.S.9.6.w.:.7.e.8.8.r.>.R $X=X-X.XU.].|.&X{.{.2X3X4X4X4X4XaX].T.'.mXmXMXnXh.2.w.9.e.9.r.7.9.cXcXcX9.7.9.8.r.",
"0.9.vX9.7.cXr.7.G.9.9.0.e.6.7.:.6.8.8.8.e.:.R @X#X( ] { { ` |.{.qX2X4X3X4X6X|.[.%X..'.nXXXnXG.q.: 6.6.6.6.8.8.0.0.0.7.5.r.e.5.e.",
"0.9.cX7.7.xX7.6.e.8.0.5.i.f./.B.1.>.8.8.6.<.1.'.@.] @.( ] ] :X{.{.qX3X4X3X[.[.[.).O.Q t.H.H.t.T u.B.f.<.6.5.r.0.Z.9.8.r.5.8.e.2.",
"8.e.8.0.6.8.8.6.6.6.7.i.s.AX-X-X,Xa.<.6.w.y.l.O.&.] ' ' o.o.| | ).=X:X X[.[. XJ.X.v.+ - - T Q BX>X-X,Xa.,.7.9.8.8.8.4.8.8.0.e.6.",
"6.e.4.8.e.9.e.3.2.:.>.a.E.kX0X0X&XX.W R W n.x.+.o.' o.+.o.o.o.@...L..X` ` { P.] | j.b.@ # . W <XdXqXhXR.u.p.7.5.e.q.e.8.8.8.7.6.",
"8.8.C.C.C.C.A.8.w.1.u.E #XfX8X8XqX` X.T.c.&.' ' o.&.' +.' +.o.] #.) %X@.] / @.@.o.c.k.l.v.} 1 dX8X8XdX+XE ! i.t.8.3.C.C.A.8.8.w.",
"C.3.C.C.C.A.A.9.,.R ! ~ fXqX5X7X4XwX|.;X_.' ' =.o.O.Y ^ ^ +.=.] ] ] / &.(.o.&.&.o...o.`.;X;XaX8X9X6XqX;X~ ! R >.9.0.8.8.Z.8.3.e.",
"C.8.8.A.8.5.r.>.j.oX>X+XqX8X7X7X7X9X X|.*X' ' ' k.^ K g.x.+.} o.@.] $...O.$.$.| @.@./ :X*X X8X9XtX6X8XqX&X>X'.s.<.7.e.0.S.3.3.3.",
"8.9.9.8.6.6.>.a.#XfXaXeX5X7X7X5X8X XeX*X*X` ' &.k.. I g.m.z.k.o.@.] } $.c...| | @.] ]  X X X8X9X6X6X5X8XdX&X=X,Xa.:.7.0.Z.8.e.3.",
"8.C.8.w.:.<.R R.>XaX9X0X7X7X8X0XdX.X).U.`./ &.O.j.+ K U I m.n.z.+.o.$.| T.>X=X .@.#.' `.U.Y.|.qXwX9X8X0X0XeXaX=XR.R >.7.9.A.8.3.",
"C.9.8.6.,.1.1.#XfX9X9X9X5X0X8XqX .#.#.@.@.@.o.... K # L o @ O l.+.&.$.L.-X&X&X&X] ] =.' =.{ _ J.eX8X0X6X9X0X0X*X<X1.>.7.9.9.8.9.",
"C.A.0.r.:.,.W >XaX9X9XtX9X5X0XqX#.@.$.$.o.$.o...<XBXCXU U O $ O l.+.@.%X&XaXdX&X#.| o.o.&.o.&.@.|.wX9XtXtXtX7X X<XR >.7.9.9.0.7.",
"8.9.C.0.w.1.R <XdXeX9X6X9X0XeXJ.#.$.| $...$.o.<X<X1XCXO L & & = l.' $.].dX|.aX&X(.@.@.o.o.} +.@.J.8X0X9XtX6X0XqX<X. T 6.9.7.9.9.",
"8.e.8.9.5.:.W BX=XqX8X0X8X XeXJ.@.| @.@.| =._ :X;X<XBX+ $ i i = x.$.#.].&XqXdX&XP.K. .@.' &.O.$.J. X X8XtX0X X:X@X@ : 2.8.e.6.2.",
"3.e.5.Z.8.y.> + 1X&X&X X*X X X[ =.@.$.| ) _ P.*X*X=XVX# $ i u = z.%.| ].&X&XdX-X-XI._ _  .@.o.o.{  X XdXqX|.:X1X+ I ; q.e.3.V.q.",
"q.q.8.e.n ; $ U } } @.#.{ / ] @.o.' o._.+X;X-X&X&X<XBX# k j u % n.X.L.T.dXfXfXfXhX&XdX+X_.] @.o.=.' [ =. .#.( j.- * v , C.3.V.V.",
"q.2.7.d.2 n $ U g.O.c.@.=.=.o.+.o.=.@.).%X-XhX&X-X=XCX+ k i u * 1.v.| %.;X-X&X-X-XhX&X+X).#.o.o.=.=.@.@...$.j.b.: v ; , 2.8.V.V.",
"8.6.d.p.XXT o U g.x.$.%.=.+.&.+.+.o.} T.=X&X&X-X-X<XCX$ k u % = 1.x.$.*.%X&X-X;XfX&X:X;XL.@.@.&.&.+.&.@.o.+.j.g.$ = y.H.  >.9.C.",
"6.7.i.ZXNXBXJ U + b.n.z.k.x.c.o.+.+.$.%.| (.I.P.L.R.@ : k c % = L U z.c.(.T.L.L.#.).(. .@.@.o.+.O.O.k.x.x.x.j.+ # T VXVXAXp.5.8.",
"7.i.R.pXkX,X! @ L $ $ L o b.j.c.c.o.k.$.$.@.[ [ &.j.@ k l l j * % o I z.c.$.$.$.$.$.&.&.$.o.&.o.k.n.b.O L L o @ # X #XlXzX2 p.d.",
"t.R oXuXiX-X<XW O P & * $ L O n.c.o.k.k.O.o.' o.c.m.= h l c % % & = o m.j.O.$.o.O.O.O.+.o.o.&.k.n.O $ ;.& = $ @ Q oXzXiXuXT.p.i.",
">.u.#XfXsXaX>XBXb.o $ * & P P O x.c.k.k.k.O.+.x.l.m.= j u u i j j = O m.z.k.k.c.k.O.x.&.k.O.O.x.O P P & * * - W NXAXgXsXiXZX  p.",
"i.R.zXyXwXsX&X<Xc.Q I $ * & P L g.x.l.l.l.l.l.n.m.h.* g u u j i g j * b.m.n.n.z.l.l.l.x.l.l.j.b.L & i k $ O X E zX+XsX2XjXpX1 p.",
"R.E.uXaX3X2X-X>X .v.M.b.o P j & $ @ U U J @ $ - $ k * j j u j l g l u * = $ - o $ o U U J o @ $ P i * $ g.z.v.( +XfXsX{.iXuX~ 1 ",
"zXgXgXqXsXaXaX[. .%.v.M.I $ i ;.k * * k k k k k x h x j l x x l l l x g k k k k k k k k * * k * u P : K M.v.#._ ].dXyXwX2XiXlXuX",
"aXaXwX3XwXaX|._.J.*.T.v.b.$ & ;.x z l Z x A A z a y a a a a d s u y y y y y a A Z c z l z l z z g k = b.v.T.#.J.).&XqXqXwXwXiXlX",
"aXsXsX2XqX|.dX[ P.%.v.n.N.$ k l Z A A A A Z B N s d a a p f s s y a a d d N y y A Z A A A Z A Z z n > H.M.T.=.*.[ &X&XqXqXsXiXgX",
"fXdXaXdX` P.J.[ *.&.v.M.1.n b A S S B m m s s s s s s f s m m m s s s s m s s f s d d p d Z A B B b ; t.N.x.*.*.L.=.P.-.{.aXaXfX",
"OX<X>XK.P.U.*.&.&.M.N.T P b F A N f m m m m m s f s s s M M M M M t M V M M t m s s s s s f S A A S h = y.N.M.x.c.*.L.I.K.>X>XE.",
"# T XXM.v.| c.v.n.H.O k v S S s s s m m m m s f s s m M r V r V r r H V V C M s s s s s y y m Z S Z z b P o m.N.v.x.v.L.v.B.E # ",
"; > b.H.N.M.M.N.T * h Z S Z m C N m m C m M m m M M V r e e 6 6 r 8 6 6 0 0 M M s s s m N m y N f S Z D z k - I N.N.M.M.N.f.> > ",
"v h h ; : > > > v b D G B s M m y m m V M V r V r e 6 8 q w 7 7 9 9 8 9 6 3 4 4 M C M C m y y d d N s p S v h k > > 2 2 n v b b ",
"z b z z D h v a p f s s M m C 0 V M r r 0 4 3 9 6 8 8 w w w w 7 8 7 8 5 6 6 4 4 e r H V V C m s y N f s f G S h h n t b b b f S ",
"z S B m y p f s t M B M M V 0 0 4 9 4 5 5 6 8 7 5 7 w w q q 5 e 5 q w w w w 8 8 w 7 5 9 6 r r s y N s s f f p f G G F F b F n v ",
"D s y N C m s M m M 4 4 4 4 6 9 8 8 w q q 8 7 7 7 7 w w q q e e q q q w w w w w w w w 8 9 6 t s C N s s f s s f F F F F F b F n "
};
