/* XPM */
static char *walls3[] = {
/* columns rows colors chars-per-pixel */
"64 64 256 2 ",
"   c #0D0E0A",
".  c #150E0B",
"X  c #180F0A",
"o  c #160E06",
"O  c #141205",
"+  c #14110B",
"@  c #19120D",
"#  c #161603",
"$  c #120E11",
"%  c #0D1314",
"&  c #09151C",
"*  c #131111",
"=  c #14161A",
"-  c #0A1111",
";  c #142503",
":  c #041725",
">  c #111D2A",
",  c #1A3937",
"<  c #18262D",
"1  c #24363D",
"2  c #367C1B",
"3  c #2A7015",
"4  c #0B443A",
"5  c #164638",
"6  c #104828",
"7  c #1C753C",
"8  c #1B6335",
"9  c #257A2D",
"0  c #2C7B2C",
"q  c #297727",
"w  c #337C2C",
"e  c #367A28",
"r  c #2D7535",
"t  c #2B7B33",
"y  c #24753D",
"u  c #247A3D",
"i  c #2C7B3C",
"p  c #277837",
"a  c #337C33",
"s  c #317B3B",
"d  c #347738",
"f  c #2B643C",
"g  c #1B4827",
"h  c #4C6F27",
"j  c #616D2B",
"k  c #0E3E48",
"l  c #143C4C",
"z  c #1B3A4C",
"x  c #183849",
"c  c #143C54",
"v  c #1B3B54",
"b  c #143C5B",
"n  c #1A3B5A",
"m  c #173655",
"M  c #0E3A58",
"N  c #243848",
"B  c #233C54",
"V  c #183B61",
"C  c #0D4344",
"Z  c #0E4548",
"A  c #12424B",
"S  c #144746",
"D  c #155246",
"F  c #174156",
"G  c #16564A",
"H  c #235A55",
"J  c #27424D",
"K  c #1E7444",
"L  c #1F7845",
"P  c #356E4E",
"I  c #237544",
"U  c #2B7544",
"Y  c #247A44",
"T  c #2B7B43",
"R  c #24744B",
"E  c #2B754B",
"W  c #257B4A",
"Q  c #2C7B4B",
"!  c #327B42",
"~  c #33754B",
"^  c #337849",
"/  c #2A6C58",
"(  c #2B7453",
")  c #2B7B53",
"_  c #2C725A",
"`  c #297655",
"'  c #31745C",
"]  c #367654",
"[  c #2C6B52",
"{  c #366E66",
"}  c #337463",
"|  c #2E7165",
" . c #407359",
".. c #388329",
"X. c #2C8135",
"o. c #378336",
"O. c #3B811F",
"+. c #4F840A",
"@. c #438939",
"#. c #5B8A3B",
"$. c #4A9439",
"%. c #579636",
"&. c #4F8B2B",
"*. c #678D3D",
"=. c #5BAB36",
"-. c #6BAB2D",
";. c #72AD2C",
":. c #79AB28",
">. c #65B32C",
",. c #6BB42D",
"<. c #68BA2E",
"1. c #73B32C",
"2. c #79B32A",
"3. c #6EAD34",
"4. c #6BAE3B",
"5. c #66AA36",
"6. c #73AD32",
"7. c #77AD39",
"8. c #65B433",
"9. c #6CB333",
"0. c #65B33C",
"q. c #6DB43B",
"w. c #6AB939",
"e. c #73B334",
"r. c #7BB333",
"t. c #73B33B",
"y. c #7BB33B",
"u. c #72B83B",
"i. c #7ABA3A",
"p. c #6B991F",
"a. c #2B8149",
"s. c #338148",
"d. c #318053",
"f. c #5E8B43",
"g. c #5A8C4C",
"h. c #57894C",
"j. c #59944A",
"k. c #4C8B58",
"l. c #548C54",
"z. c #5B8C53",
"x. c #548C5B",
"c. c #598C5C",
"v. c #548658",
"b. c #4C965C",
"n. c #5A915D",
"m. c #57925A",
"M. c #489145",
"N. c #628C44",
"B. c #628D48",
"V. c #679345",
"C. c #719A45",
"Z. c #659456",
"A. c #5CA749",
"S. c #5EA657",
"D. c #52A847",
"F. c #65AD48",
"G. c #75AA48",
"H. c #6CB344",
"J. c #65B34B",
"K. c #6BB34B",
"L. c #66B646",
"P. c #74B342",
"I. c #76B847",
"U. c #66AC57",
"Y. c #6BB552",
"T. c #67B458",
"R. c #73B956",
"E. c #77A453",
"W. c #558B61",
"Q. c #598C62",
"!. c #509063",
"~. c #6F9C67",
"^. c #67A967",
"/. c #67B267",
"(. c #73B071",
"). c #5CA16A",
"_. c #83B638",
"`. c #84B12E",
"'. c #8FC73D",
"]. c #849A4E",
"[. c #86B944",
"{. c #8EB353",
"}. c #95BB67",
"|. c #8AB878",
" X c #92B571",
".X c #A3B65C",
"XX c #8BC546",
"oX c #98C658",
"OX c #96CD50",
"+X c #A9D756",
"@X c #BDDD5B",
"#X c #B8DA58",
"$X c #ACD04E",
"%X c #AAE559",
"&X c #BCE35D",
"*X c #B9E85B",
"=X c #89C367",
"-X c #9BC568",
";X c #97D474",
":X c #AACA66",
">X c #ACD863",
",X c #B8DB66",
"<X c #A8D678",
"1X c #B7D973",
"2X c #ADCC6E",
"3X c #ACE366",
"4X c #B4E465",
"5X c #BBE463",
"6X c #BCEC62",
"7X c #B5E56A",
"8X c #BCE46A",
"9X c #BBEA6B",
"0X c #B4EA67",
"qX c #B5F167",
"wX c #ACEB77",
"eX c #B8E776",
"rX c #AFF073",
"tX c #9FE571",
"yX c #C4DD5B",
"uX c #CADE5C",
"iX c #C5DB55",
"pX c #CCDE55",
"aX c #C8E54B",
"sX c #C4E454",
"dX c #C3E35D",
"fX c #CAE35B",
"gX c #C8E757",
"hX c #D0E654",
"jX c #C7DE66",
"kX c #C5DC76",
"lX c #D3DD67",
"zX c #C3E364",
"xX c #CCE264",
"cX c #C2EA63",
"vX c #C3E46B",
"bX c #CAE26B",
"nX c #C4E96A",
"mX c #D3E366",
"MX c #C7E475",
"NX c #D2E573",
"BX c #6AA881",
"VX c #8AB684",
"CX c #94B687",
"ZX c #A5D48A",
"AX c #A7D684",
"SX c #A5D694",
"DX c #B2DB8A",
"FX c #A9E986",
"GX c #B6E886",
"HX c #A5EC95",
"JX c #B1E793",
"KX c #98D58B",
"LX c #C7DD85",
"PX c #C5E485",
"IX c #C6E790",
"UX c #C0DDAD",
/* pixels */
"l.l.x.x.Q.x.x.x.x.x.x.x.x.x.c.c.x.x.x.x.x.x.x.x.x.x.x.x.x.x.x.x.x.x.x.x.x.x.x.l.v.c.x.x.x.x.x.x.x.k.x.x.l.m.x.x.x.!.x.x.x.x.W.Q.",
"x.b.x.x.x.x.c.x.x.x.k.x.x.W.Q.c.x.x.x.x.x.x.x.x.x.x.x.x.x.x.x.x.x.x.x.x.x.x.c.v.x.x.x.x.x.x.x.b.x.x.x.x.l.x.x.x.x.x.x.x.x.!.Q.x.",
"x.x.x.x.x.x.x.l.x.x.b.x.x.x.x.x.x.x.x.x.x.x.v.x.x.x.x.x.x.x.x.x.x.x.x.x.x.x.x.c.x.x.x.x.x.x.x.x.W.c.x.x.c.c.c.c.l.x.x.x.x.x.x.x.",
"W.W.x.x.x.l.l.l.x.x.x.x.k.x.b.x.x.x.x.x.x.x.x.x.x.x.x.x.x.x.x.l.x.x.x.x.x.x.x.x.x.x.x.x.x.x.x.x.x.x.x.W.c.v.z.v.x.x.x.x.x.x.x.x.",
"W.c.c.x.x.l.c.l.x.x.x.W.W.x.W.W.x.x.x.x.x.x.x.x.x.x.x.x.x.x.x.x.x.x.x.x.x.x.x.x.l.x.x.x.x.x.x.x.x.Q.W.Q.Q.Q.c.v.c.x.x.x.x.x.x.b.",
"W.W.x.x.l.c.x.c.x.x.x.x.W.W.W.W.x.x.x.x.x.x.x.x.x.x.x.k.x.x.x.x.x.x.x.x.x.x.x.x.x.x.x.x.x.x.x.x.x.W.W.W.Q.W.W.x.x.c.c.c.x.x.l.l.",
"x.W.x.x.x.x.x.x.c.x.v.Q.c.c.W.W.x.x.x.x.x.x.x.x.x.x.x.x.x.x.x.x.x.x.x.x.x.x.x.x.x.x.x.x.x.x.x.x.x.x.W.x.W.W.W.x.x.x.v.z.z.z.g.g.",
"x.x.x.x.x.x.Q.W.Q.x.x.c.v.c.Q.x.x.x.x.x.x.x.x.x.x.x.x.x.x.x.x.x.x.x.x.x.x.x.x.x.x.x.x.x.x.x.x.x.x.x.x.x.v.W.W.x.c.v.z.g.f.f.f.g.",
"z.j.l.z.v.Q. .Q.Q.v.c.z.v.z.l.x.x.x.x.l.x.x.x.k.x.x.x.x.x.x.x.x.x.x.x.l.x.x.x.x.x.k.x.x.x.x.x.x.m.k.l.l.k.n.k.x.z.g.N.C.GXLXPX2X",
"f.B.B.g.z.Z.Z.Q.c.VXh.z.g.l.l.x.x.x.x.x.x.x.x.x.x.x.x.x.x.x.x.x.x.x.x.x.x.x.x.x.x.n.x.x.x.W.c.x.x.m.z.l.g.l.m.!.z.f.:XPXkXkXMXMX",
"kXLXLX<XE.B.B.c.CXCX .VXVX|.x.x.x.x.x.x.x.x.x.x.x.x.x.x.x.x.x.k.x.x.x.x.x.k.x.x.x.x.x.x.n.x.n.Q.x.x.~.l.l.z.v.~.Z.V.MXkXmXuXNXlX",
"NXbXNXkXGX}.N.CX~.CX X XVX(.x.k.x.x.x.x.x.x.x.x.x.x.x.x.x.x.x.x.x.x.x.x.x.x.x.b.x.x.x.x.n.k.VXW.Q.Q.VXz.z.z.SXZXAX{.MXNXmXmXlXjX",
"lXlXmXxXkXPX*. X XCXCXCXv.z.Q.x.x.x.x.x.x.x.x.x.x.x.x.x.x.x.x.x.x.x.x.x.x.k.x.x.x.x.x.x.x.v.VXx.Q.W.VXz.Z.SXZXSXAX2XNXuXmXpXmXmX",
"lXlXhXmXlXkX2X].CXVXCXc.c.v.v.Q.x.x.x.x.x.x.x.x.x.x.x.x.x.x.x.x.x.x.x.x.x.x.x.x.x.x.x.l.x.x.x.c.W.Q. .z.SXSXSX<X-XMXjXuXpXpXuXbX",
"jXbXmXuXmXlX2X}.|.VXx.l.n.v.Q.v.x.x.x.x.x.x.x.x.x.v.x.x.x.x.x.x.x.x.x.x.x.x.b.x.x.x.x.x.x.v.c.x.l.n.B. XZXAXAX2XoXMXjXyXyXyX,X5X",
"jXjXyXmXlXlX,X.X}. .z.l.x.x.x.c.x.x.x.x.x.x.x.x.x.x.x.x.x.x.W.x.x.x.x.k.x.x.x.x.x.x.x.x.x.x.c.c.z.~.SXZXAX<X;X3.6.+X&XyX@XyX#X5X",
",XyXyXyXxXfX$X.X[.*.*.z.z.v.x.x.x.x.x.x.l.x.n.x.W.x.W.x.W.W.W.W.n.l.x.x.W.x.x.c.x.v.W.v.n.l.n.z.j.SXAX<X<XtX=X9.,.1.1.4X#XdXyXyX",
"dX@XyXyXiXiXgXdX,X:X}.#.z.n.x.!.x.m.x.x.x.k.x.x.v.x.c.c.x.x.Q.c.v.c.!.x.W.W.c.x.c.v.W.k.!.x.x.n.SXKXKXAX}.K.q.9.,.,.1.:.0X,X@XdX",
",XjX@XyXyXuXuXjXyXMX1X}.f.z.x.l.x.v.Q.c.x.!.!.W.x.n.x.l.l.g.g.g.z.l.k.!.b.x.x.c.c.x.!.!.k.!.~ b.(.KX;XKX=XK.L.8.,.,.,.1.r.7X@X@X",
"5X#X@X@XyXjXyXiXdXjXkX<XB.z.l.l.x.x.v.z.z.z.k.x.k.l.l.z.Z.#.*.#.f.g.l.l.k.x.n.v.x.Q.!.!.!.E ^ ~ )./.(.b.@.J.F.w.,.>.,.1.-.OX7X3X",
":.5X&X&XjXyXyXiXaXiX#X<Xf.l.l.!.x.c.z.B.B.g.l.l.x.l.z.f.C.PXPXPXAXf.g.g.h.c.c.v.c.v.W.!.~ E ) Q ) ~ U ! a ..J.0.8.9.,.,.e.-.r.i.",
":.OX4X&X#X,XdXyX$X#X#XoX*.j.z.l.l.z.f.C.}.C.f.j.h.c.f.-XPXkXkXMXMXIXV.f.z.v.l.c.v.Q.W.k.! ~ s.Q Q ) Q T T t T.L.0.8.9.3.u.9.6.t.",
"r.r.;._.3X#X&X@X#X+X7.7.G.j.g.z.g.V.GXeXeXeXC.f.B.E.V.GX1XNXNXvXkXkXIXN.z.c.x.x.x.n.b.^ Q s.L W Y T Q U T i o.S.Y.L.4.q.8.t.t.4.",
"e.,.e.t.i.7X:.:.:.'.;.t.H.G.#.f.#.7.MXzXbXeX{.AXAXAX{.MXbXxXzXbXmXkXLX{.f.z.x.W.x.k.b.! T Q Q W T Y Q Q Q i X...e O.%.K.q.5.q.e.",
"9.3.q.e.6.>Xe.3.;.e.,.w.t.t.G.[.y.p.nX&XvX8X2XAXDX1X:XbXmXuXmXmXxXlXMX}.B.g.c.l.b.b.k.Q W W a.W a.W Q Q Y T X.0 $.@.F.F.4.w.,.e.",
"P.8.q.9.t.6.t.OXu.,.<.,.,.1.OXnX5XcX&XzXvX,X<X<X<X-XMXzXfXpXuXuXmXlXNX.X#.N.z.g.x.x.!.W ) ) L ` u W U U y T i 0 w $.A.Y.A.u.9.,.",
"q.q.9.9.3.t.G.4.e.,.w.,.,.2.6X&XdXcXbXvX1X2X<X<X<XoXMX5X#XiXiXyXyXxXzXoX{.[.*.f.g.l.k.) d.R d.a.a.W Q ! ! U s.t d d r M.T.J.q.u.",
"H.q.,.w.e.-.7.7.y.e.,.1.e.1.*X6XdX5XMX2X<XDX<X<XXXI.%X#X&X@XyXyXyXiXyXzXjXMX:XoXf.n.~ E ` a.L W Y T d a e a X.X.w w o.r t q Y.F.",
"F.K.w.<.9.u.7.oX7X7X;.,.y.6.+X[.OX3X<X<XAXAX;X;Xq.;.;.:.&X&X@XyXuX#XpXgXyXyXjX1X{.d ! E d.W T T Y X.HXGXwXwXrXwXwXFXa X.y i q /.",
"e 3 L.L.u.e.[.8X8X9X7X6.t.H.4.P.[.;XAXKXZX;XR.4.w.9.,.1.:.5X&X@XiXfXiXiXiXuXzX,X<Xh s Q Q T X.i X.w FXwXqX%XqXqXrXFXe s y Y r /.",
"i t 3 J.H.t.9XzXzXzX9Xy.4.F.Y.2 j.R.KX=XZX=Xq.9.>.,.<.>.e.:.&X@XjX#XyXiXuXiXjX>X;Xe s T Y T s.o.w q eX9XcXgX*X0XrXwX..! y u q T.",
"U y 9 Y.q.1.+XcXzXzX5X[.P.F.w a X.b.(.(.S.&.H.9.>.<.>.,.,.e.OX0X,XjX@XdXyX$X$X>X{.@.o.X.i /.U.$.%.oX7XcX*X*X6X0X9XFXe y u 7 9 T.",
"R T 9 Y.q.6.$XzXdX5X0X[.F.o.s X.X.Y a.Y u X...L.0.>.,.>.9.9.q.3.[.,X4X%X#X$X%Xr.t.Y.e w w T.R.0X0X*XdX`.+X+X*XqXrXwXw T y u 9 /.",
"I y q J.q.r.+XdXdXvX9X;XU.a ! T a.W W ) a.u X.Y.0.8.9.>.9.8.0.q.7.y.3X1.1.1._.,.t.F.Y.e ..G.XX*XdXsXgX'.2.;.'.rXwXFXd T Y y 9 b.",
"y y q U.H.I.[.nXnX8XeXFXj.r d.) E Q ) E Q Q r o.J.L.=.>.8.q.9.9.t.e.%Xe.-.r.1.r.6.t.u.w.[.:.+.dXgXsXgX*X:.e.9.tXwXHXt Q L a.u b.",
"y p 9 D.J.P.[.9XzX8X1XGX@.! Q ` ) E ] ) Q ^ ! t ..e O.%.q.9.-.9.e.-.3.9.XXe.6.e.e.9.e.XXqX5XgXhXaXgXsXgX;.4.+.2 q X.s.W Y 7 u u ",
"y i 9 D.T.K.I.>X8XnXeXFXe y Q W ) ) ^ Q Q U T o.t o...=.5.H.q.3.9.e.9.e.e.7.e.6.1.e.1.qX*X*XgXiXgXaXaX*X*X6XoX&...a a.K K W Y u ",
"y y L X.0 T.G.oX[.[.G.R.w a.Q Q U Q Q T T U y u u 9 t D.F.H.H.t.9.3.e.t.t.6.r.6.e.e.1.%X*XgXfXhXgXhX*XgXsX*X7XGX2 t y L R I Y 7 ",
"R U 7 7 9 o.R.G.y.P.I.A.X.y W Q a.L u X.i i ! y T ! t r @.T.F.L.q.u.6.3.y.9X0Xr.1.,.1.OX'.'.+XdXaXhXaXaXaXhXcX9XG.q p U I W 7 Y ",
"E K a.7 p 0 T.K.K.J.T.o.u a.W Y a.a.i t o.w e ..a a ! X.s t q Y.q.q.7.-.9X5X%X7Xr.1.<.<.1.i.r.`.dXgXaXaXhXaXgXnX<Xw p U W I Y 7 ",
"I I L L Y 7 /.S.A.q X.X.L a.Q T Y T a HXFXFXwXwXwXFXHXd y y u q H.e.y.>X5X6X5X6X:.7.q.q.t.9.u.r.6XgXsXaXaXhXfXzXeXe r I E I I 7 ",
"W Y K R L T t X.0 s.a.a.W W s s T d a FXGX0X9X6X0XwXHXo.T T y q L.9.7.+XvX@XcX5X`.7.3.t.9.t.9.r.`.dXsXgXaXaXgXnXwXe r E R [ L L ",
"K K W K I ) T Q Y W W d.W T d M.0 o.e wX0X0X*X*X6XrXJXe ! Q Y 9 H.e.r.+XvXzXzXnX`.7.P.[.3.u.u.,.`.cX*X&XhXsXdX8X<Xt U ( / | _ ` ",
"` W R R ) ) ` E ` ` ` ` R T /.T.$.3 %.rXrXqX*XcX0X7XGXe s I 7 9 L.6.7.OX8XbXzXvX.X`.:.6.e.,.9.e.2.6X6X6X*XdX7XwX3 i 8 6 4 Z Z G ",
"/ P [ ' 4 } ' ' } ' ` ( ] i /.T.D.L.=.>.,.%X%X%X%XrXwX..d y Y 9 K.u.y._.nXvXvXvXjX,X9X+XoX6.t.9.2.2.2.i.2.r.-.5.e d U I 4 S A l ",
"4 S G S S H S S C 4 C ' ] U /.T.L.0.<.<.>.,.<.i.rXrXFXo.! y 7 p D.I.7.r.8X8XvX,XvX,X4X,X[.3.9.9.1.1.e.1.e.P.4.F.w r ~ P 5 x x l ",
"A l k A x k l C C A C C H ' a.X.=.0.>.<.<.8.w.H.tXFXHXd U T W u M.K.P._.3X9X9X8X8X8X8X#X_.7.q.w.u.w.w.u.q.q.H.A.w a h BXg , J x ",
"v z N : : : x c l c c A S G ) X.D.L.8.8.8.0.H...e ..0 X.U R W 7 X.w R.e.XX:.2._._._._.7.y.t.H.P.q.w.H.Y.Y.F.L.e e o.JXJXUX; % > ",
"N N > % % % & N v c M b c l x g /.F.L.q.0.L.S.X.t a.i Y Y I L W Y 9 ..K.P.e.1.e.e.e.7.t.t.P.H.H.H.L.A.9 X.t X.0 e 3 1XPXLXj   # ",
"% = - . + @ & < N v l c m c z S 6 ^.^.U.U.T.S.T Q I Y Y 7 Y W I L u q J.4.t.t.w.e.5.5.q.t.t.q.H.Y...0 X.i u t a h 2XvXvXkX].# # ",
"% * . + + +   * 1 1 B F c c F c , 4 , g 6 f (.W ( W K L Y 7 I L L X.9 T.K.H.w.0.w.q.q.u.q.q.P.Y.0 t i i i r e &.PXeXjXlXMXLX#   ",
"O + . + o @ @ + + = & & v c b b c k 5 S , 5 , H ' R W W L L L K I 7 u T.R.J.L.L.J.L.L.K.H.K.K.A.X.W T i r e 3 %.8XbXfXxXjXMXj ; ",
"# + . + . . . o .   & & N m b b m n v l l l S 4 / ( R K I R R R I W X.p 0 X.X.X.X.9 ..o.a e t t T T i a U.K.I.1.vXdXfXyXjXjX.X.X",
"+ + + * @ . . + o o $ = N B m b m m m n c l k S D / / R ( R ( ( R Q U Y a.Y u T Y u i T s U i T Q I i ..R.I.'.r.+XzXdXdXdXjXkXkX",
". + . + * + + @ . X $ $ & 1 N z m B m n n m n l k G | _ / ` / ( ( ^ Q U Q W W Q E ( ] E E U E Q T i t T.I.I.i.2.OXdXdXdXdXzXjXkX",
". * + + + * + + . o @ * $ & = < N x N x B v n m c A k 4 4 C Z D 5 D ' ( _ ` ` ` _ ' / ' _ ( ` ` R i d U.I.I.i.i.r.6X6X*XdXxXzXjX",
"+ + + +     + + . . @ X + + + + % & & & : N B m v z l S k A A c Z Z Z D D D D 4 D H { { / } ( ` ] E ! j.R.I.i.y.r._.'.p.cX6XbXvX",
"+ + + # + + + + + + + O + + + + * * - % * N N N N z z x l l c c c F k l k Z C Z k C S { { / ' ( E ~ ~ r @.R.I.I.i.i.i.i.`.9X1X>X",
"O + O + + + . . + + o + + + + + * . + @   - % > : > < , 1 N N N v n m c c k Z M c c l k / { _ E ) E E Q ! r T.R.R.I.w.I.t.-X&.h ",
"O + + + @ + X . X o + + + + * $ . @ + o + # $ * % * - - % % & > > B v m c v b c b n b M k H { [ ( ( _ R ] ! r @.R.R.R.R.R.S.d s ",
"O + X X X X @ X + + + @ * $ * $ @ @ o O # O * + * + + % $ $ $ % & : N x n m n n V m V b A , { ' ' / | | [ ~ ~ s d r e a d d ~ E ",
". o + + . + . @ @ + + + * + * * o X + + +   O @ + . . . * $ * * $ - N N B m m n n V V M M F x k H { | | { ' P ~ U ^ P ^ P ~ E E ",
"o X o + O + + + o o o o + o + + o X + . * = +   + + + + + + . + $ > N N B m B x c c F M b M v c l k A Z { P P P ] P P P P P P ] ",
"o # X o + O O O + o X X o O O O # + . * . *   + + + + + + O   + $ $ & : : : : B l l M F M b n v v c A Z k 5  . .]  . . . .] ] ] "
};
