/* XPM */
static char *walls2[] = {
/* columns rows colors chars-per-pixel */
"64 64 256 2 ",
"   c #140E06",
".  c #150F0C",
"X  c #180F0B",
"o  c #180F06",
"O  c #0C110C",
"+  c #151106",
"@  c #14110B",
"#  c #19120C",
"$  c #191106",
"%  c #080F16",
"&  c #150F10",
"*  c #0C1214",
"=  c #0C141B",
"-  c #07161D",
";  c #121112",
":  c #151617",
">  c #0F0D09",
",  c #051524",
"<  c #121B26",
"1  c #0D1E32",
"2  c #163031",
"3  c #25353B",
"4  c #0D4E17",
"5  c #297418",
"6  c #0B4539",
"7  c #12472E",
"8  c #1D753D",
"9  c #2B7C2D",
"0  c #2A7728",
"q  c #337D2C",
"w  c #347B27",
"e  c #2C7C34",
"r  c #24753D",
"t  c #2B753C",
"y  c #247A3C",
"u  c #2C7B3B",
"i  c #287634",
"p  c #337C33",
"a  c #337B3B",
"s  c #32753A",
"d  c #276A2C",
"f  c #204C3B",
"g  c #407C3E",
"h  c #0D3D47",
"j  c #1B354C",
"k  c #133C4D",
"l  c #1D3A4B",
"z  c #173847",
"x  c #143C53",
"c  c #1A3B54",
"v  c #143C5A",
"b  c #1B3B5A",
"n  c #183655",
"m  c #0D3957",
"M  c #233A4B",
"N  c #233746",
"B  c #213A55",
"V  c #183F60",
"C  c #0D4343",
"Z  c #0D4845",
"A  c #13424A",
"S  c #144746",
"D  c #145246",
"F  c #164157",
"G  c #265A56",
"H  c #244853",
"J  c #1F7743",
"K  c #296F4A",
"L  c #237644",
"P  c #2D7644",
"I  c #247A44",
"U  c #2B7C43",
"Y  c #24744B",
"T  c #2B754C",
"R  c #257B4A",
"E  c #2B7B4B",
"W  c #327B43",
"Q  c #32734B",
"!  c #317A4B",
"~  c #377549",
"^  c #2A6C58",
"/  c #2B7453",
"(  c #2C7B53",
")  c #2C735A",
"_  c #287754",
"`  c #33735A",
"'  c #347656",
"]  c #326E52",
"[  c #356E65",
"{  c #357265",
"}  c #326F68",
"|  c #417851",
" . c #34821D",
".. c #368129",
"X. c #2D8137",
"o. c #378437",
"O. c #468836",
"+. c #5B8B3A",
"@. c #48933B",
"#. c #519530",
"$. c #629339",
"%. c #6A9232",
"&. c #5CAA3A",
"*. c #69AC2A",
"=. c #76AD29",
"-. c #6CB32D",
";. c #67B32C",
":. c #72B22D",
">. c #78B42C",
",. c #6DAE33",
"<. c #68AB39",
"1. c #74AD33",
"2. c #78AD36",
"3. c #64B433",
"4. c #6DB334",
"5. c #63B43B",
"6. c #6CB43A",
"7. c #6AB937",
"8. c #73B333",
"9. c #7BB433",
"0. c #73B33A",
"q. c #7AB53A",
"w. c #76B939",
"e. c #298148",
"r. c #368349",
"t. c #33874E",
"y. c #548C4D",
"u. c #5B8B4C",
"i. c #5B8B44",
"p. c #5A914B",
"a. c #5A9145",
"s. c #4D8B58",
"d. c #558654",
"f. c #548B55",
"g. c #5B8B55",
"h. c #548C5B",
"j. c #5A8C5B",
"k. c #598655",
"l. c #4C955A",
"z. c #56915C",
"x. c #5A915D",
"c. c #579255",
"v. c #488949",
"b. c #638C45",
"n. c #628C4B",
"m. c #669345",
"M. c #719748",
"N. c #679856",
"B. c #648E56",
"V. c #5AA749",
"C. c #5BA654",
"Z. c #5CB14F",
"A. c #66AB45",
"S. c #74AE47",
"D. c #6BB444",
"F. c #64B34C",
"G. c #6CB449",
"H. c #65B547",
"J. c #74B343",
"K. c #76B847",
"L. c #66AD56",
"P. c #6BB454",
"I. c #6AB45C",
"U. c #65B457",
"Y. c #76B855",
"T. c #71A251",
"R. c #558C61",
"E. c #598C61",
"W. c #508760",
"Q. c #579462",
"!. c #4F9161",
"~. c #6F9A68",
"^. c #5DA567",
"/. c #69A969",
"(. c #69B264",
"). c #76A977",
"_. c #70B271",
"`. c #85B73A",
"'. c #87B22D",
"]. c #8CC33B",
"[. c #86BB43",
"{. c #8CB054",
"}. c #90B456",
"|. c #8BB37D",
" X c #90B869",
".X c #A0BE5A",
"XX c #8AC548",
"oX c #99C758",
"OX c #99D154",
"+X c #ABDA59",
"@X c #BBDD5B",
"#X c #B7DC57",
"$X c #B0CD52",
"%X c #BBE35C",
"&X c #B8E95C",
"*X c #A6E256",
"=X c #97C967",
"-X c #8ECB6E",
";X c #A5C966",
":X c #B8DC67",
">X c #A6D679",
",X c #B6DB75",
"<X c #A8D568",
"1X c #ACE568",
"2X c #B5EA64",
"3X c #BBEB63",
"4X c #B3E46B",
"5X c #BDE36C",
"6X c #B6EC6D",
"7X c #BBEB6C",
"8X c #B8E464",
"9X c #ACEB7B",
"0X c #ABEA75",
"qX c #B7E776",
"wX c #B4F073",
"eX c #9EE364",
"rX c #C4DC5C",
"tX c #C6DD58",
"yX c #D1DE5B",
"uX c #C7E54E",
"iX c #C4E454",
"pX c #CBE453",
"aX c #C3E35B",
"sX c #CCE45C",
"dX c #C7EA58",
"fX c #D4E05E",
"gX c #C4DE63",
"hX c #C4DE6B",
"jX c #CDDE61",
"kX c #C3DE75",
"lX c #C3E363",
"zX c #CBE364",
"xX c #C2E46B",
"cX c #CAE26A",
"vX c #C2EA63",
"bX c #D2E566",
"nX c #C6E475",
"mX c #D3E874",
"MX c #8CB684",
"NX c #87B786",
"BX c #91B682",
"VX c #93BA87",
"CX c #98D687",
"ZX c #9BDA96",
"AX c #8DCA89",
"SX c #A4D48B",
"DX c #A5D786",
"FX c #A5D695",
"GX c #B3DB82",
"HX c #A8EA85",
"JX c #B9E586",
"KX c #A9EF91",
"LX c #9FE992",
"PX c #C4E488",
"IX c #C5E592",
"UX c #C0DF8F",
/* pixels */
"h.l.h.h.h.h.f.f.h.f.f.j.h.h.h.h.h.h.h.h.h.h.h.h.h.h.h.h.h.h.h.h.h.h.h.h.h.h.h.h.j.h.h.h.h.h.h.h.h.h.h.s.g.f.h.h.h.!.h.!.h.h.R.R.",
"h.h.h.h.h.h.h.h.l.h.h.j.h.h.h.h.h.h.h.h.h.h.h.h.s.h.h.h.h.h.h.h.h.h.h.h.h.h.j.h.h.h.h.h.h.h.h.h.h.!.h.z.h.f.h.h.h.h.h.h.h.R.j.E.",
"h.h.h.j.j.j.h.h.h.h.j.h.j.h.h.h.h.h.h.h.h.h.d.h.h.h.h.h.h.h.h.h.h.h.h.h.h.h.h.h.h.f.h.h.h.h.h.s.h.j.h.h.h.h.j.h.h.s.h.z.h.h.h.j.",
"j.j.h.h.h.h.j.j.j.h.h.h.h.h.j.h.h.h.h.h.h.h.h.h.h.h.h.h.h.h.h.h.h.h.h.d.h.h.h.j.h.h.h.h.h.h.h.h.R.h.R.h.j.j.k.j.h.g.h.h.h.h.h.s.",
"E.j.h.h.R.h.h.j.j.R.W.h.h.h.R.j.h.h.h.h.h.h.h.h.h.h.h.h.h.h.h.h.s.h.h.h.h.h.h.h.h.h.h.h.h.h.h.h.h.E.R.E.W.E.j.k.j.h.j.h.W.h.h.z.",
"j.j.W.W.R.h.j.R.j.h.h.!.R.h.j.j.h.h.h.h.h.h.h.h.h.h.h.h.h.h.h.h.W.h.d.h.h.h.h.h.h.h.h.h.h.h.h.h.h.R.R.R.E.W.E.d.h.j.h.h.h.h.h.y.",
"h.h.h.h.z.s.h.j.j.R.h.h.h.s.h.h.h.h.h.h.h.h.h.h.h.h.h.h.h.h.h.h.h.h.h.h.h.h.h.h.h.h.h.h.h.h.h.h.h.h.h.R.E.R.W.R.h.j.g.g.g.g.y.y.",
"h.h.s.h.h.h.h.h.j.j.h.h.h.h.h.h.h.h.h.h.h.h.h.h.h.h.h.h.h.h.h.s.h.h.h.h.j.h.h.h.h.h.h.h.h.h.h.h.h.h.h.h.j.R.R.h.h.f.g.u.i.b.i.a.",
"h.h.h.j.j.j.j.E.h.d.j.j.h.h.h.h.h.h.h.h.h.d.s.h.h.h.h.h.h.h.h.h.h.h.h.h.h.h.h.h.h.h.h.h.h.h.h.h.z.s.f.c.f.z.s.h.f.u.b.M.UXPXPX;X",
"z.j.E.k.j.k.k.B.h.NXk.j.j.k.h.h.h.h.h.h.h.h.h.h.h.h.h.h.h.h.h.h.h.h.h.h.h.h.h.h.s.R.h.h.h.z.j.h.h.x.f.y.y.f.h.j.g.b.;XPXkXkXmXnX",
"h.d.|.VX~.B.B.B.MXMXk.VXMXNXj.h.h.h.h.h.h.h.h.h.h.h.h.h.h.h.h.h.h.h.h.h.h.h.l.h.h.h.h.s.E.h.j.E.h.h.~.g.g.f.h./.N.m.kXhXmXjXmXhX",
"f.h.| MXMXMX| BX~.VXMX~.MX).j.f.h.h.h.h.h.h.h.h.h.h.h.h.s.h.h.h.h.h.h.h.h.h.h.s.h.h.h.h.h.h.NXR.E.E.MXg.u.c.FXFXDX}.nXbXfXfXjXbX",
"j.h.E.k.|.BXB.BXBXBXVXVX| k.E.j.h.h.h.h.h.h.h.h.h.h.h.h.h.h.h.h.h.h.l.h.h.h.h.h.h.h.h.h.j.d.NXh.E.W.MXB.B.FXSXSXDX<XmXjXfXfXbXjX",
"h.j.j.B.~.VXBX~.|.|.|.g.B.j.f.j.h.h.h.h.h.h.h.h.h.h.h.h.h.h.h.h.h.h.h.h.h.h.h.h.h.h.h.s.h.h.j.h.R.E.k.k.FXSXFX>X;XnXhXyXyXtXjXhX",
"R.h.d.h.k.|.|.BX|.BXg.d.x.h.E.h.h.h.h.h.h.h.h.h.h.h.h.h.h.h.h.h.h.h.h.h.h.h.h.h.h.h.h.h.h.j.j.h.h.x.u.|.SXDX>X>X.X5XrXrXtXrX:X:X",
"h.h.z.h.B.k.VX|.BXk.g.g.h.s.h.h.h.h.h.h.h.h.h.h.h.h.h.h.h.h.h.R.h.h.h.h.h.h.l.h.h.h.h.h.h.h.h.j.f.N.FXDXDX>X>X%.1.+X@XaX@XrX#XaX",
"h.h.h.h.j.d.j.).g.h.f.h.z.s.h.h.h.h.h.j.j.E.R.j.h.g.f.j.h.h.h.R.h.h.h.z.h.h.h.h.z.f.h.h.s.h.h.x.y.FXDXDXCX>XOX4.:.=.=.&X%X%X#XtX",
"h.h.h.h.E.j.h.R.h.h.h.h.h.h.h.h.h.h.j.h.R.R.W.h.f.l.f.h.d.R.h.h.h.x.s.f.z.h.l.h.s.h.h.l.z.h.R.Q.FXZXDXDX XJ.H.3.-.-.:.=.2X%X#XtX",
"h.h.z.h.h.E.h.d.h.h.s.z.h.z.h.h.h.h.h.s.h.h.h.h.z.y.h.h.E.f.x.f.u.g.d.j.h.h.W.R.R.h.z.h.h.!.W Q._.CX-XCX-XH.5.3.-.-.3.4.8.4X%X:X",
"h.h.h.h.h.h.j.R.z.h.h.h.h.f.h.h.h.h.R.z.z.s.h.f.y.z.h.h.j.j.u.i.b.b.i.B.d.h.j.j.h.h.R.s.s.L ! U ^._.(.c.o.H.5.7.3.;.4.w.,.OX4X4X",
"h.f.s.h.h.h.h.g.h.s.h.h.z.g.h.h.E.h.h.h.h.h.h.f.h.s.W.h.j.b.+.,XkXPXJXM.n.B.k.k.j.f.s.!.W E E R / T s a p ..H.3.3.4.,.6.4.,.1.[.",
"h.z.h.h.h.h.h.s.h.h.z.s.s.h.h.h.j.h.h.h.h.l.h.h.j.h.h.j.B.b.PXnXmXhXkXIX Xb.k.B.g.c.s.s.! L R I E ( ! ! u 9 U.H.5.3.6.;.w.4.,.1.",
"h.z.z.f.h.h.z.h.h.h.h.h.h.h.h.h.j.j.j.f.h.h.h.h.j.R.W.B.b.UXkXzXsXbXmXkXIXM.M.n.u.c.h.r.E t.R R I I E L E e.X.Z.F.H.<.5.;.7.4.4.",
"s.z.f.h.z.h.h.h.h.h.l.h.h.z.h.h.h.h.h.h.h.R.R.R.E.k.j.k.{.PXcXbXyXsXzXnXkX}.GXSXFXf.z.P E ( e.R I U e.E E E X.X.w ..&.6.4.*.4.:.",
"h.h.z.f.h.h.j.h.h.R.h.R.R.h.h.h.s.s.z.s.h.R.W.R.h.f.p.b..XkXhXzXsXsXzXcXnX;X,XDXZXZXz.W T E ( R E U U ! E P u q @.#.A.A.<.8.-.9.",
"h.s.h.f.h.j.h.h.h.h.s.R.h.h.h.h.h.h.h.h.h.h.h.h.y.p.+.+..XnXjXbXrXsXrXgXcXnX;X>XDXZXZXs W ! P ( E E t P r U e 9 ..O.A.P.A.K.8.,.",
"j.E.h.j.x.d.j.h.R.R.R.R.h.h.h.h.s.h.h.h.h.j.g.g.+.m.{.}..XjXcXrXrXgX@X%X#XnX.X>XCXCXZX(.a s W E R R W U W u e a 9 p s v.(.F.A.K.",
"h.h.f.j.d.j.d.j.~.R.R.s.h.z.d.z.W.h.Q.j.j.k.y.b.=X;X:XzXhXgXrXrXgXgX#X@X%X+X1.*.0X>XCXZXZXv.a P I E u w p q q q q 9 W e e 5 P.D.",
"j.).).k.).~.j.j.NXW.E.h.h.j.c.g.R.R.h.h.j.g.b. X,X:XgXrXbXjXtXrX:X@X&X&X=.*.:.8.oX>XLX>XZXZXp r.e.e KXHX9X9X9X9XHXKXa a t i 0 P.",
"j.j.NXk.j.|.j.j.NXh.h.j.h.g.f.f.h.R.E.h.j.u.b.>X:XlXtXtXtXgXsXtX@X#X&X=.*.-.-.;.0.K. XCXCXZXZXt.u q HX0X2X2X2XwX9XHX9 W r u 0 U.",
"k.j.MXj.j.NXg.f.).E.h.h.h.y.c.f.g.h.h.s.h.y.+.<XgXrXtXtXtXtXtX#XiX@X=.>.-.;.7.3.<.S.-XDXAXAX_.l.u q 9X6X3X&X&X3X6X9Xq a y y 0 U.",
"j.j.NXk.k.NXf.g.h.s.h.k.B.N. XT.p.f.f.c.f.p.$.oX#X#X$XiX@X@X#X%X%XOX>.-.;.3.3.7.6.A.O.c._._.Q.U U u eX6X2XvX&X3X7X9Xq u y 8 9 U.",
"h.j.f.h.g.h.z.s.f.f.k.n.M.nXxX7XJXm.i.i.i.+.S.q.'.+X+X%X8X#X8X[.:.8.8.;.7.;.3.D.F.w a a P E E I U u q H.eX*X&X2X2XHX9 e.y y 9 Z.",
"h.z.s.R.z.h.z.s.y.y.u.m.{.nXdXdX,X2.+.+.+.Y.S.<.:.].=.>.=.4X`.2.6.4.6.4.7.4.5.A.U.o.u U e.I R ( ! U X.C.&.7.XX1XwX9XX.e.8 y i C.",
"h.h.R.R.R.R.h.h.c.y.a.+.,XxXiXuXlX=.2.[.J.J.,.4.0.8.-.:.1.1XJ.1.,.6.6.6.#.#.F.U.o.u U I I e.( E T e.t o.H.5.5.HXHXLXy I J J y l.",
"!.h.R.R.R.W.R.j.a.+.%.%.nXaXuXdXiXaX&X6XOX,.0.w.7.;.8.XX,.4.1.J.0.*.J.A.#.5 0 q u u e.U E U E E E ! e.X.Z.H...w ..0 t.R ( Y 8 y ",
"h.h.j.W.z.h.x.g.M.=X5XxXdXiXuXuXpXaX%X&X7X:.8.4.,.8.w.*.8.4.0.<.,.<.<.A.#.5 5 0 u U I I U U T E E E U e U.V.o.u X.u U T _ R Y I ",
"h.R.h.h.f.f.u.b.qX5XlXdXuXuXuXuXiX%XdX&X2X:.,.0.9.,.:.9.8.8.,.0.6.6.S.A.O.4 0 i 8 t r y r U E R E I t u U.^.t U y r r L Y Y J J ",
"R.R.h.z.y.p.i.{.5XlXsXdXuXuXuXdXaX%X].].OX-.0.0.9.4X2XXX9.1.w.8.D.F.U.a p W t W W U a e.u t E E e.R t.U d ^.e.E r I L I L I I J ",
"R.h.f.f.v.a.$.,XxXpXpXpXuXdXiXdX'.>.`.>.9.9.1.1.4X4X5X7X[.1.9.6.F.0 0 e a a p p p 0 w ..e U e.R J e.Y E U 4 Y E L I r I r J I J ",
"E.R.d.x.y.a.$.qXlXpXpXpXpXuXpXdX2.8.9.4.4.-.8.9.5XxX5X5X1Xq.w.D.0 i i u a LXKXHX9X9XHXHXLXX.e.R R R / ( T ' _ _ L I I R 8 Y R L ",
"h.h.h.j.g.i.+.9XvXsXpXpXpXpXdX'.9.8.4.4.4.8.9.`.8XlXlXnX<XJ.3.G.9 r t e ..HX9X1X3X6X2XwXHX..y e.e.U ( Y ( ( _ e.( E Y Y Y J Y Y ",
"h.z.h.j.g.g.i.HX7XaXiXdXiX&XdX'.1.8.0.*.0.9.=.'.lXlXgXxX+XJ.0.H.8 R I a w HX0X7X3X&X2XwX9X .X.X.r...E t.E _ R _ R R ( _ ) ^ ) ^ ",
"s.Q.d.E.h.g w w 4X3X&X%X&X&X&X>.8.0.0.4.1.=.`.#XsXzXxX5XoX2.6.F.i L r a w HXwX2XvX&X3X2XwX#.5 o.(.U.t E _ e._ _ ) { ) 6 Z Z D D ",
"s.h.j.E.~ a e ..<.<.8.9.>.;.:.9.0.1.4.=X1X7X5XaXlXjX5X5X[.0.,.F.i 8 U e w HXwX6X&X*X*X-.-.;.&.&.F.(.X.( ( Y _ _ ) [ { 6 h A C C ",
"!.d.j.B.g a y 9 V.5.0.8.>.8.7.7.4.0.0.XX:X4XxX5XlXxXxX7X`.8.K.V.y J r u w KX9X0X].-.;.;.-.-.3.5.U.(.Q ( / 6 Z Z C H G z x x k l ",
"h.h.| M.-X@.X. .V.K.J.q.w.7.7.6.7.4.,.[.4X5X5XxXxX5X8X1X9.0.D.@.y R R u w KXKXOX5.5.3.3.;.3.7.&.q t ' ^ C h h k k c l l N M j N ",
"h.u.n.JXGXJX..9 w L.P.G.D.0.J.6.6.4.4.q.q.XX`.`.`.[.[.XXJ.G.w o.y J L t r.w w w  .H.5.5.7.3.5.V.W ] G h k F l k l z , , - - < < ",
"y.a.{.,XnXqX$.q o.e e X.w V.F.G.J.6.0.0.0.0.9.9.8.8.8.J.S.o.i y I J L I u U e.u X.V.H.<.D.A.A./.f z k k F n c l M , % : * ; O ; ",
"p.a.;XnXjX5X,X+.0 e.y y u X. .P.G.6.6.6.6.<.7.7.7.6.0.6.I.0 y I J I I 8 I L L E u ^.I.L.I.L./.7 z c b c n n z N 2 * & # . . @ @ ",
"u.+.,XhXzXlX7XJXA.w X.u 8 X.X.0 H.6.6.7.6.6.6.D.5.5.G.H.U.0 y 8 Y I 8 I L J _ ( T ).d 7 4 7 6 C F F n k B M N 3 : * . # @ @ @ @ ",
"n. XnXhXzXlX5XqXS.O...q X.X.J X.U.H.D.D.H.G.H.F.F.F.F.I.I.9 y I Y J L I R Y Y ) ^ 2 6 2 f k A F m n b B - , = * .     @ > @ # @ ",
"}..XhXhXgXrX8X7X9.K.K.L.9 u I I e q q p q q X.9 X.X.9 X.i u U Y Y Y Y L J ^ ^ ^ 6 A A l j n n x v F k N - = ; # + + + + @ + @ @ ",
"kXkXcXjXzXlXaX+X>.q.K.Y.o.e J e.U U t u U W u U e.X.e.U P T L T / Y Y Y Y _ ^ Z C h n B B n m n b k M 3 = & .   + + + + @ @ @ # ",
"jXgXsXpXaXdX8XOX9.q.[.Y.L.a y e.Y / Y T T Q T P J R R Y E ' T / ^ ) ) ^ _ ^ D C x b n n B n B B l N N % ; . #   @ + O @ @ $ + o ",
"gXzXsX@XaX%XvX9.`.q.J.Y.(.a U T / / ' / ` ` ` ^ _ ( / ( / / f D D Z 6 C Z C F k x b b B j j N N 2 = * ; . & > # @ O @ @ @ # o $ ",
"lX3X@XvX=.'.`.9.w.w.K.Y.c.P Q ( / K { ^ { } ^ Z D D 6 D D Z h k k k A A A k c b c l M , - - = = * * @ @ @ @ # @ @ @ & & . X o o ",
"<XqXqX'.`.`.`.[.K.K.Y.O.u ! ) / / ) ^ } } A k C A C S h C k l n c c l A M l j N M M N = * @ ; ; & @ @ @ + @ @ @ @ @ & & . . X $ ",
"w O.-XS.K.2.S.Y.Y.I.0 a ! T T ( T ` { G x x x c m x h x x c B j l N 3 3 3 1 < < < * O O O @ @ # . .   @ + + +   ; # # & & @ @ @ ",
"s i L._.Y.Y.Y.Y.O.p W ' K ' / / ) ` G C x v b v b b b c n k M 1 < - - * & ; ; & ; O O # + + ; . X X + @ + @ + @   . & # . # O @ ",
"Q Q s a s p s s s Q Q ` ) ` ^ ` [ [ h x V v m b n B n b z H , , % * * ; . . . . # @ @ +   o #   X $ X @ @ @ + o o X X   @ @ * @ ",
"Q T Q P W Q ~ Q ~ Q ` ` } [ } G C k F x m v V n B n B B l N % ; ; ; . ; # . # . # .   @ @ # @ + X # + @ @ @ @ @ # $ X # # . & @ ",
"| ] Q Q ~ ] ] ' ] ] ` [ A A h c x x m v m v x k j b j M l N : ; @ X   # @ @ @ O   # & & . @ + + + @ @ @ @ ; @ @   @ o + + o . . ",
"| | ~ ~ { | ` ` | ' 6 C A x n v v v v v V m x k B , , , - - *   o o @ @ @ O O + ; . & . ; # + + + + @ # @ * @ @ @ + + + o # #   "
};
