/* XPM */
static char *walls2[] = {
/* columns rows colors chars-per-pixel */
"64 64 249 2 ",
"   c #0D0E0A",
".  c #150E0B",
"X  c #180F0A",
"o  c #160E06",
"O  c #151106",
"+  c #14110B",
"@  c #19120D",
"#  c #191205",
"$  c #070F18",
"%  c #120E11",
"&  c #0D1314",
"*  c #09151C",
"=  c #131111",
"-  c #15161A",
";  c #0D120F",
":  c #011424",
">  c #071928",
",  c #121D26",
"<  c #0E1D34",
"1  c #183134",
"2  c #24363D",
"3  c #2D7919",
"4  c #0A4439",
"5  c #15482E",
"6  c #1C753C",
"7  c #247A2E",
"8  c #2C7B2C",
"9  c #2A7727",
"0  c #337D2C",
"q  c #377A28",
"w  c #2C7C33",
"e  c #25763D",
"r  c #247A3C",
"t  c #2B7B3C",
"y  c #297737",
"u  c #327C33",
"i  c #317B3B",
"p  c #317539",
"a  c #2C653A",
"s  c #11481E",
"d  c #0D3E45",
"f  c #0F3D4B",
"g  c #143C4C",
"h  c #1B394C",
"j  c #19374A",
"k  c #143C53",
"l  c #1B3B54",
"z  c #133C5B",
"x  c #1A3B5A",
"c  c #173655",
"v  c #0E3A58",
"b  c #243849",
"n  c #223B56",
"m  c #163C61",
"M  c #0E4243",
"N  c #0E4548",
"B  c #124344",
"V  c #13424B",
"C  c #154847",
"Z  c #165245",
"A  c #174056",
"S  c #1E5A50",
"D  c #235A55",
"F  c #274152",
"G  c #1E7544",
"H  c #1E7842",
"J  c #2B6F4A",
"K  c #237545",
"L  c #2B7643",
"P  c #247B44",
"I  c #2B7B43",
"U  c #25744B",
"Y  c #2B754C",
"T  c #257B4A",
"R  c #2B7B4B",
"E  c #327B42",
"W  c #33734C",
"Q  c #357849",
"!  c #2A6C58",
"~  c #346E5E",
"^  c #2B7453",
"/  c #2C7A53",
"(  c #2E735A",
")  c #2A7756",
"_  c #3A7452",
"`  c #31735C",
"'  c #347755",
"]  c #366E67",
"[  c #337364",
"{  c #2E6E60",
"}  c #42794B",
"|  c #398527",
" . c #2D8137",
".. c #388436",
"X. c #2F8024",
"o. c #478839",
"O. c #5C8B3A",
"+. c #599339",
"@. c #4B9432",
"#. c #638B39",
"$. c #64933D",
"%. c #6D902F",
"&. c #5AAA37",
"*. c #6BAC2D",
"=. c #72AD2D",
"-. c #78AC27",
";. c #65B32C",
":. c #6BB42D",
">. c #68BA2E",
",. c #73B22D",
"<. c #7CB42B",
"1. c #6DAD33",
"2. c #67AD39",
"3. c #73AE34",
"4. c #77AC39",
"5. c #6CB433",
"6. c #66B53C",
"7. c #6DB43B",
"8. c #6BB93C",
"9. c #67B633",
"0. c #73B333",
"q. c #7BB332",
"w. c #73B33A",
"e. c #7AB43A",
"r. c #74B83B",
"t. c #78B937",
"y. c #749F1E",
"u. c #2B814A",
"i. c #318245",
"p. c #5D8B43",
"a. c #558D4D",
"s. c #5A8C4C",
"d. c #598847",
"f. c #5C904C",
"g. c #599446",
"h. c #4F8B55",
"j. c #4F8A58",
"k. c #548656",
"l. c #548C55",
"z. c #5A8C54",
"x. c #53865A",
"c. c #548C5B",
"v. c #598C5C",
"b. c #5A8654",
"n. c #54915C",
"m. c #5A915E",
"M. c #579354",
"N. c #468A47",
"B. c #638D44",
"V. c #628B4A",
"C. c #679447",
"Z. c #719C47",
"A. c #618B57",
"S. c #699858",
"D. c #5AA84A",
"F. c #59A84E",
"G. c #66AD49",
"H. c #75AB48",
"J. c #6DB343",
"K. c #6AB44B",
"L. c #66B649",
"P. c #74B343",
"I. c #77B747",
"U. c #67AD5A",
"Y. c #6AB554",
"T. c #67B356",
"R. c #75B756",
"E. c #77A453",
"W. c #558C61",
"Q. c #598D62",
"!. c #589162",
"~. c #4F8960",
"^. c #709B69",
"/. c #6AB368",
"(. c #70AD6A",
"). c #84B739",
"_. c #86B32F",
"`. c #8DC33A",
"'. c #88B945",
"]. c #8DB256",
"[. c #8EB352",
"{. c #94BB68",
"}. c #8BB47A",
"|. c #94B27C",
" X c #98B479",
".X c #8AAF71",
"XX c #90AD58",
"oX c #8BC447",
"OX c #96C656",
"+X c #98CD4F",
"@X c #AAD858",
"#X c #BEDD5A",
"$X c #B7DB57",
"%X c #AFD04E",
"&X c #BCE25D",
"*X c #BAE85B",
"=X c #A4E459",
"-X c #9AC668",
";X c #95CE72",
":X c #A7C865",
">X c #B7DB66",
",X c #AAD578",
"<X c #B6D974",
"1X c #ABCF6A",
"2X c #ABE166",
"3X c #BCE464",
"4X c #BBEC63",
"5X c #B4E56A",
"6X c #BCE36B",
"7X c #BDEA6B",
"8X c #B3E966",
"9X c #ACEA76",
"0X c #B9E677",
"qX c #B1F070",
"wX c #9FE571",
"eX c #C4DD5C",
"rX c #C7DC58",
"tX c #C7E54D",
"yX c #C4E454",
"uX c #CAE552",
"iX c #C3E45C",
"pX c #C9E35D",
"aX c #C6EA57",
"sX c #C4DD64",
"dX c #C7DE68",
"fX c #D3DD67",
"gX c #C4DD75",
"hX c #C3E463",
"jX c #CBE263",
"kX c #C4E46B",
"lX c #C6E768",
"zX c #D2E364",
"xX c #D4E36A",
"cX c #C3E374",
"vX c #C7E576",
"bX c #D0E171",
"nX c #6AA881",
"mX c #8DB583",
"MX c #87B886",
"NX c #93B583",
"BX c #92B989",
"VX c #A8D685",
"CX c #B1DA83",
"ZX c #ABE987",
"AX c #B6E886",
"SX c #A8E993",
"DX c #C4E585",
"FX c #C5E791",
"GX c #C4DF80",
/* pixels */
"l.n.l.c.c.Q.c.c.c.c.n.n.c.W.x.Q.c.c.c.c.c.c.c.c.c.c.c.c.c.c.c.c.c.c.j.c.c.c.v.c.c.c.c.c.l.c.n.c.c.c.c.c.c.c.c.c.c.c.c.v.c.c.c.v.",
"n.j.c.c.c.c.v.c.c.c.c.c.c.c.c.v.c.c.c.c.c.c.c.c.c.c.c.c.c.j.c.c.c.c.c.c.c.c.v.c.v.c.c.c.c.c.c.j.c.c.c.c.c.c.c.c.v.c.c.c.c.v.c.c.",
"c.c.c.c.c.c.c.c.c.j.n.n.j.n.c.c.j.c.c.c.c.c.c.c.c.c.c.c.c.c.c.c.c.c.c.c.c.c.c.c.c.c.c.c.c.c.c.n.c.c.j.c.c.c.c.c.c.c.c.c.c.l.c.c.",
"W.W.c.c.n.l.l.l.c.c.c.j.n.n.c.c.n.c.c.c.c.c.c.c.c.j.c.c.c.c.c.c.c.c.c.c.c.c.c.v.c.c.c.c.c.c.c.c.c.c.c.c.c.c.c.c.c.c.c.c.c.c.c.c.",
"W.W.c.v.c.l.z.l.c.c.c.c.~.c.W.W.c.c.c.c.c.c.c.c.c.c.c.c.c.c.c.c.c.c.c.c.c.c.c.c.c.j.c.c.c.c.c.c.c.c.j.c.n.c.c.n.c.n.c.n.c.c.c.c.",
"W.c.c.c.v.c.c.v.v.c.c.W.W.W.~.W.c.c.c.c.c.c.c.c.c.c.c.c.c.j.c.c.c.c.c.c.c.c.c.c.c.c.c.c.c.c.c.c.j.n.n.c.n.j.j.c.c.j.c.j.c.c.c.n.",
"W.c.c.c.c.c.c.x.c.c.v.x.x.Q.W.W.c.c.c.c.c.c.c.j.c.c.c.c.c.c.c.c.c.c.c.c.c.c.c.c.c.c.c.c.c.c.c.c.c.c.c.c.c.c.c.c.c.c.c.c.c.c.j.n.",
"c.c.c.c.c.c.W.W.W.v.x.v.v.b.Q.W.c.c.c.c.c.c.c.c.c.c.c.c.c.c.c.c.l.c.c.c.c.c.c.c.c.c.c.c.c.c.c.c.c.c.c.c.c.c.c.c.c.c.c.c.c.c.c.c.",
"z.a.l.l.x.Q.Q.Q.Q.x.z.z.z.l.c.c.c.c.c.c.c.c.c.c.c.c.c.c.c.c.c.c.c.c.c.c.c.c.c.c.c.c.c.c.c.c.c.c.v.c.v.c.v.c.x.c.c.c.c.v.c.c.c.c.",
"#.B.B.s.z.A.b.A.v.MXb.b.s.l.l.l.c.c.j.c.c.c.c.c.c.c.c.c.c.c.c.c.c.c.j.c.c.W.c.c.j.c.c.c.c.c.v.c.c.c.c.W.c.c.c.W.c.c.c.v.c.c.c.c.",
"gXGXDXCXE.p.V.A.NXNX} NXMXMXn.c.c.c.c.c.c.c.c.c.c.c.c.c.c.c.c.c.c.c.c.c.n.j.n.n.c.c.c.j.m.c.m.v.c.v.^.c.c.v.c.(.c.c.c.c.v.c.c.c.",
"gXbXbXvXAX{.} |.^.NXNX.X}.(.c.c.c.c.c.c.c.c.c.c.c.j.c.c.c.c.c.c.c.c.c.c.c.c.j.c.c.c.c.c.Q.j.MXc.v.v.MXx.Q.v.c.MXc.v.v.c.c.l.v.c.",
"fXfXzXfXgXDX%.|.NXNXNXBXk.k.Q.c.c.c.c.c.c.c.c.c.c.c.c.c.c.c.c.c.c.c.c.c.c.n.c.c.c.c.c.c.c.x.MXc.c.v.MXv.c.c.k.MXc.c.c.c.c.c.c.c.",
"fXzXzXzXxXgX1XXX|.mXmXv.v.v.x.W.x.c.c.c.c.c.c.c.c.c.c.c.c.c.c.c.c.c.j.n.c.j.j.n.c.c.c.j.v.c.v.v.l.Q.x.c.v.h.!.v.c.c.c.c.c.c.c.c.",
"dXjXzXzXxXfX<X{..XNXv.h.!.l.Q.b.c.c.c.c.c.c.c.c.c.c.c.c.c.c.c.c.c.c.n.c.c.n.j.c.c.c.c.c.c.v.v.x.c.c.v.v.c.c.c.c.c.c.c.c.n.c.c.c.",
"kXsXrXzXfXfX:XXX Xd.z.c.l.c.c.v.c.c.c.c.c.c.c.c.c.c.c.c.c.c.W.~.c.c.j.W.c.n.c.c.c.c.c.c.c.c.c.v.v.c.c.c.c.c.c.l.c.c.n.j.c.c.c.c.",
"#XeXeXeXjXrX%XOX'.C.#.b.z.v.c.c.c.c.c.c.j.c.n.c.Q.x.v.c.W.W.~.W.Q.~.W.W.c.l.v.c.c.c.c.c.c.c.v.c.W.W.c.c.c.v.c.c.l.c.c.c.c.c.c.c.",
">X#XiXrXrXrXrXeXhX:X{.O.z.v.j.!.j.n.l.c.c.c.j.c.c.c.c.v.c.c.W.W.x.W.Q.x.c.v.l.l.v.c.c.c.l.c.c.c.c.W.c.c.c.v.l.v.c.c.c.c.c.c.c.v.",
"sX>XeXrXrXfXfXpXeXcX<X{.d.z.l.l.c.c.Q.v.c.!.c.W.c.W.c.l.l.z.s.a.z.v.v.Q.W.v.l.n.c.c.c.c.c.c.c.W.c.c.c.c.c.c.v.v.v.x.c.c.c.n.c.c.",
"3X$X&X#X#XsXeXrXpXsXgX,XB.z.l.l.c.c.v.b.z.l.c.W.h.c.a.M.C.B.#.#.B.s.v.b.W.c.n.h.l.l.l.n.c.c.c.W.c.c.c.c.v.c.W.x.v.c.W.W.c.n.h.l.",
"-.3X&X&X#X#XeXrXtXtX$X<Xp.s.h.!.c.z.z.V.s.s.a.l.l.l.f.V.Z.GXDXDX,XO.V.v.x.Q.c.l.n.l.l.n.c.v.c.W.c.c.c.c.c.v.v.W.c.W.c.W.c.c.j.n.",
"-.+X8X&X$X6XeXeX%X$X>X].O.f.l.l.l.M.p.Z.{.Z.d.g.l.l.B.{.DXcXgXvXcXDXC.A.Q.W.x.c.l.n.c.c.c.c.c.c.c.c.c.c.c.c.c.c.x.W.k.c.c.c.j.n.",
"q.0.=.).>X2X#X&X$X@Xq.P.H.f.a.s.s.C.AXcX<X0XH.O.V.E.$.AXgXvXbXlXkX>XFXV.z.v.~.n.W.c.c.c.c.c.c.c.c.v.v.c.v.c.v.c.MXnX^.c.v.b.v.v.",
"0.5.0.q.t.5X-.-.-.`.3.w.J.H.p.p.O.4.cXkXlX0X].VXVXVXXXcXbXjXjXjXjXbXGXXXs.v.c.W.~.W.c.c.c.l.c.c.c.c.c.v.c.v.b.z.mXBXA.b.z.v.v.v.",
"5.1.5.w.3.2X3.:.,.,.:.5.5.w.H.'.4.y.4X&XlXcX1XVXCX,X:XbXzXpXzXjXzXjXvX{.B.d.b.z.v.~.Q.x.c.c.c.c.Q.x.Q.x.^.} .Xb.}.}.^.}  XmX} A.",
"r.2.7.5.w.1.4.OXr.5.>.>.:.,.+XkX3XlX&XhXcX1X,X,X,X-XvXjXpXrXrXfXzXjXbX[.%.#.V.z.v.x.c.Q.c.c.n.c.W.W.c.Q.} BX(.NX}. XV.|.|.BX^.A.",
"2.7.5.5.1.w.P.3.0.5.5.5.:.<.4X*X&XlXlXcX<X1XZX,X,XOXvX*X$XrX#XrXsXfXsX:X[.[.$.p.z.v.v.c.c.c.c.c.c.W.Q.v.BXBXmX|. X X.X|.NXNXQ.Q.",
"J.7.5.5.5.1.4.4.e.,.:.5.0.,.*XlXiXhXcX1X,XVX,X,XoXt.2X$X&X#XeXeXrXsXdXsXhX6X:X{.p.a.z.c.v.!.j.c.c.j.W.x.MXBX}.|.|.|.|.NXNXQ.b.Q.",
"K.K.8.;.5.w.4.OX5X5X3.=.r.3.+XoX+X2X;XVXVXVX;X;XJ.5.,.-.&X&X#XeXsXeXdXfXeXeX6X<X{.f.v.c.j.c.c.n.j.n.c.c.v.A.BXmX.X|.|.NXb.v.x.c.",
"9 3 L.L.r.0.'.6X6X7X5X=.w.7.w.I.I.,XSXVXVX-XI.7.5.5.:.=.-.3X&X#XeXeXrXrXrXpXhX>X,Xp.z.m.c.!.c.l.l.m.l.l.m.m.k.A.mXmXmXA.b.Q.W.W.",
"p 8 3 L.8.w.6XhXlXhX7Xe.2.G.Y.3 g./.;X;XVX;X6.1.;.>.:.:.0.-.3X$X#XrXrXrXrXtXeX>X1X#.s.c.j.c.c.l.s.s.z.l.c.j.c.c.x.c.v.l.m.W.c.j.",
"L L 7 T.6.3.@XhXhXhX3X'.H.G.q u  .n././.M.@.J.7.:.>.;.>.:.0.+X8X&X#XrXrXrX%X$X$XOX$.s.l.v.l.f.f.Z.{.S.M.l.j.n.c.c.c.l.v.k.c.W.c.",
"U e 7 T.6.q.@XiXiXhX8X'.G...i i. .P u.P e  .| L.6.;.:.:.1.5.r.1.'.>X>X*X$X$X@X_.w.H.+.s.s.s.C.AX6XkXAXZ.z.l.n.h.h.l.l.l.z.v.c.j.",
"K r 9 T.P.0.%XiX3X7X7X;XU.u t I u.u.T / u.P X.T.6.9.5.*.9.9.6.2.w.e.8X-.-.-.`.:.1.J.H.+.#.#.4.6XuXyXcXXXV.s.a.l.n.n.n.c.c.c.n.j.",
"e r 7 L.J.I.'.lXlX3X0XZXg.p i.) Y Y / / Y R w ..G.L.;.;.1.8.8.7.1.w.2X,.,.:.:.t.8.7.P.P.'.4.y.iXyXyXlX<X#.V.s.z.n.~.~.!.W.W.c.W.",
"e r X.g.Y.J.I.6X6XkX<XZXo.i Y / ' Y Y ' Q R E w | X.X.@.7.2.*.1.w.1.5.:.oXt.5.5.J.7.1.+XlX3XlX*XuXtXiXkX%.%.O.s.n.j.~.W.Q.W.c.W.",
"e t 7 F.T.K.I.>X7XkX0XZX0 t R U R / R I R L t  .w ....&.2.6.r.5.0.5.5.5.:.r.r.1.5.5.=.4X*X*X*XtXtXtXaXaXhXcX-XZ.f.n.n.j.W.j.W.W.",
"e e 6 6 8 T.H.OX).'.I.R.w i.R R T R R I I L I e r 7 8 D.G.G.J.w.7.1.0.0.e.3.1.r.r.:.,.*XaXaXyX&XtXtXtXtXhXhXdX0XC.a.l.h.c.c.W.c.",
"L H 6  .7 ..R.P.P.w.K.F. .e T u.u.H r  .t t E t I i y 8 o.U.T.J.7.t.w.4.'.5X5Xw.,.0.-.@X`.`.$XhXaXtXtXuXuXaXhX6X[.O.g.a.n.c.W.n.",
"U G u.6 r 8 U.K.H.K.T...r u.P T P u.t w i q 0 | u i i t w w 9 L.7.w.0.'.cX6X3X5X,.:.:.-.<._.3._.aXuXuXtXuXuXpXlX<Xg.g.s.l.n.~.~.",
"K K G G u.7 /.U.F.9  .u.u.H I I I I i SXZXZX9X9X9XZXSX .I e y 9 J.r.w.>X6XlXkX4X0.,.5.0.0.3.w.q.iXuXtXtXuXuXuXhX0X$.p.a.A.c.c.Q.",
"T U G G H P r r w i. .H T u.E i.I i q ZXAX5X7X*X8X9XSX..E K e 7 L.5.w.2XkXsXhX*X).0.0.5.w.w.0.e._.yXaXaXuXtXyXlX0XO.d.b.v.v.v.x.",
"H G T G K R T I P P T u./ I u N.0  .q 9XqX8X*X4X4XqXSXq E R P 7 L.r.w.@XkXhXjXhX_.3.w.e.*.w.5.,._.*X*XaXaXyX*X7XZXd.a.c.v.c.v.c.",
"/ U U U ' ( ) / ) ) ( / U E U.U.o.3 &.9XqX8X*X4X4X5XAXq E K 6 7 L.8.w.OXkXhXjXhX$X).3.3.3.r.t.,.<.4X*XaX*X*X8X5Xq u N.j.Q.x.n.c.",
"! ( ! ` 4 [ [ ` [ ( ( ) ' t /.T.D.L.&.;.:.=X=X*X=XqX9X..i e P 7 L.6.w.'.kXsXhXhX6X6X7X2X+X3.:.5.>.>.-.<.q.q.*.D.0 i p Q c.c.c.n.",
"4 C Z C 4 D C Z 4 4 N ( ' P /.T.D.6.>.>.>.:.>.t.qX9XSX| E e 6 y &.I.5.).cXkXkXkX3X7X6X5XoXe.5.5.>.r.0.t.q.w.2.G.8 i E } z.z.h.n.",
"V g g V j d f V d V f M S ' u. .&.>.;.;.9.;.8.7.wXZXSXu L T G r N.J.0.t.2X7X6X6X6X7X6X8X'.3.5.8.7.7.t.t.e.w.K.D.8 0 d.;XV.s.l.l.",
"h j b $ > : j g g A k V M S )  .D.L.9.9.9.6.L.| q 0 8 ..L K T e ..X.J.I.oXoX).).).).'.q.e.w.J.7.J.P.J.J.K.Y.L.X.0 q SXCXAXB.a.l.",
"b b , & & & * b l c v z k g B 5 /.D.G.8.J.L.F.w t i.I P P P H P 6 7 o.K.P.0.0.>.w.w.e.w.w.P.P.J.K.Y.F.9  .w 7  .q C.0XgX0X].d.a.",
"& - % = + + & 1 b l g k c A h b 5 (.U.U.G.U.U.i Y K P P 6 P T K P r 9 Y.6.r.8.8.7.7.1.7.6.6.7.J.T.9  . .t r  .8 +.0XgXdXgX:X+.a.",
"& = ; @ o + . & 2 2 b A k c A A 4 5 1 s s a nXW ) U G H P G T H 6 r 9 T.J.J.6.6.7.8.r.8.7.7.J.K.9  .i w w 8 q G.AX0XhXjXgXgXO.d.",
"O   O + o @ @ + + & > $ l k z v g g C B 1 4 4 ! ` U T T H G G H P r w /.T.L.L.L.L.L.L.L.L.K.G.T. .t t w q q @.4.5X3XjXpXdXvX].C.",
"+ O + + . X . o .   * $ b k m z z x l g g g C 4 ! ^ U G K U U U K R t y  .8  .7 8 w | u 0 0 u w r P t 9 Y.I.I.0.7X3XhXeXdXdX{.[.",
"+ + + = + X . @ o + ; - b b z z c c c x x f f N Z ! ! U U U ) U K K L e I I u.r I I E I L t t I T P t | R.I.t.q.2X3XhXjXpXkXdXgX",
"+ + + . = + + @ X X % % $ b b j b x c x c c x g N Z { ( ! ( ( ! W W ' I Y T R U Y Y Y Y Y Y Y Y u.P u U.I.I.t.t.+X*XhXiXpXpXdXkX",
"@ + = + + = + + @ . X X % & - 1 b j b j n l x c v N f M M 4 N Z Z Z ^ ` ) ) ) ^ ( ( ~ ~ ( ) ) U U T i /.R.I.t.).q.4X&XiX#XpXjXhX",
"+ + + + ; + + + . X X X + + + + & * * * : b n n l h g M V g f g M M N C Z Z Z Z Z D ] ] ! [ ^ ) ) W i g.R.I.t.t.q.)._._.iX&XhX3X",
"+ O + O O   + + + . + + X + + + = = ; & = b b b n h j j g g k l x x f V d N d M M M B ] ] { ( ^ ^ Y Q p o.R.I.e.'.e.).)._.6X5X@X",
"+ O + + + + + + O O + + + + + + = . + +   ; & , * , 1 1 2 2 b j h l c k k f f f A k g f D ] ( / ' Y U Q E 8 U.R.I.I.e.'.P.;Xo.q ",
"O O + + # + X X X + O + + . = = . @ + O + + ; = = & & & & & , , < n l j c x c x c x z v V D ` ( Y U ' J ' Q p o./.R.R.R.R.M.p Q ",
"+ O # X X X @ % X + + + & % = = @ @ X o O O + + + ; + = % % % & : $ F j x c n x m v m z f d ] ~ ` ( ( ( ^ W W Q p p p p E t Y / ",
"O . @ . . . . X # + . + . = = % + + . + +   + + + + + = = % = = - $ b b l n c x x m z v k A B M D ] ] ] ~ ~ W W J _ p W W W ^ ^ ",
"# # . + O + + . + + X # + O + O o # + + + - +   + + + + . + + ; = - b b n c n b g v v v z z k k g d A N ] ~ _ W _ W J W W W _ _ ",
"# o o O O O O + O + o o # O O O # # X = . = ; + + + + + + O O + + & : $ : : : n g f A A v z x x k g g V B 5 ~ _ _ _ _ _ _ _ } } "
};
